%TF.GenerationSoftware,KiCad,Pcbnew,7.0.1-0*%
%TF.CreationDate,2023-05-30T10:47:41-05:00*%
%TF.ProjectId,pcb,7063622e-6b69-4636-9164-5f7063625858,rev?*%
%TF.SameCoordinates,Original*%
%TF.FileFunction,Legend,Top*%
%TF.FilePolarity,Positive*%
%FSLAX46Y46*%
G04 Gerber Fmt 4.6, Leading zero omitted, Abs format (unit mm)*
G04 Created by KiCad (PCBNEW 7.0.1-0) date 2023-05-30 10:47:41*
%MOMM*%
%LPD*%
G01*
G04 APERTURE LIST*
%ADD10C,0.150000*%
G04 APERTURE END LIST*
D10*
X29263095Y-112902619D02*
X29263095Y-112235952D01*
X29263095Y-112331190D02*
X29310714Y-112283571D01*
X29310714Y-112283571D02*
X29405952Y-112235952D01*
X29405952Y-112235952D02*
X29548809Y-112235952D01*
X29548809Y-112235952D02*
X29644047Y-112283571D01*
X29644047Y-112283571D02*
X29691666Y-112378809D01*
X29691666Y-112378809D02*
X29691666Y-112902619D01*
X29691666Y-112378809D02*
X29739285Y-112283571D01*
X29739285Y-112283571D02*
X29834523Y-112235952D01*
X29834523Y-112235952D02*
X29977380Y-112235952D01*
X29977380Y-112235952D02*
X30072619Y-112283571D01*
X30072619Y-112283571D02*
X30120238Y-112378809D01*
X30120238Y-112378809D02*
X30120238Y-112902619D01*
X31024999Y-112902619D02*
X31024999Y-112378809D01*
X31024999Y-112378809D02*
X30977380Y-112283571D01*
X30977380Y-112283571D02*
X30882142Y-112235952D01*
X30882142Y-112235952D02*
X30691666Y-112235952D01*
X30691666Y-112235952D02*
X30596428Y-112283571D01*
X31024999Y-112855000D02*
X30929761Y-112902619D01*
X30929761Y-112902619D02*
X30691666Y-112902619D01*
X30691666Y-112902619D02*
X30596428Y-112855000D01*
X30596428Y-112855000D02*
X30548809Y-112759761D01*
X30548809Y-112759761D02*
X30548809Y-112664523D01*
X30548809Y-112664523D02*
X30596428Y-112569285D01*
X30596428Y-112569285D02*
X30691666Y-112521666D01*
X30691666Y-112521666D02*
X30929761Y-112521666D01*
X30929761Y-112521666D02*
X31024999Y-112474047D01*
X31501190Y-112902619D02*
X31501190Y-112235952D01*
X31501190Y-112426428D02*
X31548809Y-112331190D01*
X31548809Y-112331190D02*
X31596428Y-112283571D01*
X31596428Y-112283571D02*
X31691666Y-112235952D01*
X31691666Y-112235952D02*
X31786904Y-112235952D01*
X32548809Y-112902619D02*
X32548809Y-112378809D01*
X32548809Y-112378809D02*
X32501190Y-112283571D01*
X32501190Y-112283571D02*
X32405952Y-112235952D01*
X32405952Y-112235952D02*
X32215476Y-112235952D01*
X32215476Y-112235952D02*
X32120238Y-112283571D01*
X32548809Y-112855000D02*
X32453571Y-112902619D01*
X32453571Y-112902619D02*
X32215476Y-112902619D01*
X32215476Y-112902619D02*
X32120238Y-112855000D01*
X32120238Y-112855000D02*
X32072619Y-112759761D01*
X32072619Y-112759761D02*
X32072619Y-112664523D01*
X32072619Y-112664523D02*
X32120238Y-112569285D01*
X32120238Y-112569285D02*
X32215476Y-112521666D01*
X32215476Y-112521666D02*
X32453571Y-112521666D01*
X32453571Y-112521666D02*
X32548809Y-112474047D01*
X33786905Y-112902619D02*
X33786905Y-112235952D01*
X33786905Y-112426428D02*
X33834524Y-112331190D01*
X33834524Y-112331190D02*
X33882143Y-112283571D01*
X33882143Y-112283571D02*
X33977381Y-112235952D01*
X33977381Y-112235952D02*
X34072619Y-112235952D01*
X34786905Y-112855000D02*
X34691667Y-112902619D01*
X34691667Y-112902619D02*
X34501191Y-112902619D01*
X34501191Y-112902619D02*
X34405953Y-112855000D01*
X34405953Y-112855000D02*
X34358334Y-112759761D01*
X34358334Y-112759761D02*
X34358334Y-112378809D01*
X34358334Y-112378809D02*
X34405953Y-112283571D01*
X34405953Y-112283571D02*
X34501191Y-112235952D01*
X34501191Y-112235952D02*
X34691667Y-112235952D01*
X34691667Y-112235952D02*
X34786905Y-112283571D01*
X34786905Y-112283571D02*
X34834524Y-112378809D01*
X34834524Y-112378809D02*
X34834524Y-112474047D01*
X34834524Y-112474047D02*
X34358334Y-112569285D01*
X35167858Y-112235952D02*
X35405953Y-112902619D01*
X35405953Y-112902619D02*
X35644048Y-112235952D01*
X36025001Y-112807380D02*
X36072620Y-112855000D01*
X36072620Y-112855000D02*
X36025001Y-112902619D01*
X36025001Y-112902619D02*
X35977382Y-112855000D01*
X35977382Y-112855000D02*
X36025001Y-112807380D01*
X36025001Y-112807380D02*
X36025001Y-112902619D01*
X37786905Y-112902619D02*
X37215477Y-112902619D01*
X37501191Y-112902619D02*
X37501191Y-111902619D01*
X37501191Y-111902619D02*
X37405953Y-112045476D01*
X37405953Y-112045476D02*
X37310715Y-112140714D01*
X37310715Y-112140714D02*
X37215477Y-112188333D01*
X38215477Y-112807380D02*
X38263096Y-112855000D01*
X38263096Y-112855000D02*
X38215477Y-112902619D01*
X38215477Y-112902619D02*
X38167858Y-112855000D01*
X38167858Y-112855000D02*
X38215477Y-112807380D01*
X38215477Y-112807380D02*
X38215477Y-112902619D01*
X38882143Y-111902619D02*
X38977381Y-111902619D01*
X38977381Y-111902619D02*
X39072619Y-111950238D01*
X39072619Y-111950238D02*
X39120238Y-111997857D01*
X39120238Y-111997857D02*
X39167857Y-112093095D01*
X39167857Y-112093095D02*
X39215476Y-112283571D01*
X39215476Y-112283571D02*
X39215476Y-112521666D01*
X39215476Y-112521666D02*
X39167857Y-112712142D01*
X39167857Y-112712142D02*
X39120238Y-112807380D01*
X39120238Y-112807380D02*
X39072619Y-112855000D01*
X39072619Y-112855000D02*
X38977381Y-112902619D01*
X38977381Y-112902619D02*
X38882143Y-112902619D01*
X38882143Y-112902619D02*
X38786905Y-112855000D01*
X38786905Y-112855000D02*
X38739286Y-112807380D01*
X38739286Y-112807380D02*
X38691667Y-112712142D01*
X38691667Y-112712142D02*
X38644048Y-112521666D01*
X38644048Y-112521666D02*
X38644048Y-112283571D01*
X38644048Y-112283571D02*
X38691667Y-112093095D01*
X38691667Y-112093095D02*
X38739286Y-111997857D01*
X38739286Y-111997857D02*
X38786905Y-111950238D01*
X38786905Y-111950238D02*
X38882143Y-111902619D01*
X40358334Y-111997857D02*
X40405953Y-111950238D01*
X40405953Y-111950238D02*
X40501191Y-111902619D01*
X40501191Y-111902619D02*
X40739286Y-111902619D01*
X40739286Y-111902619D02*
X40834524Y-111950238D01*
X40834524Y-111950238D02*
X40882143Y-111997857D01*
X40882143Y-111997857D02*
X40929762Y-112093095D01*
X40929762Y-112093095D02*
X40929762Y-112188333D01*
X40929762Y-112188333D02*
X40882143Y-112331190D01*
X40882143Y-112331190D02*
X40310715Y-112902619D01*
X40310715Y-112902619D02*
X40929762Y-112902619D01*
X41548810Y-111902619D02*
X41644048Y-111902619D01*
X41644048Y-111902619D02*
X41739286Y-111950238D01*
X41739286Y-111950238D02*
X41786905Y-111997857D01*
X41786905Y-111997857D02*
X41834524Y-112093095D01*
X41834524Y-112093095D02*
X41882143Y-112283571D01*
X41882143Y-112283571D02*
X41882143Y-112521666D01*
X41882143Y-112521666D02*
X41834524Y-112712142D01*
X41834524Y-112712142D02*
X41786905Y-112807380D01*
X41786905Y-112807380D02*
X41739286Y-112855000D01*
X41739286Y-112855000D02*
X41644048Y-112902619D01*
X41644048Y-112902619D02*
X41548810Y-112902619D01*
X41548810Y-112902619D02*
X41453572Y-112855000D01*
X41453572Y-112855000D02*
X41405953Y-112807380D01*
X41405953Y-112807380D02*
X41358334Y-112712142D01*
X41358334Y-112712142D02*
X41310715Y-112521666D01*
X41310715Y-112521666D02*
X41310715Y-112283571D01*
X41310715Y-112283571D02*
X41358334Y-112093095D01*
X41358334Y-112093095D02*
X41405953Y-111997857D01*
X41405953Y-111997857D02*
X41453572Y-111950238D01*
X41453572Y-111950238D02*
X41548810Y-111902619D01*
X42263096Y-111997857D02*
X42310715Y-111950238D01*
X42310715Y-111950238D02*
X42405953Y-111902619D01*
X42405953Y-111902619D02*
X42644048Y-111902619D01*
X42644048Y-111902619D02*
X42739286Y-111950238D01*
X42739286Y-111950238D02*
X42786905Y-111997857D01*
X42786905Y-111997857D02*
X42834524Y-112093095D01*
X42834524Y-112093095D02*
X42834524Y-112188333D01*
X42834524Y-112188333D02*
X42786905Y-112331190D01*
X42786905Y-112331190D02*
X42215477Y-112902619D01*
X42215477Y-112902619D02*
X42834524Y-112902619D01*
X43167858Y-111902619D02*
X43786905Y-111902619D01*
X43786905Y-111902619D02*
X43453572Y-112283571D01*
X43453572Y-112283571D02*
X43596429Y-112283571D01*
X43596429Y-112283571D02*
X43691667Y-112331190D01*
X43691667Y-112331190D02*
X43739286Y-112378809D01*
X43739286Y-112378809D02*
X43786905Y-112474047D01*
X43786905Y-112474047D02*
X43786905Y-112712142D01*
X43786905Y-112712142D02*
X43739286Y-112807380D01*
X43739286Y-112807380D02*
X43691667Y-112855000D01*
X43691667Y-112855000D02*
X43596429Y-112902619D01*
X43596429Y-112902619D02*
X43310715Y-112902619D01*
X43310715Y-112902619D02*
X43215477Y-112855000D01*
X43215477Y-112855000D02*
X43167858Y-112807380D01*
X44215477Y-112807380D02*
X44263096Y-112855000D01*
X44263096Y-112855000D02*
X44215477Y-112902619D01*
X44215477Y-112902619D02*
X44167858Y-112855000D01*
X44167858Y-112855000D02*
X44215477Y-112807380D01*
X44215477Y-112807380D02*
X44215477Y-112902619D01*
X44882143Y-111902619D02*
X44977381Y-111902619D01*
X44977381Y-111902619D02*
X45072619Y-111950238D01*
X45072619Y-111950238D02*
X45120238Y-111997857D01*
X45120238Y-111997857D02*
X45167857Y-112093095D01*
X45167857Y-112093095D02*
X45215476Y-112283571D01*
X45215476Y-112283571D02*
X45215476Y-112521666D01*
X45215476Y-112521666D02*
X45167857Y-112712142D01*
X45167857Y-112712142D02*
X45120238Y-112807380D01*
X45120238Y-112807380D02*
X45072619Y-112855000D01*
X45072619Y-112855000D02*
X44977381Y-112902619D01*
X44977381Y-112902619D02*
X44882143Y-112902619D01*
X44882143Y-112902619D02*
X44786905Y-112855000D01*
X44786905Y-112855000D02*
X44739286Y-112807380D01*
X44739286Y-112807380D02*
X44691667Y-112712142D01*
X44691667Y-112712142D02*
X44644048Y-112521666D01*
X44644048Y-112521666D02*
X44644048Y-112283571D01*
X44644048Y-112283571D02*
X44691667Y-112093095D01*
X44691667Y-112093095D02*
X44739286Y-111997857D01*
X44739286Y-111997857D02*
X44786905Y-111950238D01*
X44786905Y-111950238D02*
X44882143Y-111902619D01*
X46120238Y-111902619D02*
X45644048Y-111902619D01*
X45644048Y-111902619D02*
X45596429Y-112378809D01*
X45596429Y-112378809D02*
X45644048Y-112331190D01*
X45644048Y-112331190D02*
X45739286Y-112283571D01*
X45739286Y-112283571D02*
X45977381Y-112283571D01*
X45977381Y-112283571D02*
X46072619Y-112331190D01*
X46072619Y-112331190D02*
X46120238Y-112378809D01*
X46120238Y-112378809D02*
X46167857Y-112474047D01*
X46167857Y-112474047D02*
X46167857Y-112712142D01*
X46167857Y-112712142D02*
X46120238Y-112807380D01*
X46120238Y-112807380D02*
X46072619Y-112855000D01*
X46072619Y-112855000D02*
X45977381Y-112902619D01*
X45977381Y-112902619D02*
X45739286Y-112902619D01*
X45739286Y-112902619D02*
X45644048Y-112855000D01*
X45644048Y-112855000D02*
X45596429Y-112807380D01*
X46596429Y-112807380D02*
X46644048Y-112855000D01*
X46644048Y-112855000D02*
X46596429Y-112902619D01*
X46596429Y-112902619D02*
X46548810Y-112855000D01*
X46548810Y-112855000D02*
X46596429Y-112807380D01*
X46596429Y-112807380D02*
X46596429Y-112902619D01*
X47025000Y-111997857D02*
X47072619Y-111950238D01*
X47072619Y-111950238D02*
X47167857Y-111902619D01*
X47167857Y-111902619D02*
X47405952Y-111902619D01*
X47405952Y-111902619D02*
X47501190Y-111950238D01*
X47501190Y-111950238D02*
X47548809Y-111997857D01*
X47548809Y-111997857D02*
X47596428Y-112093095D01*
X47596428Y-112093095D02*
X47596428Y-112188333D01*
X47596428Y-112188333D02*
X47548809Y-112331190D01*
X47548809Y-112331190D02*
X46977381Y-112902619D01*
X46977381Y-112902619D02*
X47596428Y-112902619D01*
X48501190Y-111902619D02*
X48025000Y-111902619D01*
X48025000Y-111902619D02*
X47977381Y-112378809D01*
X47977381Y-112378809D02*
X48025000Y-112331190D01*
X48025000Y-112331190D02*
X48120238Y-112283571D01*
X48120238Y-112283571D02*
X48358333Y-112283571D01*
X48358333Y-112283571D02*
X48453571Y-112331190D01*
X48453571Y-112331190D02*
X48501190Y-112378809D01*
X48501190Y-112378809D02*
X48548809Y-112474047D01*
X48548809Y-112474047D02*
X48548809Y-112712142D01*
X48548809Y-112712142D02*
X48501190Y-112807380D01*
X48501190Y-112807380D02*
X48453571Y-112855000D01*
X48453571Y-112855000D02*
X48358333Y-112902619D01*
X48358333Y-112902619D02*
X48120238Y-112902619D01*
X48120238Y-112902619D02*
X48025000Y-112855000D01*
X48025000Y-112855000D02*
X47977381Y-112807380D01*
%TO.C,SW1*%
X128275000Y-105450000D02*
X128275000Y-107650000D01*
X128275000Y-109150000D02*
X133475000Y-109150000D01*
X133475000Y-103950000D02*
X128275000Y-103950000D01*
X133475000Y-107650000D02*
X133475000Y-105450000D01*
X131875000Y-106550000D02*
G75*
G03*
X131875000Y-106550000I-1000000J0D01*
G01*
%TD*%
M02*
