M48
; DRILL file {KiCad 7.0.1-0} date 2023 May 30, Tuesday 10:47:42
; FORMAT={-:-/ absolute / inch / decimal}
; #@! TF.CreationDate,2023-05-30T10:47:42-05:00
; #@! TF.GenerationSoftware,Kicad,Pcbnew,7.0.1-0
; #@! TF.FileFunction,Plated,1,2,PTH
FMAT,2
INCH
; #@! TA.AperFunction,Plated,PTH,ViaDrill
T1C0.0160
; #@! TA.AperFunction,Plated,PTH,ComponentDrill
T2C0.0300
; #@! TA.AperFunction,Plated,PTH,ComponentDrill
T3C0.0394
; #@! TA.AperFunction,Plated,PTH,ComponentDrill
T4C0.1181
%
G90
G05
T1
X1.0817Y-4.4459
X1.6506Y-2.1663
X1.7451Y-4.248
X1.8268Y-2.9006
X1.9075Y-2.7654
X1.9075Y-2.8451
X1.9311Y-3.5049
X1.9508Y-2.7654
X1.9508Y-2.8451
X2.0413Y-3.5512
X2.1909Y-4.3051
X2.25Y-2.0098
X2.25Y-2.0896
X2.2992Y-2.0896
X2.2994Y-2.0106
X2.4375Y-2.7612
X2.4375Y-2.8409
X2.4808Y-2.7618
X2.4808Y-2.8415
X2.5881Y-2.7598
X2.6152Y-2.0896
X2.6154Y-2.0106
X2.6663Y-2.0896
X2.6665Y-2.0106
X2.7343Y-2.4793
X2.7534Y-2.8031
X2.8268Y-2.3711
X2.9877Y-2.9232
X2.9878Y-3.0185
X3.0428Y-2.9232
X3.0429Y-3.0185
X3.3705Y-2.0197
X3.3705Y-2.0994
X3.4163Y-2.0197
X3.4163Y-2.0994
X3.465Y-2.9232
X3.4651Y-3.0185
X3.5201Y-2.9232
X3.5202Y-3.0185
X3.5527Y-3.5108
X3.5527Y-3.5906
X3.5586Y-2.7657
X3.5586Y-2.8455
X3.6019Y-2.7657
X3.6019Y-2.8455
X3.6038Y-3.5108
X3.6038Y-3.5906
X4.0091Y-2.922
X4.0092Y-3.0173
X4.0642Y-2.922
X4.0643Y-3.0173
X4.1205Y-2.0197
X4.1205Y-2.0994
X4.1663Y-2.0197
X4.1663Y-2.0994
X4.2968Y-3.5108
X4.2968Y-3.5906
X4.3036Y-2.7657
X4.3036Y-2.8455
X4.3479Y-3.5108
X4.3479Y-3.5906
X4.3519Y-2.7657
X4.3519Y-2.8455
X4.7333Y-4.1939
X4.7726Y-3.6909
X4.8028Y-2.9217
X4.8029Y-3.0169
X4.8579Y-2.9217
X4.858Y-3.0169
X4.8705Y-2.0098
X4.8705Y-2.0896
X4.9163Y-2.0098
X4.9163Y-2.0896
X4.9616Y-4.1555
X5.0303Y-4.2087
X5.0517Y-3.5118
X5.0517Y-3.5915
X5.0536Y-2.7612
X5.0536Y-2.8409
X5.1019Y-2.7612
X5.1019Y-2.8409
X5.1029Y-3.5118
X5.1029Y-3.5915
X5.2746Y-4.0683
X5.4518Y-4.3022
X5.4518Y-4.4636
X5.4524Y-2.922
X5.4525Y-3.0173
X5.4941Y-4.3022
X5.4941Y-4.4636
X5.5075Y-2.922
X5.5076Y-3.0173
X5.5246Y-3.6654
X5.6156Y-3.797
X5.6165Y-2.0098
X5.6165Y-2.0896
X5.6624Y-2.0098
X5.6624Y-2.0896
X5.7948Y-3.5118
X5.7948Y-3.5915
X5.7997Y-2.7612
X5.7997Y-2.8409
X5.846Y-3.5118
X5.846Y-3.5915
X5.8479Y-2.7612
X5.8479Y-2.8409
X6.1132Y-3.6102
X6.2037Y-3.5512
X6.289Y-2.9224
X6.2891Y-3.0177
X6.3337Y-4.0571
X6.3337Y-4.2234
X6.3441Y-2.9224
X6.3442Y-3.0177
X6.3705Y-2.0098
X6.3705Y-2.0896
X6.4163Y-2.0098
X6.4163Y-2.0896
X6.4518Y-3.9281
X6.4518Y-4.3494
X6.4813Y-4.0699
X6.4951Y-4.3819
X6.5536Y-2.7612
X6.5536Y-2.8409
X6.6019Y-2.7612
X6.6019Y-2.8409
X6.6053Y-3.8209
X6.626Y-4.2638
X6.628Y-3.9911
X6.628Y-4.0778
X6.628Y-4.186
X6.628Y-4.4575
X6.6595Y-4.4363
X6.6841Y-4.2648
X6.686Y-3.9921
X6.686Y-4.0787
X6.686Y-4.187
X6.691Y-4.4575
X6.7225Y-4.4363
X6.748Y-4.2638
X6.75Y-3.9911
X6.75Y-4.0778
X6.75Y-4.186
X6.754Y-4.4575
X6.7854Y-3.8209
X6.7855Y-4.4363
X6.811Y-4.2648
X6.813Y-3.9921
X6.813Y-4.0787
X6.813Y-4.187
X6.817Y-4.4575
X6.8483Y-3.7468
X6.8587Y-4.4472
X6.875Y-4.2628
X6.877Y-3.9902
X6.877Y-4.0768
X6.877Y-4.185
X6.8799Y-3.7258
X6.9116Y-3.7468
X6.9173Y-4.4862
X6.937Y-3.5512
X6.9636Y-3.5797
X7.0266Y-3.7878
X7.0591Y-3.7608
X7.1043Y-3.8228
X7.1224Y-2.0098
X7.1224Y-2.0896
X7.1309Y-4.1122
X7.1683Y-2.0098
X7.1683Y-2.0896
X7.186Y-4.4705
X7.3056Y-2.7612
X7.3056Y-2.8409
X7.3538Y-2.7612
X7.3538Y-2.8409
X7.4921Y-4.063
X7.4921Y-4.1693
X7.5748Y-4.2392
X7.6122Y-3.5108
X7.6122Y-3.6358
X7.6703Y-3.5108
X7.6703Y-3.6358
X7.7717Y-3.6132
X7.8665Y-2.0098
X7.8665Y-2.0896
X7.9124Y-2.0098
X7.9124Y-2.0896
X8.0325Y-3.5797
X8.0325Y-4.3238
X8.0625Y-2.7608
X8.0625Y-2.8406
X8.1048Y-2.7612
X8.1048Y-2.8409
X8.588Y-2.0101
X8.588Y-2.0899
X8.6339Y-2.0101
X8.6339Y-2.0899
X8.7958Y-3.5118
X8.7958Y-3.5915
X8.8164Y-2.7697
X8.8164Y-2.8396
X8.8538Y-3.5118
X8.8538Y-3.5915
X8.8647Y-2.7701
X8.8647Y-2.84
X9.3108Y-2.0097
X9.3108Y-2.0895
X9.3567Y-2.0097
X9.3567Y-2.0895
X9.6083Y-3.5118
X9.6083Y-3.5915
X9.6663Y-3.5118
X9.6663Y-3.5915
X9.7766Y-2.7697
X9.7766Y-2.8396
X9.8248Y-2.7701
X9.8248Y-2.84
X9.9281Y-3.3209
T2
X4.1526Y-4.1949
X4.2526Y-4.1949
X4.3526Y-4.1949
X4.4526Y-4.1949
X4.5526Y-4.1949
X4.6526Y-4.1949
T3
X10.6417Y-2.3215
X10.6417Y-2.4215
X10.6417Y-2.5215
X10.6417Y-2.6215
X10.6417Y-2.7215
X10.6417Y-2.8215
X10.6417Y-2.9215
X10.6417Y-3.0215
T4
X1.2094Y-1.8219
X1.3031Y-2.5719
X1.3031Y-4.0719
X1.4594Y-1.7219
X1.4906Y-3.3219
X1.5531Y-2.4719
X1.5531Y-3.9719
X1.7406Y-3.2219
X1.9594Y-1.8219
X2.1469Y-2.5719
X2.1469Y-4.0719
X2.2094Y-1.7219
X2.3969Y-2.4719
X2.3969Y-3.9719
X2.5219Y-3.3219
X2.7094Y-1.8219
X2.7719Y-3.2219
X2.8969Y-2.5719
X2.8969Y-4.0719
X2.9594Y-1.7219
X3.1469Y-2.4719
X3.1469Y-3.9719
X3.2719Y-3.3219
X3.4594Y-1.8219
X3.5219Y-3.2219
X3.6469Y-2.5719
X3.7094Y-1.7219
X3.8969Y-2.4719
X4.0219Y-3.3219
X4.2094Y-1.8219
X4.2719Y-3.2219
X4.3969Y-2.5719
X4.4594Y-1.7219
X4.6469Y-2.4719
X4.7719Y-3.3219
X4.9594Y-1.8219
X5.0219Y-3.2219
X5.1469Y-2.5719
X5.2094Y-1.7219
X5.3969Y-2.4719
X5.5219Y-3.3219
X5.6156Y-4.0719
X5.7094Y-1.8219
X5.7719Y-3.2219
X5.8656Y-3.9719
X5.8969Y-2.5719
X5.9594Y-1.7219
X6.1469Y-2.4719
X6.2719Y-3.3219
X6.4594Y-1.8219
X6.5219Y-3.2219
X6.6469Y-2.5719
X6.7094Y-1.7219
X6.8969Y-2.4719
X7.0219Y-3.3219
X7.2094Y-1.8219
X7.2719Y-3.2219
X7.3969Y-2.5719
X7.4594Y-1.7219
X7.6469Y-2.4719
X7.7719Y-3.3219
X7.9594Y-1.8219
X8.0219Y-3.2219
X8.1469Y-2.5719
X8.2094Y-1.7219
X8.3344Y-4.0719
X8.3969Y-2.4719
X8.5219Y-3.3219
X8.5844Y-3.9719
X8.7094Y-1.8219
X8.7719Y-3.2219
X8.8969Y-2.5719
X8.9594Y-1.7219
X9.1469Y-2.4719
X9.1781Y-4.0719
X9.3656Y-3.3219
X9.4281Y-3.9719
X9.4594Y-1.8219
X9.6156Y-3.2219
X9.7094Y-1.7219
X9.9281Y-2.5719
X10.1156Y-4.0719
X10.1781Y-2.4719
X10.2094Y-1.8219
X10.2094Y-3.3219
X10.3656Y-3.9719
X10.4594Y-1.7219
X10.4594Y-3.2219
T0
M30
