%TF.GenerationSoftware,KiCad,Pcbnew,7.0.1-0*%
%TF.CreationDate,2023-05-30T10:47:41-05:00*%
%TF.ProjectId,pcb,7063622e-6b69-4636-9164-5f7063625858,rev?*%
%TF.SameCoordinates,Original*%
%TF.FileFunction,Soldermask,Bot*%
%TF.FilePolarity,Negative*%
%FSLAX46Y46*%
G04 Gerber Fmt 4.6, Leading zero omitted, Abs format (unit mm)*
G04 Created by KiCad (PCBNEW 7.0.1-0) date 2023-05-30 10:47:41*
%MOMM*%
%LPD*%
G01*
G04 APERTURE LIST*
G04 Aperture macros list*
%AMRoundRect*
0 Rectangle with rounded corners*
0 $1 Rounding radius*
0 $2 $3 $4 $5 $6 $7 $8 $9 X,Y pos of 4 corners*
0 Add a 4 corners polygon primitive as box body*
4,1,4,$2,$3,$4,$5,$6,$7,$8,$9,$2,$3,0*
0 Add four circle primitives for the rounded corners*
1,1,$1+$1,$2,$3*
1,1,$1+$1,$4,$5*
1,1,$1+$1,$6,$7*
1,1,$1+$1,$8,$9*
0 Add four rect primitives between the rounded corners*
20,1,$1+$1,$2,$3,$4,$5,0*
20,1,$1+$1,$4,$5,$6,$7,0*
20,1,$1+$1,$6,$7,$8,$9,0*
20,1,$1+$1,$8,$9,$2,$3,0*%
G04 Aperture macros list end*
%ADD10C,0.300000*%
%ADD11C,1.750000*%
%ADD12C,3.987800*%
%ADD13C,3.300000*%
%ADD14RoundRect,0.250000X1.025000X1.000000X-1.025000X1.000000X-1.025000X-1.000000X1.025000X-1.000000X0*%
%ADD15O,1.700000X1.700000*%
%ADD16C,1.700000*%
%ADD17RoundRect,0.250000X-0.250000X-0.475000X0.250000X-0.475000X0.250000X0.475000X-0.250000X0.475000X0*%
%ADD18RoundRect,0.250000X0.450000X-0.262500X0.450000X0.262500X-0.450000X0.262500X-0.450000X-0.262500X0*%
%ADD19RoundRect,0.225000X0.375000X-0.225000X0.375000X0.225000X-0.375000X0.225000X-0.375000X-0.225000X0*%
%ADD20RoundRect,0.250000X-0.450000X0.262500X-0.450000X-0.262500X0.450000X-0.262500X0.450000X0.262500X0*%
%ADD21C,3.048000*%
%ADD22RoundRect,0.250000X0.250000X0.475000X-0.250000X0.475000X-0.250000X-0.475000X0.250000X-0.475000X0*%
%ADD23R,1.200000X1.400000*%
%ADD24RoundRect,0.250000X0.475000X-0.250000X0.475000X0.250000X-0.475000X0.250000X-0.475000X-0.250000X0*%
%ADD25RoundRect,0.150000X-0.150000X-0.625000X0.150000X-0.625000X0.150000X0.625000X-0.150000X0.625000X0*%
%ADD26RoundRect,0.250000X-0.350000X-0.650000X0.350000X-0.650000X0.350000X0.650000X-0.350000X0.650000X0*%
%ADD27RoundRect,0.250000X-0.262500X-0.450000X0.262500X-0.450000X0.262500X0.450000X-0.262500X0.450000X0*%
%ADD28R,0.550000X1.500000*%
%ADD29R,1.500000X0.550000*%
%ADD30O,1.524000X1.524000*%
%ADD31R,1.524000X1.524000*%
%ADD32R,1.800000X1.100000*%
G04 APERTURE END LIST*
D10*
X44046427Y-112918928D02*
X44046427Y-111918928D01*
X44046427Y-112061785D02*
X43974998Y-111990357D01*
X43974998Y-111990357D02*
X43832141Y-111918928D01*
X43832141Y-111918928D02*
X43617855Y-111918928D01*
X43617855Y-111918928D02*
X43474998Y-111990357D01*
X43474998Y-111990357D02*
X43403570Y-112133214D01*
X43403570Y-112133214D02*
X43403570Y-112918928D01*
X43403570Y-112133214D02*
X43332141Y-111990357D01*
X43332141Y-111990357D02*
X43189284Y-111918928D01*
X43189284Y-111918928D02*
X42974998Y-111918928D01*
X42974998Y-111918928D02*
X42832141Y-111990357D01*
X42832141Y-111990357D02*
X42760712Y-112133214D01*
X42760712Y-112133214D02*
X42760712Y-112918928D01*
X41403570Y-112918928D02*
X41403570Y-112133214D01*
X41403570Y-112133214D02*
X41474998Y-111990357D01*
X41474998Y-111990357D02*
X41617855Y-111918928D01*
X41617855Y-111918928D02*
X41903570Y-111918928D01*
X41903570Y-111918928D02*
X42046427Y-111990357D01*
X41403570Y-112847500D02*
X41546427Y-112918928D01*
X41546427Y-112918928D02*
X41903570Y-112918928D01*
X41903570Y-112918928D02*
X42046427Y-112847500D01*
X42046427Y-112847500D02*
X42117855Y-112704642D01*
X42117855Y-112704642D02*
X42117855Y-112561785D01*
X42117855Y-112561785D02*
X42046427Y-112418928D01*
X42046427Y-112418928D02*
X41903570Y-112347500D01*
X41903570Y-112347500D02*
X41546427Y-112347500D01*
X41546427Y-112347500D02*
X41403570Y-112276071D01*
X40689284Y-112918928D02*
X40689284Y-111918928D01*
X40689284Y-112204642D02*
X40617855Y-112061785D01*
X40617855Y-112061785D02*
X40546427Y-111990357D01*
X40546427Y-111990357D02*
X40403569Y-111918928D01*
X40403569Y-111918928D02*
X40260712Y-111918928D01*
X39117856Y-112918928D02*
X39117856Y-112133214D01*
X39117856Y-112133214D02*
X39189284Y-111990357D01*
X39189284Y-111990357D02*
X39332141Y-111918928D01*
X39332141Y-111918928D02*
X39617856Y-111918928D01*
X39617856Y-111918928D02*
X39760713Y-111990357D01*
X39117856Y-112847500D02*
X39260713Y-112918928D01*
X39260713Y-112918928D02*
X39617856Y-112918928D01*
X39617856Y-112918928D02*
X39760713Y-112847500D01*
X39760713Y-112847500D02*
X39832141Y-112704642D01*
X39832141Y-112704642D02*
X39832141Y-112561785D01*
X39832141Y-112561785D02*
X39760713Y-112418928D01*
X39760713Y-112418928D02*
X39617856Y-112347500D01*
X39617856Y-112347500D02*
X39260713Y-112347500D01*
X39260713Y-112347500D02*
X39117856Y-112276071D01*
X37260713Y-112918928D02*
X37260713Y-111918928D01*
X37260713Y-112204642D02*
X37189284Y-112061785D01*
X37189284Y-112061785D02*
X37117856Y-111990357D01*
X37117856Y-111990357D02*
X36974998Y-111918928D01*
X36974998Y-111918928D02*
X36832141Y-111918928D01*
X35760713Y-112847500D02*
X35903570Y-112918928D01*
X35903570Y-112918928D02*
X36189285Y-112918928D01*
X36189285Y-112918928D02*
X36332142Y-112847500D01*
X36332142Y-112847500D02*
X36403570Y-112704642D01*
X36403570Y-112704642D02*
X36403570Y-112133214D01*
X36403570Y-112133214D02*
X36332142Y-111990357D01*
X36332142Y-111990357D02*
X36189285Y-111918928D01*
X36189285Y-111918928D02*
X35903570Y-111918928D01*
X35903570Y-111918928D02*
X35760713Y-111990357D01*
X35760713Y-111990357D02*
X35689285Y-112133214D01*
X35689285Y-112133214D02*
X35689285Y-112276071D01*
X35689285Y-112276071D02*
X36403570Y-112418928D01*
X35189285Y-111918928D02*
X34832142Y-112918928D01*
X34832142Y-112918928D02*
X34474999Y-111918928D01*
X31974999Y-112918928D02*
X32832142Y-112918928D01*
X32403571Y-112918928D02*
X32403571Y-111418928D01*
X32403571Y-111418928D02*
X32546428Y-111633214D01*
X32546428Y-111633214D02*
X32689285Y-111776071D01*
X32689285Y-111776071D02*
X32832142Y-111847500D01*
X31332143Y-112776071D02*
X31260714Y-112847500D01*
X31260714Y-112847500D02*
X31332143Y-112918928D01*
X31332143Y-112918928D02*
X31403571Y-112847500D01*
X31403571Y-112847500D02*
X31332143Y-112776071D01*
X31332143Y-112776071D02*
X31332143Y-112918928D01*
X30332142Y-111418928D02*
X30189285Y-111418928D01*
X30189285Y-111418928D02*
X30046428Y-111490357D01*
X30046428Y-111490357D02*
X29975000Y-111561785D01*
X29975000Y-111561785D02*
X29903571Y-111704642D01*
X29903571Y-111704642D02*
X29832142Y-111990357D01*
X29832142Y-111990357D02*
X29832142Y-112347500D01*
X29832142Y-112347500D02*
X29903571Y-112633214D01*
X29903571Y-112633214D02*
X29975000Y-112776071D01*
X29975000Y-112776071D02*
X30046428Y-112847500D01*
X30046428Y-112847500D02*
X30189285Y-112918928D01*
X30189285Y-112918928D02*
X30332142Y-112918928D01*
X30332142Y-112918928D02*
X30475000Y-112847500D01*
X30475000Y-112847500D02*
X30546428Y-112776071D01*
X30546428Y-112776071D02*
X30617857Y-112633214D01*
X30617857Y-112633214D02*
X30689285Y-112347500D01*
X30689285Y-112347500D02*
X30689285Y-111990357D01*
X30689285Y-111990357D02*
X30617857Y-111704642D01*
X30617857Y-111704642D02*
X30546428Y-111561785D01*
X30546428Y-111561785D02*
X30475000Y-111490357D01*
X30475000Y-111490357D02*
X30332142Y-111418928D01*
D11*
%TO.C,MX46*%
X168195762Y-86915698D03*
D12*
X163115762Y-86915698D03*
D11*
X158035762Y-86915698D03*
D13*
X159305762Y-84375698D03*
D14*
X155755762Y-84375698D03*
X169205762Y-81835698D03*
D13*
X165655762Y-81835698D03*
%TD*%
D11*
%TO.C,MX55*%
X151526998Y-105965714D03*
D12*
X146446998Y-105965714D03*
D11*
X141366998Y-105965714D03*
D13*
X142636998Y-103425714D03*
D14*
X139086998Y-103425714D03*
X152536998Y-100885714D03*
D13*
X148986998Y-100885714D03*
%TD*%
D11*
%TO.C,MX47*%
X187245778Y-86915698D03*
D12*
X182165778Y-86915698D03*
D11*
X177085778Y-86915698D03*
D13*
X178355778Y-84375698D03*
D14*
X174805778Y-84375698D03*
X188255778Y-81835698D03*
D13*
X184705778Y-81835698D03*
%TD*%
D15*
%TO.C,J5*%
X270300000Y-58965000D03*
X270300000Y-61505000D03*
X270300000Y-64045000D03*
X270300000Y-66585000D03*
X270300000Y-69125000D03*
X270300000Y-71665000D03*
X270300000Y-74205000D03*
D16*
X270300000Y-76745000D03*
%TD*%
D11*
%TO.C,MX53*%
X41989406Y-105965714D03*
D12*
X36909406Y-105965714D03*
D11*
X31829406Y-105965714D03*
D13*
X33099406Y-103425714D03*
D14*
X29549406Y-103425714D03*
X42999406Y-100885714D03*
D13*
X39449406Y-100885714D03*
%TD*%
D17*
%TO.C,C4*%
X180450000Y-98675000D03*
X182350000Y-98675000D03*
%TD*%
D18*
%TO.C,RSW1*%
X124374896Y-107371786D03*
X124374896Y-105546786D03*
%TD*%
D11*
%TO.C,MX54*%
X63420674Y-105965714D03*
D12*
X58340674Y-105965714D03*
D11*
X53260674Y-105965714D03*
D13*
X54530674Y-103425714D03*
D14*
X50980674Y-103425714D03*
X64430674Y-100885714D03*
D13*
X60880674Y-100885714D03*
%TD*%
D19*
%TO.C,D14*%
X41925000Y-52125000D03*
X41925000Y-48825000D03*
%TD*%
D11*
%TO.C,MX56*%
X242014574Y-105965714D03*
D12*
X236934574Y-105965714D03*
D11*
X231854574Y-105965714D03*
D13*
X233124574Y-103425714D03*
D14*
X229574574Y-103425714D03*
X243024574Y-100885714D03*
D13*
X239474574Y-100885714D03*
%TD*%
D11*
%TO.C,MX42*%
X91995698Y-86915698D03*
D12*
X86915698Y-86915698D03*
D11*
X81835698Y-86915698D03*
D13*
X83105698Y-84375698D03*
D14*
X79555698Y-84375698D03*
X93005698Y-81835698D03*
D13*
X89455698Y-81835698D03*
%TD*%
D19*
%TO.C,D35*%
X199087504Y-71200000D03*
X199087504Y-67900000D03*
%TD*%
D11*
%TO.C,MX57*%
X265827094Y-105965714D03*
D12*
X260747094Y-105965714D03*
D11*
X255667094Y-105965714D03*
D13*
X256937094Y-103425714D03*
D14*
X253387094Y-103425714D03*
X266837094Y-100885714D03*
D13*
X263287094Y-100885714D03*
%TD*%
D20*
%TO.C,R3*%
X170900000Y-92937500D03*
X170900000Y-91112500D03*
%TD*%
D11*
%TO.C,MX41*%
X72945682Y-86915698D03*
D12*
X67865682Y-86915698D03*
D11*
X62785682Y-86915698D03*
D13*
X64055682Y-84375698D03*
D14*
X60505682Y-84375698D03*
X73955682Y-81835698D03*
D13*
X70405682Y-81835698D03*
%TD*%
D11*
%TO.C,MX25*%
X249158330Y-48815666D03*
D12*
X244078330Y-48815666D03*
D11*
X238998330Y-48815666D03*
D13*
X240268330Y-46275666D03*
D14*
X236718330Y-46275666D03*
X250168330Y-43735666D03*
D13*
X246618330Y-43735666D03*
%TD*%
D11*
%TO.C,MX22*%
X192008282Y-48815666D03*
D12*
X186928282Y-48815666D03*
D11*
X181848282Y-48815666D03*
D13*
X183118282Y-46275666D03*
D14*
X179568282Y-46275666D03*
X193018282Y-43735666D03*
D13*
X189468282Y-43735666D03*
%TD*%
D11*
%TO.C,MX49*%
X225345810Y-86915698D03*
D12*
X220265810Y-86915698D03*
D11*
X215185810Y-86915698D03*
D13*
X216455810Y-84375698D03*
D14*
X212905810Y-84375698D03*
X226355810Y-81835698D03*
D13*
X222805810Y-81835698D03*
%TD*%
D19*
%TO.C,D46*%
X155725000Y-90200000D03*
X155725000Y-86900000D03*
%TD*%
%TO.C,D40*%
X49068756Y-90200000D03*
X49068756Y-86900000D03*
%TD*%
D17*
%TO.C,CX1*%
X187100000Y-103200000D03*
X189000000Y-103200000D03*
%TD*%
D12*
%TO.C,S1*%
X96440748Y-97710714D03*
D21*
X96440748Y-112950714D03*
D12*
X196453248Y-97710714D03*
D21*
X196453248Y-112950714D03*
%TD*%
D18*
%TO.C,R2*%
X168210000Y-91112500D03*
X168210000Y-92937500D03*
%TD*%
D22*
%TO.C,C1*%
X162775000Y-101000000D03*
X160875000Y-101000000D03*
%TD*%
D19*
%TO.C,D57*%
X268150000Y-109375000D03*
X268150000Y-106075000D03*
%TD*%
D23*
%TO.C,Y1*%
X184500000Y-103475000D03*
X184500000Y-105675000D03*
X182800000Y-105675000D03*
X182800000Y-103475000D03*
%TD*%
D22*
%TO.C,C2*%
X162775000Y-108950000D03*
X160875000Y-108950000D03*
%TD*%
D11*
%TO.C,MX19*%
X134858234Y-48815666D03*
D12*
X129778234Y-48815666D03*
D11*
X124698234Y-48815666D03*
D13*
X125968234Y-46275666D03*
D14*
X122418234Y-46275666D03*
X135868234Y-43735666D03*
D13*
X132318234Y-43735666D03*
%TD*%
D19*
%TO.C,D29*%
X84787504Y-71200000D03*
X84787504Y-67900000D03*
%TD*%
D11*
%TO.C,MX21*%
X172958266Y-48815666D03*
D12*
X167878266Y-48815666D03*
D11*
X162798266Y-48815666D03*
D13*
X164068266Y-46275666D03*
D14*
X160518266Y-46275666D03*
X173968266Y-43735666D03*
D13*
X170418266Y-43735666D03*
%TD*%
D19*
%TO.C,D24*%
X232425000Y-52125000D03*
X232425000Y-48825000D03*
%TD*%
D11*
%TO.C,MX26*%
X82470690Y-105965714D03*
D12*
X77390690Y-105965714D03*
D11*
X72310690Y-105965714D03*
D13*
X73580690Y-103425714D03*
D14*
X70030690Y-103425714D03*
X83480690Y-100885714D03*
D13*
X79930690Y-100885714D03*
%TD*%
D19*
%TO.C,D31*%
X122887504Y-71200000D03*
X122887504Y-67900000D03*
%TD*%
%TO.C,D45*%
X151462512Y-90200000D03*
X151462512Y-86900000D03*
%TD*%
%TO.C,D16*%
X80025000Y-52125000D03*
X80025000Y-48825000D03*
%TD*%
%TO.C,D41*%
X75262512Y-90200000D03*
X75262512Y-86900000D03*
%TD*%
D11*
%TO.C,MX16*%
X77708186Y-48815666D03*
D12*
X72628186Y-48815666D03*
D11*
X67548186Y-48815666D03*
D13*
X68818186Y-46275666D03*
D14*
X65268186Y-46275666D03*
X78718186Y-43735666D03*
D13*
X75168186Y-43735666D03*
%TD*%
D11*
%TO.C,MX32*%
X139620738Y-67865682D03*
D12*
X134540738Y-67865682D03*
D11*
X129460738Y-67865682D03*
D13*
X130730738Y-65325682D03*
D14*
X127180738Y-65325682D03*
X140630738Y-62785682D03*
D13*
X137080738Y-62785682D03*
%TD*%
D19*
%TO.C,D49*%
X227662512Y-90200000D03*
X227662512Y-86900000D03*
%TD*%
%TO.C,D51*%
X255725016Y-90200000D03*
X255725016Y-86900000D03*
%TD*%
%TO.C,D13*%
X255725000Y-52125000D03*
X255725000Y-48825000D03*
%TD*%
%TO.C,D50*%
X249093764Y-90200000D03*
X249093764Y-86900000D03*
%TD*%
D24*
%TO.C,C5*%
X173675000Y-91030000D03*
X173675000Y-92930000D03*
%TD*%
D11*
%TO.C,MX33*%
X158670754Y-67865682D03*
D12*
X153590754Y-67865682D03*
D11*
X148510754Y-67865682D03*
D13*
X149780754Y-65325682D03*
D14*
X146230754Y-65325682D03*
X159680754Y-62785682D03*
D13*
X156130754Y-62785682D03*
%TD*%
D19*
%TO.C,D37*%
X237187504Y-71200000D03*
X237187504Y-67900000D03*
%TD*%
D17*
%TO.C,C3*%
X177025000Y-112850000D03*
X178925000Y-112850000D03*
%TD*%
D11*
%TO.C,MX37*%
X234870818Y-67865682D03*
D12*
X229790818Y-67865682D03*
D11*
X224710818Y-67865682D03*
D13*
X225980818Y-65325682D03*
D14*
X222430818Y-65325682D03*
X235880818Y-62785682D03*
D13*
X232330818Y-62785682D03*
%TD*%
D19*
%TO.C,D18*%
X118125000Y-52125000D03*
X118125000Y-48825000D03*
%TD*%
%TO.C,D28*%
X65737504Y-71200000D03*
X65737504Y-67900000D03*
%TD*%
D11*
%TO.C,MX34*%
X177720770Y-67865682D03*
D12*
X172640770Y-67865682D03*
D11*
X167560770Y-67865682D03*
D13*
X168830770Y-65325682D03*
D14*
X165280770Y-65325682D03*
X178730770Y-62785682D03*
D13*
X175180770Y-62785682D03*
%TD*%
D11*
%TO.C,MX28*%
X63420674Y-67865682D03*
D12*
X58340674Y-67865682D03*
D11*
X53260674Y-67865682D03*
D13*
X54530674Y-65325682D03*
D14*
X50980674Y-65325682D03*
X64430674Y-62785682D03*
D13*
X60880674Y-62785682D03*
%TD*%
D19*
%TO.C,D32*%
X141937504Y-71200000D03*
X141937504Y-67900000D03*
%TD*%
D11*
%TO.C,MX45*%
X149145746Y-86915698D03*
D12*
X144065746Y-86915698D03*
D11*
X138985746Y-86915698D03*
D13*
X140255746Y-84375698D03*
D14*
X136705746Y-84375698D03*
X150155746Y-81835698D03*
D13*
X146605746Y-81835698D03*
%TD*%
D19*
%TO.C,D27*%
X44306252Y-71200000D03*
X44306252Y-67900000D03*
%TD*%
D11*
%TO.C,MX29*%
X82470690Y-67865682D03*
D12*
X77390690Y-67865682D03*
D11*
X72310690Y-67865682D03*
D13*
X73580690Y-65325682D03*
D14*
X70030690Y-65325682D03*
X83480690Y-62785682D03*
D13*
X79930690Y-62785682D03*
%TD*%
D19*
%TO.C,D48*%
X208612512Y-90200000D03*
X208612512Y-86900000D03*
%TD*%
%TO.C,D34*%
X180037504Y-71200000D03*
X180037504Y-67900000D03*
%TD*%
D11*
%TO.C,MX18*%
X115808218Y-48815666D03*
D12*
X110728218Y-48815666D03*
D11*
X105648218Y-48815666D03*
D13*
X106918218Y-46275666D03*
D14*
X103368218Y-46275666D03*
X116818218Y-43735666D03*
D13*
X113268218Y-43735666D03*
%TD*%
D19*
%TO.C,D20*%
X156225000Y-52125000D03*
X156225000Y-48825000D03*
%TD*%
D25*
%TO.C,J3*%
X66425000Y-60235499D03*
X67425000Y-60235499D03*
X68425000Y-60235499D03*
X69425000Y-60235499D03*
D26*
X65125000Y-56360499D03*
X70725000Y-56360499D03*
%TD*%
D11*
%TO.C,MX24*%
X230108314Y-48815666D03*
D12*
X225028314Y-48815666D03*
D11*
X219948314Y-48815666D03*
D13*
X221218314Y-46275666D03*
D14*
X217668314Y-46275666D03*
X231118314Y-43735666D03*
D13*
X227568314Y-43735666D03*
%TD*%
D19*
%TO.C,D19*%
X137175000Y-52125000D03*
X137175000Y-48825000D03*
%TD*%
D11*
%TO.C,MX43*%
X111045714Y-86915698D03*
D12*
X105965714Y-86915698D03*
D11*
X100885714Y-86915698D03*
D13*
X102155714Y-84375698D03*
D14*
X98605714Y-84375698D03*
X112055714Y-81835698D03*
D13*
X108505714Y-81835698D03*
%TD*%
D11*
%TO.C,MX13*%
X268208346Y-48815666D03*
D12*
X263128346Y-48815666D03*
D11*
X258048346Y-48815666D03*
D13*
X259318346Y-46275666D03*
D14*
X255768346Y-46275666D03*
X269218346Y-43735666D03*
D13*
X265668346Y-43735666D03*
%TD*%
D11*
%TO.C,MX36*%
X215820802Y-67865682D03*
D12*
X210740802Y-67865682D03*
D11*
X205660802Y-67865682D03*
D13*
X206930802Y-65325682D03*
D14*
X203380802Y-65325682D03*
X216830802Y-62785682D03*
D13*
X213280802Y-62785682D03*
%TD*%
D27*
%TO.C,R1*%
X164987500Y-112850000D03*
X166812500Y-112850000D03*
%TD*%
D19*
%TO.C,D26*%
X84800000Y-109347500D03*
X84800000Y-106047500D03*
%TD*%
%TO.C,D56*%
X244301268Y-109392500D03*
X244301268Y-106092500D03*
%TD*%
D11*
%TO.C,MX30*%
X101520706Y-67865682D03*
D12*
X96440706Y-67865682D03*
D11*
X91360706Y-67865682D03*
D13*
X92630706Y-65325682D03*
D14*
X89080706Y-65325682D03*
X102530706Y-62785682D03*
D13*
X98980706Y-62785682D03*
%TD*%
D11*
%TO.C,MX39*%
X220583306Y-105965714D03*
D12*
X215503306Y-105965714D03*
D11*
X210423306Y-105965714D03*
D13*
X211693306Y-103425714D03*
D14*
X208143306Y-103425714D03*
X221593306Y-100885714D03*
D13*
X218043306Y-100885714D03*
%TD*%
D19*
%TO.C,D30*%
X103837504Y-71200000D03*
X103837504Y-67900000D03*
%TD*%
D17*
%TO.C,CX2*%
X187100000Y-105900000D03*
X189000000Y-105900000D03*
%TD*%
D11*
%TO.C,MX35*%
X196770786Y-67865682D03*
D12*
X191690786Y-67865682D03*
D11*
X186610786Y-67865682D03*
D13*
X187880786Y-65325682D03*
D14*
X184330786Y-65325682D03*
X197780786Y-62785682D03*
D13*
X194230786Y-62785682D03*
%TD*%
D11*
%TO.C,MX15*%
X58658170Y-48815666D03*
D12*
X53578170Y-48815666D03*
D11*
X48498170Y-48815666D03*
D13*
X49768170Y-46275666D03*
D14*
X46218170Y-46275666D03*
X59668170Y-43735666D03*
D13*
X56118170Y-43735666D03*
%TD*%
D11*
%TO.C,MX48*%
X206295794Y-86915698D03*
D12*
X201215794Y-86915698D03*
D11*
X196135794Y-86915698D03*
D13*
X197405794Y-84375698D03*
D14*
X193855794Y-84375698D03*
X207305794Y-81835698D03*
D13*
X203755794Y-81835698D03*
%TD*%
D19*
%TO.C,D33*%
X160987504Y-71200000D03*
X160987504Y-67900000D03*
%TD*%
D11*
%TO.C,MX31*%
X120570722Y-67865682D03*
D12*
X115490722Y-67865682D03*
D11*
X110410722Y-67865682D03*
D13*
X111680722Y-65325682D03*
D14*
X108130722Y-65325682D03*
X121580722Y-62785682D03*
D13*
X118030722Y-62785682D03*
%TD*%
D19*
%TO.C,D22*%
X194325000Y-52125000D03*
X194325000Y-48825000D03*
%TD*%
D11*
%TO.C,MX17*%
X96758202Y-48815666D03*
D12*
X91678202Y-48815666D03*
D11*
X86598202Y-48815666D03*
D13*
X87868202Y-46275666D03*
D14*
X84318202Y-46275666D03*
X97768202Y-43735666D03*
D13*
X94218202Y-43735666D03*
%TD*%
D19*
%TO.C,D36*%
X218137504Y-71200000D03*
X218137504Y-67900000D03*
%TD*%
D11*
%TO.C,MX51*%
X268208346Y-86915698D03*
D12*
X263128346Y-86915698D03*
D11*
X258048346Y-86915698D03*
D13*
X259318346Y-84375698D03*
D14*
X255768346Y-84375698D03*
X269218346Y-81835698D03*
D13*
X265668346Y-81835698D03*
%TD*%
D28*
%TO.C,U1*%
X167550000Y-99275000D03*
X168350000Y-99275000D03*
X169150000Y-99275000D03*
X169950000Y-99275000D03*
X170750000Y-99275000D03*
X171550000Y-99275000D03*
X172350000Y-99275000D03*
X173150000Y-99275000D03*
X173950000Y-99275000D03*
X174750000Y-99275000D03*
X175550000Y-99275000D03*
D29*
X177250000Y-100975000D03*
X177250000Y-101775000D03*
X177250000Y-102575000D03*
X177250000Y-103375000D03*
X177250000Y-104175000D03*
X177250000Y-104975000D03*
X177250000Y-105775000D03*
X177250000Y-106575000D03*
X177250000Y-107375000D03*
X177250000Y-108175000D03*
X177250000Y-108975000D03*
D28*
X175550000Y-110675000D03*
X174750000Y-110675000D03*
X173950000Y-110675000D03*
X173150000Y-110675000D03*
X172350000Y-110675000D03*
X171550000Y-110675000D03*
X170750000Y-110675000D03*
X169950000Y-110675000D03*
X169150000Y-110675000D03*
X168350000Y-110675000D03*
X167550000Y-110675000D03*
D29*
X165850000Y-108975000D03*
X165850000Y-108175000D03*
X165850000Y-107375000D03*
X165850000Y-106575000D03*
X165850000Y-105775000D03*
X165850000Y-104975000D03*
X165850000Y-104175000D03*
X165850000Y-103375000D03*
X165850000Y-102575000D03*
X165850000Y-101775000D03*
X165850000Y-100975000D03*
%TD*%
D11*
%TO.C,MX44*%
X130095730Y-86915698D03*
D12*
X125015730Y-86915698D03*
D11*
X119935730Y-86915698D03*
D13*
X121205730Y-84375698D03*
D14*
X117655730Y-84375698D03*
X131105730Y-81835698D03*
D13*
X127555730Y-81835698D03*
%TD*%
D11*
%TO.C,MX27*%
X41989406Y-67865682D03*
D12*
X36909406Y-67865682D03*
D11*
X31829406Y-67865682D03*
D13*
X33099406Y-65325682D03*
D14*
X29549406Y-65325682D03*
X42999406Y-62785682D03*
D13*
X39449406Y-62785682D03*
%TD*%
D11*
%TO.C,MX40*%
X46751910Y-86915698D03*
D12*
X41671910Y-86915698D03*
D11*
X36591910Y-86915698D03*
D13*
X37861910Y-84375698D03*
D14*
X34311910Y-84375698D03*
X47761910Y-81835698D03*
D13*
X44211910Y-81835698D03*
%TD*%
D19*
%TO.C,D39*%
X222890626Y-109392500D03*
X222890626Y-106092500D03*
%TD*%
%TO.C,D55*%
X153823756Y-109370000D03*
X153823756Y-106070000D03*
%TD*%
%TO.C,D43*%
X113362512Y-90200000D03*
X113362512Y-86900000D03*
%TD*%
%TO.C,D47*%
X189575000Y-86900000D03*
X189575000Y-90200000D03*
%TD*%
D11*
%TO.C,MX23*%
X211058298Y-48815666D03*
D12*
X205978298Y-48815666D03*
D11*
X200898298Y-48815666D03*
D13*
X202168298Y-46275666D03*
D14*
X198618298Y-46275666D03*
X212068298Y-43735666D03*
D13*
X208518298Y-43735666D03*
%TD*%
D19*
%TO.C,D21*%
X175275000Y-52125000D03*
X175275000Y-48825000D03*
%TD*%
D11*
%TO.C,MX50*%
X246777078Y-86915698D03*
D12*
X241697078Y-86915698D03*
D11*
X236617078Y-86915698D03*
D13*
X237887078Y-84375698D03*
D14*
X234337078Y-84375698D03*
X247787078Y-81835698D03*
D13*
X244237078Y-81835698D03*
%TD*%
D19*
%TO.C,D38*%
X263375000Y-71200000D03*
X263375000Y-67900000D03*
%TD*%
D11*
%TO.C,MX20*%
X153908250Y-48815666D03*
D12*
X148828250Y-48815666D03*
D11*
X143748250Y-48815666D03*
D13*
X145018250Y-46275666D03*
D14*
X141468250Y-46275666D03*
X154918250Y-43735666D03*
D13*
X151368250Y-43735666D03*
%TD*%
D19*
%TO.C,D15*%
X46175000Y-52125000D03*
X46175000Y-48825000D03*
%TD*%
%TO.C,D53*%
X44325000Y-109347500D03*
X44325000Y-106047500D03*
%TD*%
D30*
%TO.C,J2*%
X105474984Y-106550000D03*
X115634984Y-106550000D03*
X110554984Y-106550000D03*
X108014984Y-106550000D03*
X113094984Y-106550000D03*
D31*
X118174984Y-106550000D03*
%TD*%
D32*
%TO.C,SW1*%
X133975000Y-104700000D03*
X127775000Y-108400000D03*
X133975000Y-108400000D03*
X127775000Y-104700000D03*
%TD*%
D19*
%TO.C,D23*%
X213375000Y-52125000D03*
X213375000Y-48825000D03*
%TD*%
%TO.C,D25*%
X251475000Y-52125000D03*
X251475000Y-48825000D03*
%TD*%
%TO.C,D42*%
X94312512Y-90200000D03*
X94312512Y-86900000D03*
%TD*%
D11*
%TO.C,MX38*%
X261064590Y-67865682D03*
D12*
X255984590Y-67865682D03*
D11*
X250904590Y-67865682D03*
D13*
X252174590Y-65325682D03*
D14*
X248624590Y-65325682D03*
X262074590Y-62785682D03*
D13*
X258524590Y-62785682D03*
%TD*%
D19*
%TO.C,D54*%
X65727496Y-109347500D03*
X65727496Y-106047500D03*
%TD*%
%TO.C,D44*%
X132412512Y-90200000D03*
X132412512Y-86900000D03*
%TD*%
%TO.C,D17*%
X99075000Y-52125000D03*
X99075000Y-48825000D03*
%TD*%
D11*
%TO.C,MX14*%
X39608154Y-48815666D03*
D12*
X34528154Y-48815666D03*
D11*
X29448154Y-48815666D03*
D13*
X30718154Y-46275666D03*
D14*
X27168154Y-46275666D03*
X40618154Y-43735666D03*
D13*
X37068154Y-43735666D03*
%TD*%
M02*
