%TF.GenerationSoftware,KiCad,Pcbnew,7.0.1-0*%
%TF.CreationDate,2023-05-30T10:47:41-05:00*%
%TF.ProjectId,pcb,7063622e-6b69-4636-9164-5f7063625858,rev?*%
%TF.SameCoordinates,Original*%
%TF.FileFunction,Paste,Bot*%
%TF.FilePolarity,Positive*%
%FSLAX46Y46*%
G04 Gerber Fmt 4.6, Leading zero omitted, Abs format (unit mm)*
G04 Created by KiCad (PCBNEW 7.0.1-0) date 2023-05-30 10:47:41*
%MOMM*%
%LPD*%
G01*
G04 APERTURE LIST*
G04 Aperture macros list*
%AMRoundRect*
0 Rectangle with rounded corners*
0 $1 Rounding radius*
0 $2 $3 $4 $5 $6 $7 $8 $9 X,Y pos of 4 corners*
0 Add a 4 corners polygon primitive as box body*
4,1,4,$2,$3,$4,$5,$6,$7,$8,$9,$2,$3,0*
0 Add four circle primitives for the rounded corners*
1,1,$1+$1,$2,$3*
1,1,$1+$1,$4,$5*
1,1,$1+$1,$6,$7*
1,1,$1+$1,$8,$9*
0 Add four rect primitives between the rounded corners*
20,1,$1+$1,$2,$3,$4,$5,0*
20,1,$1+$1,$4,$5,$6,$7,0*
20,1,$1+$1,$6,$7,$8,$9,0*
20,1,$1+$1,$8,$9,$2,$3,0*%
G04 Aperture macros list end*
%ADD10RoundRect,0.250000X1.025000X1.000000X-1.025000X1.000000X-1.025000X-1.000000X1.025000X-1.000000X0*%
%ADD11RoundRect,0.250000X-0.250000X-0.475000X0.250000X-0.475000X0.250000X0.475000X-0.250000X0.475000X0*%
%ADD12RoundRect,0.250000X0.450000X-0.262500X0.450000X0.262500X-0.450000X0.262500X-0.450000X-0.262500X0*%
%ADD13RoundRect,0.225000X0.375000X-0.225000X0.375000X0.225000X-0.375000X0.225000X-0.375000X-0.225000X0*%
%ADD14RoundRect,0.250000X-0.450000X0.262500X-0.450000X-0.262500X0.450000X-0.262500X0.450000X0.262500X0*%
%ADD15RoundRect,0.250000X0.250000X0.475000X-0.250000X0.475000X-0.250000X-0.475000X0.250000X-0.475000X0*%
%ADD16R,1.200000X1.400000*%
%ADD17RoundRect,0.250000X0.475000X-0.250000X0.475000X0.250000X-0.475000X0.250000X-0.475000X-0.250000X0*%
%ADD18RoundRect,0.150000X-0.150000X-0.625000X0.150000X-0.625000X0.150000X0.625000X-0.150000X0.625000X0*%
%ADD19RoundRect,0.250000X-0.350000X-0.650000X0.350000X-0.650000X0.350000X0.650000X-0.350000X0.650000X0*%
%ADD20RoundRect,0.250000X-0.262500X-0.450000X0.262500X-0.450000X0.262500X0.450000X-0.262500X0.450000X0*%
%ADD21R,0.550000X1.500000*%
%ADD22R,1.500000X0.550000*%
%ADD23R,1.800000X1.100000*%
G04 APERTURE END LIST*
D10*
%TO.C,MX46*%
X155755762Y-84375698D03*
X169205762Y-81835698D03*
%TD*%
%TO.C,MX55*%
X139086998Y-103425714D03*
X152536998Y-100885714D03*
%TD*%
%TO.C,MX47*%
X174805778Y-84375698D03*
X188255778Y-81835698D03*
%TD*%
%TO.C,MX53*%
X29549406Y-103425714D03*
X42999406Y-100885714D03*
%TD*%
D11*
%TO.C,C4*%
X180450000Y-98675000D03*
X182350000Y-98675000D03*
%TD*%
D12*
%TO.C,RSW1*%
X124374896Y-107371786D03*
X124374896Y-105546786D03*
%TD*%
D10*
%TO.C,MX54*%
X50980674Y-103425714D03*
X64430674Y-100885714D03*
%TD*%
D13*
%TO.C,D14*%
X41925000Y-52125000D03*
X41925000Y-48825000D03*
%TD*%
D10*
%TO.C,MX56*%
X229574574Y-103425714D03*
X243024574Y-100885714D03*
%TD*%
%TO.C,MX42*%
X79555698Y-84375698D03*
X93005698Y-81835698D03*
%TD*%
D13*
%TO.C,D35*%
X199087504Y-71200000D03*
X199087504Y-67900000D03*
%TD*%
D10*
%TO.C,MX57*%
X253387094Y-103425714D03*
X266837094Y-100885714D03*
%TD*%
D14*
%TO.C,R3*%
X170900000Y-92937500D03*
X170900000Y-91112500D03*
%TD*%
D10*
%TO.C,MX41*%
X60505682Y-84375698D03*
X73955682Y-81835698D03*
%TD*%
%TO.C,MX25*%
X236718330Y-46275666D03*
X250168330Y-43735666D03*
%TD*%
%TO.C,MX22*%
X179568282Y-46275666D03*
X193018282Y-43735666D03*
%TD*%
%TO.C,MX49*%
X212905810Y-84375698D03*
X226355810Y-81835698D03*
%TD*%
D13*
%TO.C,D46*%
X155725000Y-90200000D03*
X155725000Y-86900000D03*
%TD*%
%TO.C,D40*%
X49068756Y-90200000D03*
X49068756Y-86900000D03*
%TD*%
D11*
%TO.C,CX1*%
X187100000Y-103200000D03*
X189000000Y-103200000D03*
%TD*%
D12*
%TO.C,R2*%
X168210000Y-91112500D03*
X168210000Y-92937500D03*
%TD*%
D15*
%TO.C,C1*%
X162775000Y-101000000D03*
X160875000Y-101000000D03*
%TD*%
D13*
%TO.C,D57*%
X268150000Y-109375000D03*
X268150000Y-106075000D03*
%TD*%
D16*
%TO.C,Y1*%
X184500000Y-103475000D03*
X184500000Y-105675000D03*
X182800000Y-105675000D03*
X182800000Y-103475000D03*
%TD*%
D15*
%TO.C,C2*%
X162775000Y-108950000D03*
X160875000Y-108950000D03*
%TD*%
D10*
%TO.C,MX19*%
X122418234Y-46275666D03*
X135868234Y-43735666D03*
%TD*%
D13*
%TO.C,D29*%
X84787504Y-71200000D03*
X84787504Y-67900000D03*
%TD*%
D10*
%TO.C,MX21*%
X160518266Y-46275666D03*
X173968266Y-43735666D03*
%TD*%
D13*
%TO.C,D24*%
X232425000Y-52125000D03*
X232425000Y-48825000D03*
%TD*%
D10*
%TO.C,MX26*%
X70030690Y-103425714D03*
X83480690Y-100885714D03*
%TD*%
D13*
%TO.C,D31*%
X122887504Y-71200000D03*
X122887504Y-67900000D03*
%TD*%
%TO.C,D45*%
X151462512Y-90200000D03*
X151462512Y-86900000D03*
%TD*%
%TO.C,D16*%
X80025000Y-52125000D03*
X80025000Y-48825000D03*
%TD*%
%TO.C,D41*%
X75262512Y-90200000D03*
X75262512Y-86900000D03*
%TD*%
D10*
%TO.C,MX16*%
X65268186Y-46275666D03*
X78718186Y-43735666D03*
%TD*%
%TO.C,MX32*%
X127180738Y-65325682D03*
X140630738Y-62785682D03*
%TD*%
D13*
%TO.C,D49*%
X227662512Y-90200000D03*
X227662512Y-86900000D03*
%TD*%
%TO.C,D51*%
X255725016Y-90200000D03*
X255725016Y-86900000D03*
%TD*%
%TO.C,D13*%
X255725000Y-52125000D03*
X255725000Y-48825000D03*
%TD*%
%TO.C,D50*%
X249093764Y-90200000D03*
X249093764Y-86900000D03*
%TD*%
D17*
%TO.C,C5*%
X173675000Y-91030000D03*
X173675000Y-92930000D03*
%TD*%
D10*
%TO.C,MX33*%
X146230754Y-65325682D03*
X159680754Y-62785682D03*
%TD*%
D13*
%TO.C,D37*%
X237187504Y-71200000D03*
X237187504Y-67900000D03*
%TD*%
D11*
%TO.C,C3*%
X177025000Y-112850000D03*
X178925000Y-112850000D03*
%TD*%
D10*
%TO.C,MX37*%
X222430818Y-65325682D03*
X235880818Y-62785682D03*
%TD*%
D13*
%TO.C,D18*%
X118125000Y-52125000D03*
X118125000Y-48825000D03*
%TD*%
%TO.C,D28*%
X65737504Y-71200000D03*
X65737504Y-67900000D03*
%TD*%
D10*
%TO.C,MX34*%
X165280770Y-65325682D03*
X178730770Y-62785682D03*
%TD*%
%TO.C,MX28*%
X50980674Y-65325682D03*
X64430674Y-62785682D03*
%TD*%
D13*
%TO.C,D32*%
X141937504Y-71200000D03*
X141937504Y-67900000D03*
%TD*%
D10*
%TO.C,MX45*%
X136705746Y-84375698D03*
X150155746Y-81835698D03*
%TD*%
D13*
%TO.C,D27*%
X44306252Y-71200000D03*
X44306252Y-67900000D03*
%TD*%
D10*
%TO.C,MX29*%
X70030690Y-65325682D03*
X83480690Y-62785682D03*
%TD*%
D13*
%TO.C,D48*%
X208612512Y-90200000D03*
X208612512Y-86900000D03*
%TD*%
%TO.C,D34*%
X180037504Y-71200000D03*
X180037504Y-67900000D03*
%TD*%
D10*
%TO.C,MX18*%
X103368218Y-46275666D03*
X116818218Y-43735666D03*
%TD*%
D13*
%TO.C,D20*%
X156225000Y-52125000D03*
X156225000Y-48825000D03*
%TD*%
D18*
%TO.C,J3*%
X66425000Y-60235499D03*
X67425000Y-60235499D03*
X68425000Y-60235499D03*
X69425000Y-60235499D03*
D19*
X65125000Y-56360499D03*
X70725000Y-56360499D03*
%TD*%
D10*
%TO.C,MX24*%
X217668314Y-46275666D03*
X231118314Y-43735666D03*
%TD*%
D13*
%TO.C,D19*%
X137175000Y-52125000D03*
X137175000Y-48825000D03*
%TD*%
D10*
%TO.C,MX43*%
X98605714Y-84375698D03*
X112055714Y-81835698D03*
%TD*%
%TO.C,MX13*%
X255768346Y-46275666D03*
X269218346Y-43735666D03*
%TD*%
%TO.C,MX36*%
X203380802Y-65325682D03*
X216830802Y-62785682D03*
%TD*%
D20*
%TO.C,R1*%
X164987500Y-112850000D03*
X166812500Y-112850000D03*
%TD*%
D13*
%TO.C,D26*%
X84800000Y-109347500D03*
X84800000Y-106047500D03*
%TD*%
%TO.C,D56*%
X244301268Y-109392500D03*
X244301268Y-106092500D03*
%TD*%
D10*
%TO.C,MX30*%
X89080706Y-65325682D03*
X102530706Y-62785682D03*
%TD*%
%TO.C,MX39*%
X208143306Y-103425714D03*
X221593306Y-100885714D03*
%TD*%
D13*
%TO.C,D30*%
X103837504Y-71200000D03*
X103837504Y-67900000D03*
%TD*%
D11*
%TO.C,CX2*%
X187100000Y-105900000D03*
X189000000Y-105900000D03*
%TD*%
D10*
%TO.C,MX35*%
X184330786Y-65325682D03*
X197780786Y-62785682D03*
%TD*%
%TO.C,MX15*%
X46218170Y-46275666D03*
X59668170Y-43735666D03*
%TD*%
%TO.C,MX48*%
X193855794Y-84375698D03*
X207305794Y-81835698D03*
%TD*%
D13*
%TO.C,D33*%
X160987504Y-71200000D03*
X160987504Y-67900000D03*
%TD*%
D10*
%TO.C,MX31*%
X108130722Y-65325682D03*
X121580722Y-62785682D03*
%TD*%
D13*
%TO.C,D22*%
X194325000Y-52125000D03*
X194325000Y-48825000D03*
%TD*%
D10*
%TO.C,MX17*%
X84318202Y-46275666D03*
X97768202Y-43735666D03*
%TD*%
D13*
%TO.C,D36*%
X218137504Y-71200000D03*
X218137504Y-67900000D03*
%TD*%
D10*
%TO.C,MX51*%
X255768346Y-84375698D03*
X269218346Y-81835698D03*
%TD*%
D21*
%TO.C,U1*%
X167550000Y-99275000D03*
X168350000Y-99275000D03*
X169150000Y-99275000D03*
X169950000Y-99275000D03*
X170750000Y-99275000D03*
X171550000Y-99275000D03*
X172350000Y-99275000D03*
X173150000Y-99275000D03*
X173950000Y-99275000D03*
X174750000Y-99275000D03*
X175550000Y-99275000D03*
D22*
X177250000Y-100975000D03*
X177250000Y-101775000D03*
X177250000Y-102575000D03*
X177250000Y-103375000D03*
X177250000Y-104175000D03*
X177250000Y-104975000D03*
X177250000Y-105775000D03*
X177250000Y-106575000D03*
X177250000Y-107375000D03*
X177250000Y-108175000D03*
X177250000Y-108975000D03*
D21*
X175550000Y-110675000D03*
X174750000Y-110675000D03*
X173950000Y-110675000D03*
X173150000Y-110675000D03*
X172350000Y-110675000D03*
X171550000Y-110675000D03*
X170750000Y-110675000D03*
X169950000Y-110675000D03*
X169150000Y-110675000D03*
X168350000Y-110675000D03*
X167550000Y-110675000D03*
D22*
X165850000Y-108975000D03*
X165850000Y-108175000D03*
X165850000Y-107375000D03*
X165850000Y-106575000D03*
X165850000Y-105775000D03*
X165850000Y-104975000D03*
X165850000Y-104175000D03*
X165850000Y-103375000D03*
X165850000Y-102575000D03*
X165850000Y-101775000D03*
X165850000Y-100975000D03*
%TD*%
D10*
%TO.C,MX44*%
X117655730Y-84375698D03*
X131105730Y-81835698D03*
%TD*%
%TO.C,MX27*%
X29549406Y-65325682D03*
X42999406Y-62785682D03*
%TD*%
%TO.C,MX40*%
X34311910Y-84375698D03*
X47761910Y-81835698D03*
%TD*%
D13*
%TO.C,D39*%
X222890626Y-109392500D03*
X222890626Y-106092500D03*
%TD*%
%TO.C,D55*%
X153823756Y-109370000D03*
X153823756Y-106070000D03*
%TD*%
%TO.C,D43*%
X113362512Y-90200000D03*
X113362512Y-86900000D03*
%TD*%
%TO.C,D47*%
X189575000Y-86900000D03*
X189575000Y-90200000D03*
%TD*%
D10*
%TO.C,MX23*%
X198618298Y-46275666D03*
X212068298Y-43735666D03*
%TD*%
D13*
%TO.C,D21*%
X175275000Y-52125000D03*
X175275000Y-48825000D03*
%TD*%
D10*
%TO.C,MX50*%
X234337078Y-84375698D03*
X247787078Y-81835698D03*
%TD*%
D13*
%TO.C,D38*%
X263375000Y-71200000D03*
X263375000Y-67900000D03*
%TD*%
D10*
%TO.C,MX20*%
X141468250Y-46275666D03*
X154918250Y-43735666D03*
%TD*%
D13*
%TO.C,D15*%
X46175000Y-52125000D03*
X46175000Y-48825000D03*
%TD*%
%TO.C,D53*%
X44325000Y-109347500D03*
X44325000Y-106047500D03*
%TD*%
D23*
%TO.C,SW1*%
X133975000Y-104700000D03*
X127775000Y-108400000D03*
X133975000Y-108400000D03*
X127775000Y-104700000D03*
%TD*%
D13*
%TO.C,D23*%
X213375000Y-52125000D03*
X213375000Y-48825000D03*
%TD*%
%TO.C,D25*%
X251475000Y-52125000D03*
X251475000Y-48825000D03*
%TD*%
%TO.C,D42*%
X94312512Y-90200000D03*
X94312512Y-86900000D03*
%TD*%
D10*
%TO.C,MX38*%
X248624590Y-65325682D03*
X262074590Y-62785682D03*
%TD*%
D13*
%TO.C,D54*%
X65727496Y-109347500D03*
X65727496Y-106047500D03*
%TD*%
%TO.C,D44*%
X132412512Y-90200000D03*
X132412512Y-86900000D03*
%TD*%
%TO.C,D17*%
X99075000Y-52125000D03*
X99075000Y-48825000D03*
%TD*%
D10*
%TO.C,MX14*%
X27168154Y-46275666D03*
X40618154Y-43735666D03*
%TD*%
M02*
