%TF.GenerationSoftware,KiCad,Pcbnew,7.0.1-0*%
%TF.CreationDate,2023-05-30T10:47:41-05:00*%
%TF.ProjectId,pcb,7063622e-6b69-4636-9164-5f7063625858,rev?*%
%TF.SameCoordinates,Original*%
%TF.FileFunction,Legend,Bot*%
%TF.FilePolarity,Positive*%
%FSLAX46Y46*%
G04 Gerber Fmt 4.6, Leading zero omitted, Abs format (unit mm)*
G04 Created by KiCad (PCBNEW 7.0.1-0) date 2023-05-30 10:47:41*
%MOMM*%
%LPD*%
G01*
G04 APERTURE LIST*
%ADD10C,0.150000*%
%ADD11C,0.120000*%
%ADD12C,0.100000*%
G04 APERTURE END LIST*
D10*
X269290244Y-113412619D02*
X269290244Y-112888809D01*
X269290244Y-112888809D02*
X269337863Y-112793571D01*
X269337863Y-112793571D02*
X269433101Y-112745952D01*
X269433101Y-112745952D02*
X269623577Y-112745952D01*
X269623577Y-112745952D02*
X269718815Y-112793571D01*
X269290244Y-113365000D02*
X269385482Y-113412619D01*
X269385482Y-113412619D02*
X269623577Y-113412619D01*
X269623577Y-113412619D02*
X269718815Y-113365000D01*
X269718815Y-113365000D02*
X269766434Y-113269761D01*
X269766434Y-113269761D02*
X269766434Y-113174523D01*
X269766434Y-113174523D02*
X269718815Y-113079285D01*
X269718815Y-113079285D02*
X269623577Y-113031666D01*
X269623577Y-113031666D02*
X269385482Y-113031666D01*
X269385482Y-113031666D02*
X269290244Y-112984047D01*
X268814053Y-112745952D02*
X268814053Y-113412619D01*
X268814053Y-112841190D02*
X268766434Y-112793571D01*
X268766434Y-112793571D02*
X268671196Y-112745952D01*
X268671196Y-112745952D02*
X268528339Y-112745952D01*
X268528339Y-112745952D02*
X268433101Y-112793571D01*
X268433101Y-112793571D02*
X268385482Y-112888809D01*
X268385482Y-112888809D02*
X268385482Y-113412619D01*
X268004529Y-112745952D02*
X267766434Y-113412619D01*
X267528339Y-112745952D02*
X267766434Y-113412619D01*
X267766434Y-113412619D02*
X267861672Y-113650714D01*
X267861672Y-113650714D02*
X267909291Y-113698333D01*
X267909291Y-113698333D02*
X268004529Y-113745952D01*
X267290243Y-112745952D02*
X266909291Y-112745952D01*
X267147386Y-112412619D02*
X267147386Y-113269761D01*
X267147386Y-113269761D02*
X267099767Y-113365000D01*
X267099767Y-113365000D02*
X267004529Y-113412619D01*
X267004529Y-113412619D02*
X266909291Y-113412619D01*
X266575957Y-113412619D02*
X266575957Y-112412619D01*
X266147386Y-113412619D02*
X266147386Y-112888809D01*
X266147386Y-112888809D02*
X266195005Y-112793571D01*
X266195005Y-112793571D02*
X266290243Y-112745952D01*
X266290243Y-112745952D02*
X266433100Y-112745952D01*
X266433100Y-112745952D02*
X266528338Y-112793571D01*
X266528338Y-112793571D02*
X266575957Y-112841190D01*
X265671195Y-113412619D02*
X265671195Y-112745952D01*
X265671195Y-112412619D02*
X265718814Y-112460238D01*
X265718814Y-112460238D02*
X265671195Y-112507857D01*
X265671195Y-112507857D02*
X265623576Y-112460238D01*
X265623576Y-112460238D02*
X265671195Y-112412619D01*
X265671195Y-112412619D02*
X265671195Y-112507857D01*
X265195005Y-112745952D02*
X265195005Y-113412619D01*
X265195005Y-112841190D02*
X265147386Y-112793571D01*
X265147386Y-112793571D02*
X265052148Y-112745952D01*
X265052148Y-112745952D02*
X264909291Y-112745952D01*
X264909291Y-112745952D02*
X264814053Y-112793571D01*
X264814053Y-112793571D02*
X264766434Y-112888809D01*
X264766434Y-112888809D02*
X264766434Y-113412619D01*
X263861672Y-112745952D02*
X263861672Y-113555476D01*
X263861672Y-113555476D02*
X263909291Y-113650714D01*
X263909291Y-113650714D02*
X263956910Y-113698333D01*
X263956910Y-113698333D02*
X264052148Y-113745952D01*
X264052148Y-113745952D02*
X264195005Y-113745952D01*
X264195005Y-113745952D02*
X264290243Y-113698333D01*
X263861672Y-113365000D02*
X263956910Y-113412619D01*
X263956910Y-113412619D02*
X264147386Y-113412619D01*
X264147386Y-113412619D02*
X264242624Y-113365000D01*
X264242624Y-113365000D02*
X264290243Y-113317380D01*
X264290243Y-113317380D02*
X264337862Y-113222142D01*
X264337862Y-113222142D02*
X264337862Y-112936428D01*
X264337862Y-112936428D02*
X264290243Y-112841190D01*
X264290243Y-112841190D02*
X264242624Y-112793571D01*
X264242624Y-112793571D02*
X264147386Y-112745952D01*
X264147386Y-112745952D02*
X263956910Y-112745952D01*
X263956910Y-112745952D02*
X263861672Y-112793571D01*
X262623576Y-113412619D02*
X262623576Y-112745952D01*
X262623576Y-112412619D02*
X262671195Y-112460238D01*
X262671195Y-112460238D02*
X262623576Y-112507857D01*
X262623576Y-112507857D02*
X262575957Y-112460238D01*
X262575957Y-112460238D02*
X262623576Y-112412619D01*
X262623576Y-112412619D02*
X262623576Y-112507857D01*
X262195005Y-113365000D02*
X262099767Y-113412619D01*
X262099767Y-113412619D02*
X261909291Y-113412619D01*
X261909291Y-113412619D02*
X261814053Y-113365000D01*
X261814053Y-113365000D02*
X261766434Y-113269761D01*
X261766434Y-113269761D02*
X261766434Y-113222142D01*
X261766434Y-113222142D02*
X261814053Y-113126904D01*
X261814053Y-113126904D02*
X261909291Y-113079285D01*
X261909291Y-113079285D02*
X262052148Y-113079285D01*
X262052148Y-113079285D02*
X262147386Y-113031666D01*
X262147386Y-113031666D02*
X262195005Y-112936428D01*
X262195005Y-112936428D02*
X262195005Y-112888809D01*
X262195005Y-112888809D02*
X262147386Y-112793571D01*
X262147386Y-112793571D02*
X262052148Y-112745952D01*
X262052148Y-112745952D02*
X261909291Y-112745952D01*
X261909291Y-112745952D02*
X261814053Y-112793571D01*
X260575957Y-112745952D02*
X260575957Y-113745952D01*
X260575957Y-112793571D02*
X260480719Y-112745952D01*
X260480719Y-112745952D02*
X260290243Y-112745952D01*
X260290243Y-112745952D02*
X260195005Y-112793571D01*
X260195005Y-112793571D02*
X260147386Y-112841190D01*
X260147386Y-112841190D02*
X260099767Y-112936428D01*
X260099767Y-112936428D02*
X260099767Y-113222142D01*
X260099767Y-113222142D02*
X260147386Y-113317380D01*
X260147386Y-113317380D02*
X260195005Y-113365000D01*
X260195005Y-113365000D02*
X260290243Y-113412619D01*
X260290243Y-113412619D02*
X260480719Y-113412619D01*
X260480719Y-113412619D02*
X260575957Y-113365000D01*
X259528338Y-113412619D02*
X259623576Y-113365000D01*
X259623576Y-113365000D02*
X259671195Y-113317380D01*
X259671195Y-113317380D02*
X259718814Y-113222142D01*
X259718814Y-113222142D02*
X259718814Y-112936428D01*
X259718814Y-112936428D02*
X259671195Y-112841190D01*
X259671195Y-112841190D02*
X259623576Y-112793571D01*
X259623576Y-112793571D02*
X259528338Y-112745952D01*
X259528338Y-112745952D02*
X259385481Y-112745952D01*
X259385481Y-112745952D02*
X259290243Y-112793571D01*
X259290243Y-112793571D02*
X259242624Y-112841190D01*
X259242624Y-112841190D02*
X259195005Y-112936428D01*
X259195005Y-112936428D02*
X259195005Y-113222142D01*
X259195005Y-113222142D02*
X259242624Y-113317380D01*
X259242624Y-113317380D02*
X259290243Y-113365000D01*
X259290243Y-113365000D02*
X259385481Y-113412619D01*
X259385481Y-113412619D02*
X259528338Y-113412619D01*
X258814052Y-113365000D02*
X258718814Y-113412619D01*
X258718814Y-113412619D02*
X258528338Y-113412619D01*
X258528338Y-113412619D02*
X258433100Y-113365000D01*
X258433100Y-113365000D02*
X258385481Y-113269761D01*
X258385481Y-113269761D02*
X258385481Y-113222142D01*
X258385481Y-113222142D02*
X258433100Y-113126904D01*
X258433100Y-113126904D02*
X258528338Y-113079285D01*
X258528338Y-113079285D02*
X258671195Y-113079285D01*
X258671195Y-113079285D02*
X258766433Y-113031666D01*
X258766433Y-113031666D02*
X258814052Y-112936428D01*
X258814052Y-112936428D02*
X258814052Y-112888809D01*
X258814052Y-112888809D02*
X258766433Y-112793571D01*
X258766433Y-112793571D02*
X258671195Y-112745952D01*
X258671195Y-112745952D02*
X258528338Y-112745952D01*
X258528338Y-112745952D02*
X258433100Y-112793571D01*
X258004528Y-113365000D02*
X257909290Y-113412619D01*
X257909290Y-113412619D02*
X257718814Y-113412619D01*
X257718814Y-113412619D02*
X257623576Y-113365000D01*
X257623576Y-113365000D02*
X257575957Y-113269761D01*
X257575957Y-113269761D02*
X257575957Y-113222142D01*
X257575957Y-113222142D02*
X257623576Y-113126904D01*
X257623576Y-113126904D02*
X257718814Y-113079285D01*
X257718814Y-113079285D02*
X257861671Y-113079285D01*
X257861671Y-113079285D02*
X257956909Y-113031666D01*
X257956909Y-113031666D02*
X258004528Y-112936428D01*
X258004528Y-112936428D02*
X258004528Y-112888809D01*
X258004528Y-112888809D02*
X257956909Y-112793571D01*
X257956909Y-112793571D02*
X257861671Y-112745952D01*
X257861671Y-112745952D02*
X257718814Y-112745952D01*
X257718814Y-112745952D02*
X257623576Y-112793571D01*
X257147385Y-113412619D02*
X257147385Y-112745952D01*
X257147385Y-112412619D02*
X257195004Y-112460238D01*
X257195004Y-112460238D02*
X257147385Y-112507857D01*
X257147385Y-112507857D02*
X257099766Y-112460238D01*
X257099766Y-112460238D02*
X257147385Y-112412619D01*
X257147385Y-112412619D02*
X257147385Y-112507857D01*
X256671195Y-113412619D02*
X256671195Y-112412619D01*
X256671195Y-112793571D02*
X256575957Y-112745952D01*
X256575957Y-112745952D02*
X256385481Y-112745952D01*
X256385481Y-112745952D02*
X256290243Y-112793571D01*
X256290243Y-112793571D02*
X256242624Y-112841190D01*
X256242624Y-112841190D02*
X256195005Y-112936428D01*
X256195005Y-112936428D02*
X256195005Y-113222142D01*
X256195005Y-113222142D02*
X256242624Y-113317380D01*
X256242624Y-113317380D02*
X256290243Y-113365000D01*
X256290243Y-113365000D02*
X256385481Y-113412619D01*
X256385481Y-113412619D02*
X256575957Y-113412619D01*
X256575957Y-113412619D02*
X256671195Y-113365000D01*
X255623576Y-113412619D02*
X255718814Y-113365000D01*
X255718814Y-113365000D02*
X255766433Y-113269761D01*
X255766433Y-113269761D02*
X255766433Y-112412619D01*
X254861671Y-113365000D02*
X254956909Y-113412619D01*
X254956909Y-113412619D02*
X255147385Y-113412619D01*
X255147385Y-113412619D02*
X255242623Y-113365000D01*
X255242623Y-113365000D02*
X255290242Y-113269761D01*
X255290242Y-113269761D02*
X255290242Y-112888809D01*
X255290242Y-112888809D02*
X255242623Y-112793571D01*
X255242623Y-112793571D02*
X255147385Y-112745952D01*
X255147385Y-112745952D02*
X254956909Y-112745952D01*
X254956909Y-112745952D02*
X254861671Y-112793571D01*
X254861671Y-112793571D02*
X254814052Y-112888809D01*
X254814052Y-112888809D02*
X254814052Y-112984047D01*
X254814052Y-112984047D02*
X255290242Y-113079285D01*
X253718813Y-112745952D02*
X253528337Y-113412619D01*
X253528337Y-113412619D02*
X253337861Y-112936428D01*
X253337861Y-112936428D02*
X253147385Y-113412619D01*
X253147385Y-113412619D02*
X252956909Y-112745952D01*
X252575956Y-113412619D02*
X252575956Y-112745952D01*
X252575956Y-112412619D02*
X252623575Y-112460238D01*
X252623575Y-112460238D02*
X252575956Y-112507857D01*
X252575956Y-112507857D02*
X252528337Y-112460238D01*
X252528337Y-112460238D02*
X252575956Y-112412619D01*
X252575956Y-112412619D02*
X252575956Y-112507857D01*
X252242623Y-112745952D02*
X251861671Y-112745952D01*
X252099766Y-112412619D02*
X252099766Y-113269761D01*
X252099766Y-113269761D02*
X252052147Y-113365000D01*
X252052147Y-113365000D02*
X251956909Y-113412619D01*
X251956909Y-113412619D02*
X251861671Y-113412619D01*
X251528337Y-113412619D02*
X251528337Y-112412619D01*
X251099766Y-113412619D02*
X251099766Y-112888809D01*
X251099766Y-112888809D02*
X251147385Y-112793571D01*
X251147385Y-112793571D02*
X251242623Y-112745952D01*
X251242623Y-112745952D02*
X251385480Y-112745952D01*
X251385480Y-112745952D02*
X251480718Y-112793571D01*
X251480718Y-112793571D02*
X251528337Y-112841190D01*
X249433099Y-113412619D02*
X249433099Y-112888809D01*
X249433099Y-112888809D02*
X249480718Y-112793571D01*
X249480718Y-112793571D02*
X249575956Y-112745952D01*
X249575956Y-112745952D02*
X249766432Y-112745952D01*
X249766432Y-112745952D02*
X249861670Y-112793571D01*
X249433099Y-113365000D02*
X249528337Y-113412619D01*
X249528337Y-113412619D02*
X249766432Y-113412619D01*
X249766432Y-113412619D02*
X249861670Y-113365000D01*
X249861670Y-113365000D02*
X249909289Y-113269761D01*
X249909289Y-113269761D02*
X249909289Y-113174523D01*
X249909289Y-113174523D02*
X249861670Y-113079285D01*
X249861670Y-113079285D02*
X249766432Y-113031666D01*
X249766432Y-113031666D02*
X249528337Y-113031666D01*
X249528337Y-113031666D02*
X249433099Y-112984047D01*
X247766432Y-113412619D02*
X247766432Y-112412619D01*
X247766432Y-113365000D02*
X247861670Y-113412619D01*
X247861670Y-113412619D02*
X248052146Y-113412619D01*
X248052146Y-113412619D02*
X248147384Y-113365000D01*
X248147384Y-113365000D02*
X248195003Y-113317380D01*
X248195003Y-113317380D02*
X248242622Y-113222142D01*
X248242622Y-113222142D02*
X248242622Y-112936428D01*
X248242622Y-112936428D02*
X248195003Y-112841190D01*
X248195003Y-112841190D02*
X248147384Y-112793571D01*
X248147384Y-112793571D02*
X248052146Y-112745952D01*
X248052146Y-112745952D02*
X247861670Y-112745952D01*
X247861670Y-112745952D02*
X247766432Y-112793571D01*
X247290241Y-113412619D02*
X247290241Y-112745952D01*
X247290241Y-112936428D02*
X247242622Y-112841190D01*
X247242622Y-112841190D02*
X247195003Y-112793571D01*
X247195003Y-112793571D02*
X247099765Y-112745952D01*
X247099765Y-112745952D02*
X247004527Y-112745952D01*
X246290241Y-113365000D02*
X246385479Y-113412619D01*
X246385479Y-113412619D02*
X246575955Y-113412619D01*
X246575955Y-113412619D02*
X246671193Y-113365000D01*
X246671193Y-113365000D02*
X246718812Y-113269761D01*
X246718812Y-113269761D02*
X246718812Y-112888809D01*
X246718812Y-112888809D02*
X246671193Y-112793571D01*
X246671193Y-112793571D02*
X246575955Y-112745952D01*
X246575955Y-112745952D02*
X246385479Y-112745952D01*
X246385479Y-112745952D02*
X246290241Y-112793571D01*
X246290241Y-112793571D02*
X246242622Y-112888809D01*
X246242622Y-112888809D02*
X246242622Y-112984047D01*
X246242622Y-112984047D02*
X246718812Y-113079285D01*
X245814050Y-113412619D02*
X245814050Y-112745952D01*
X245814050Y-112841190D02*
X245766431Y-112793571D01*
X245766431Y-112793571D02*
X245671193Y-112745952D01*
X245671193Y-112745952D02*
X245528336Y-112745952D01*
X245528336Y-112745952D02*
X245433098Y-112793571D01*
X245433098Y-112793571D02*
X245385479Y-112888809D01*
X245385479Y-112888809D02*
X245385479Y-113412619D01*
X245385479Y-112888809D02*
X245337860Y-112793571D01*
X245337860Y-112793571D02*
X245242622Y-112745952D01*
X245242622Y-112745952D02*
X245099765Y-112745952D01*
X245099765Y-112745952D02*
X245004526Y-112793571D01*
X245004526Y-112793571D02*
X244956907Y-112888809D01*
X244956907Y-112888809D02*
X244956907Y-113412619D01*
X244099765Y-113365000D02*
X244195003Y-113412619D01*
X244195003Y-113412619D02*
X244385479Y-113412619D01*
X244385479Y-113412619D02*
X244480717Y-113365000D01*
X244480717Y-113365000D02*
X244528336Y-113269761D01*
X244528336Y-113269761D02*
X244528336Y-112888809D01*
X244528336Y-112888809D02*
X244480717Y-112793571D01*
X244480717Y-112793571D02*
X244385479Y-112745952D01*
X244385479Y-112745952D02*
X244195003Y-112745952D01*
X244195003Y-112745952D02*
X244099765Y-112793571D01*
X244099765Y-112793571D02*
X244052146Y-112888809D01*
X244052146Y-112888809D02*
X244052146Y-112984047D01*
X244052146Y-112984047D02*
X244528336Y-113079285D01*
X243480717Y-113412619D02*
X243575955Y-113365000D01*
X243575955Y-113365000D02*
X243623574Y-113269761D01*
X243623574Y-113269761D02*
X243623574Y-112412619D01*
X241909288Y-113412619D02*
X241909288Y-112888809D01*
X241909288Y-112888809D02*
X241956907Y-112793571D01*
X241956907Y-112793571D02*
X242052145Y-112745952D01*
X242052145Y-112745952D02*
X242242621Y-112745952D01*
X242242621Y-112745952D02*
X242337859Y-112793571D01*
X241909288Y-113365000D02*
X242004526Y-113412619D01*
X242004526Y-113412619D02*
X242242621Y-113412619D01*
X242242621Y-113412619D02*
X242337859Y-113365000D01*
X242337859Y-113365000D02*
X242385478Y-113269761D01*
X242385478Y-113269761D02*
X242385478Y-113174523D01*
X242385478Y-113174523D02*
X242337859Y-113079285D01*
X242337859Y-113079285D02*
X242242621Y-113031666D01*
X242242621Y-113031666D02*
X242004526Y-113031666D01*
X242004526Y-113031666D02*
X241909288Y-112984047D01*
X241433097Y-112745952D02*
X241433097Y-113412619D01*
X241433097Y-112841190D02*
X241385478Y-112793571D01*
X241385478Y-112793571D02*
X241290240Y-112745952D01*
X241290240Y-112745952D02*
X241147383Y-112745952D01*
X241147383Y-112745952D02*
X241052145Y-112793571D01*
X241052145Y-112793571D02*
X241004526Y-112888809D01*
X241004526Y-112888809D02*
X241004526Y-113412619D01*
X240099764Y-113412619D02*
X240099764Y-112412619D01*
X240099764Y-113365000D02*
X240195002Y-113412619D01*
X240195002Y-113412619D02*
X240385478Y-113412619D01*
X240385478Y-113412619D02*
X240480716Y-113365000D01*
X240480716Y-113365000D02*
X240528335Y-113317380D01*
X240528335Y-113317380D02*
X240575954Y-113222142D01*
X240575954Y-113222142D02*
X240575954Y-112936428D01*
X240575954Y-112936428D02*
X240528335Y-112841190D01*
X240528335Y-112841190D02*
X240480716Y-112793571D01*
X240480716Y-112793571D02*
X240385478Y-112745952D01*
X240385478Y-112745952D02*
X240195002Y-112745952D01*
X240195002Y-112745952D02*
X240099764Y-112793571D01*
X238433097Y-113412619D02*
X238433097Y-112888809D01*
X238433097Y-112888809D02*
X238480716Y-112793571D01*
X238480716Y-112793571D02*
X238575954Y-112745952D01*
X238575954Y-112745952D02*
X238766430Y-112745952D01*
X238766430Y-112745952D02*
X238861668Y-112793571D01*
X238433097Y-113365000D02*
X238528335Y-113412619D01*
X238528335Y-113412619D02*
X238766430Y-113412619D01*
X238766430Y-113412619D02*
X238861668Y-113365000D01*
X238861668Y-113365000D02*
X238909287Y-113269761D01*
X238909287Y-113269761D02*
X238909287Y-113174523D01*
X238909287Y-113174523D02*
X238861668Y-113079285D01*
X238861668Y-113079285D02*
X238766430Y-113031666D01*
X238766430Y-113031666D02*
X238528335Y-113031666D01*
X238528335Y-113031666D02*
X238433097Y-112984047D01*
X237052144Y-113412619D02*
X237147382Y-113365000D01*
X237147382Y-113365000D02*
X237195001Y-113269761D01*
X237195001Y-113269761D02*
X237195001Y-112412619D01*
X236671191Y-113412619D02*
X236671191Y-112745952D01*
X236671191Y-112412619D02*
X236718810Y-112460238D01*
X236718810Y-112460238D02*
X236671191Y-112507857D01*
X236671191Y-112507857D02*
X236623572Y-112460238D01*
X236623572Y-112460238D02*
X236671191Y-112412619D01*
X236671191Y-112412619D02*
X236671191Y-112507857D01*
X236337858Y-112745952D02*
X235956906Y-112745952D01*
X236195001Y-112412619D02*
X236195001Y-113269761D01*
X236195001Y-113269761D02*
X236147382Y-113365000D01*
X236147382Y-113365000D02*
X236052144Y-113412619D01*
X236052144Y-113412619D02*
X235956906Y-113412619D01*
X235766429Y-112745952D02*
X235385477Y-112745952D01*
X235623572Y-112412619D02*
X235623572Y-113269761D01*
X235623572Y-113269761D02*
X235575953Y-113365000D01*
X235575953Y-113365000D02*
X235480715Y-113412619D01*
X235480715Y-113412619D02*
X235385477Y-113412619D01*
X234909286Y-113412619D02*
X235004524Y-113365000D01*
X235004524Y-113365000D02*
X235052143Y-113269761D01*
X235052143Y-113269761D02*
X235052143Y-112412619D01*
X234147381Y-113365000D02*
X234242619Y-113412619D01*
X234242619Y-113412619D02*
X234433095Y-113412619D01*
X234433095Y-113412619D02*
X234528333Y-113365000D01*
X234528333Y-113365000D02*
X234575952Y-113269761D01*
X234575952Y-113269761D02*
X234575952Y-112888809D01*
X234575952Y-112888809D02*
X234528333Y-112793571D01*
X234528333Y-112793571D02*
X234433095Y-112745952D01*
X234433095Y-112745952D02*
X234242619Y-112745952D01*
X234242619Y-112745952D02*
X234147381Y-112793571D01*
X234147381Y-112793571D02*
X234099762Y-112888809D01*
X234099762Y-112888809D02*
X234099762Y-112984047D01*
X234099762Y-112984047D02*
X234575952Y-113079285D01*
X232480714Y-113365000D02*
X232575952Y-113412619D01*
X232575952Y-113412619D02*
X232766428Y-113412619D01*
X232766428Y-113412619D02*
X232861666Y-113365000D01*
X232861666Y-113365000D02*
X232909285Y-113317380D01*
X232909285Y-113317380D02*
X232956904Y-113222142D01*
X232956904Y-113222142D02*
X232956904Y-112936428D01*
X232956904Y-112936428D02*
X232909285Y-112841190D01*
X232909285Y-112841190D02*
X232861666Y-112793571D01*
X232861666Y-112793571D02*
X232766428Y-112745952D01*
X232766428Y-112745952D02*
X232575952Y-112745952D01*
X232575952Y-112745952D02*
X232480714Y-112793571D01*
X231909285Y-113412619D02*
X232004523Y-113365000D01*
X232004523Y-113365000D02*
X232052142Y-113317380D01*
X232052142Y-113317380D02*
X232099761Y-113222142D01*
X232099761Y-113222142D02*
X232099761Y-112936428D01*
X232099761Y-112936428D02*
X232052142Y-112841190D01*
X232052142Y-112841190D02*
X232004523Y-112793571D01*
X232004523Y-112793571D02*
X231909285Y-112745952D01*
X231909285Y-112745952D02*
X231766428Y-112745952D01*
X231766428Y-112745952D02*
X231671190Y-112793571D01*
X231671190Y-112793571D02*
X231623571Y-112841190D01*
X231623571Y-112841190D02*
X231575952Y-112936428D01*
X231575952Y-112936428D02*
X231575952Y-113222142D01*
X231575952Y-113222142D02*
X231623571Y-113317380D01*
X231623571Y-113317380D02*
X231671190Y-113365000D01*
X231671190Y-113365000D02*
X231766428Y-113412619D01*
X231766428Y-113412619D02*
X231909285Y-113412619D01*
X230718809Y-112745952D02*
X230718809Y-113412619D01*
X231147380Y-112745952D02*
X231147380Y-113269761D01*
X231147380Y-113269761D02*
X231099761Y-113365000D01*
X231099761Y-113365000D02*
X231004523Y-113412619D01*
X231004523Y-113412619D02*
X230861666Y-113412619D01*
X230861666Y-113412619D02*
X230766428Y-113365000D01*
X230766428Y-113365000D02*
X230718809Y-113317380D01*
X230242618Y-113412619D02*
X230242618Y-112745952D01*
X230242618Y-112936428D02*
X230194999Y-112841190D01*
X230194999Y-112841190D02*
X230147380Y-112793571D01*
X230147380Y-112793571D02*
X230052142Y-112745952D01*
X230052142Y-112745952D02*
X229956904Y-112745952D01*
X229194999Y-113412619D02*
X229194999Y-112888809D01*
X229194999Y-112888809D02*
X229242618Y-112793571D01*
X229242618Y-112793571D02*
X229337856Y-112745952D01*
X229337856Y-112745952D02*
X229528332Y-112745952D01*
X229528332Y-112745952D02*
X229623570Y-112793571D01*
X229194999Y-113365000D02*
X229290237Y-113412619D01*
X229290237Y-113412619D02*
X229528332Y-113412619D01*
X229528332Y-113412619D02*
X229623570Y-113365000D01*
X229623570Y-113365000D02*
X229671189Y-113269761D01*
X229671189Y-113269761D02*
X229671189Y-113174523D01*
X229671189Y-113174523D02*
X229623570Y-113079285D01*
X229623570Y-113079285D02*
X229528332Y-113031666D01*
X229528332Y-113031666D02*
X229290237Y-113031666D01*
X229290237Y-113031666D02*
X229194999Y-112984047D01*
X228290237Y-112745952D02*
X228290237Y-113555476D01*
X228290237Y-113555476D02*
X228337856Y-113650714D01*
X228337856Y-113650714D02*
X228385475Y-113698333D01*
X228385475Y-113698333D02*
X228480713Y-113745952D01*
X228480713Y-113745952D02*
X228623570Y-113745952D01*
X228623570Y-113745952D02*
X228718808Y-113698333D01*
X228290237Y-113365000D02*
X228385475Y-113412619D01*
X228385475Y-113412619D02*
X228575951Y-113412619D01*
X228575951Y-113412619D02*
X228671189Y-113365000D01*
X228671189Y-113365000D02*
X228718808Y-113317380D01*
X228718808Y-113317380D02*
X228766427Y-113222142D01*
X228766427Y-113222142D02*
X228766427Y-112936428D01*
X228766427Y-112936428D02*
X228718808Y-112841190D01*
X228718808Y-112841190D02*
X228671189Y-112793571D01*
X228671189Y-112793571D02*
X228575951Y-112745952D01*
X228575951Y-112745952D02*
X228385475Y-112745952D01*
X228385475Y-112745952D02*
X228290237Y-112793571D01*
X227433094Y-113365000D02*
X227528332Y-113412619D01*
X227528332Y-113412619D02*
X227718808Y-113412619D01*
X227718808Y-113412619D02*
X227814046Y-113365000D01*
X227814046Y-113365000D02*
X227861665Y-113269761D01*
X227861665Y-113269761D02*
X227861665Y-112888809D01*
X227861665Y-112888809D02*
X227814046Y-112793571D01*
X227814046Y-112793571D02*
X227718808Y-112745952D01*
X227718808Y-112745952D02*
X227528332Y-112745952D01*
X227528332Y-112745952D02*
X227433094Y-112793571D01*
X227433094Y-112793571D02*
X227385475Y-112888809D01*
X227385475Y-112888809D02*
X227385475Y-112984047D01*
X227385475Y-112984047D02*
X227861665Y-113079285D01*
D11*
%TO.C,J5*%
X268537904Y-59427619D02*
X268537904Y-58427619D01*
X268537904Y-58427619D02*
X268156952Y-58427619D01*
X268156952Y-58427619D02*
X268061714Y-58475238D01*
X268061714Y-58475238D02*
X268014095Y-58522857D01*
X268014095Y-58522857D02*
X267966476Y-58618095D01*
X267966476Y-58618095D02*
X267966476Y-58760952D01*
X267966476Y-58760952D02*
X268014095Y-58856190D01*
X268014095Y-58856190D02*
X268061714Y-58903809D01*
X268061714Y-58903809D02*
X268156952Y-58951428D01*
X268156952Y-58951428D02*
X268537904Y-58951428D01*
X266966476Y-59332380D02*
X267014095Y-59380000D01*
X267014095Y-59380000D02*
X267156952Y-59427619D01*
X267156952Y-59427619D02*
X267252190Y-59427619D01*
X267252190Y-59427619D02*
X267395047Y-59380000D01*
X267395047Y-59380000D02*
X267490285Y-59284761D01*
X267490285Y-59284761D02*
X267537904Y-59189523D01*
X267537904Y-59189523D02*
X267585523Y-58999047D01*
X267585523Y-58999047D02*
X267585523Y-58856190D01*
X267585523Y-58856190D02*
X267537904Y-58665714D01*
X267537904Y-58665714D02*
X267490285Y-58570476D01*
X267490285Y-58570476D02*
X267395047Y-58475238D01*
X267395047Y-58475238D02*
X267252190Y-58427619D01*
X267252190Y-58427619D02*
X267156952Y-58427619D01*
X267156952Y-58427619D02*
X267014095Y-58475238D01*
X267014095Y-58475238D02*
X266966476Y-58522857D01*
X266633142Y-58427619D02*
X265966476Y-58427619D01*
X265966476Y-58427619D02*
X266395047Y-59427619D01*
X268537904Y-61967619D02*
X268537904Y-60967619D01*
X268537904Y-60967619D02*
X268156952Y-60967619D01*
X268156952Y-60967619D02*
X268061714Y-61015238D01*
X268061714Y-61015238D02*
X268014095Y-61062857D01*
X268014095Y-61062857D02*
X267966476Y-61158095D01*
X267966476Y-61158095D02*
X267966476Y-61300952D01*
X267966476Y-61300952D02*
X268014095Y-61396190D01*
X268014095Y-61396190D02*
X268061714Y-61443809D01*
X268061714Y-61443809D02*
X268156952Y-61491428D01*
X268156952Y-61491428D02*
X268537904Y-61491428D01*
X266966476Y-61872380D02*
X267014095Y-61920000D01*
X267014095Y-61920000D02*
X267156952Y-61967619D01*
X267156952Y-61967619D02*
X267252190Y-61967619D01*
X267252190Y-61967619D02*
X267395047Y-61920000D01*
X267395047Y-61920000D02*
X267490285Y-61824761D01*
X267490285Y-61824761D02*
X267537904Y-61729523D01*
X267537904Y-61729523D02*
X267585523Y-61539047D01*
X267585523Y-61539047D02*
X267585523Y-61396190D01*
X267585523Y-61396190D02*
X267537904Y-61205714D01*
X267537904Y-61205714D02*
X267490285Y-61110476D01*
X267490285Y-61110476D02*
X267395047Y-61015238D01*
X267395047Y-61015238D02*
X267252190Y-60967619D01*
X267252190Y-60967619D02*
X267156952Y-60967619D01*
X267156952Y-60967619D02*
X267014095Y-61015238D01*
X267014095Y-61015238D02*
X266966476Y-61062857D01*
X266109333Y-60967619D02*
X266299809Y-60967619D01*
X266299809Y-60967619D02*
X266395047Y-61015238D01*
X266395047Y-61015238D02*
X266442666Y-61062857D01*
X266442666Y-61062857D02*
X266537904Y-61205714D01*
X266537904Y-61205714D02*
X266585523Y-61396190D01*
X266585523Y-61396190D02*
X266585523Y-61777142D01*
X266585523Y-61777142D02*
X266537904Y-61872380D01*
X266537904Y-61872380D02*
X266490285Y-61920000D01*
X266490285Y-61920000D02*
X266395047Y-61967619D01*
X266395047Y-61967619D02*
X266204571Y-61967619D01*
X266204571Y-61967619D02*
X266109333Y-61920000D01*
X266109333Y-61920000D02*
X266061714Y-61872380D01*
X266061714Y-61872380D02*
X266014095Y-61777142D01*
X266014095Y-61777142D02*
X266014095Y-61539047D01*
X266014095Y-61539047D02*
X266061714Y-61443809D01*
X266061714Y-61443809D02*
X266109333Y-61396190D01*
X266109333Y-61396190D02*
X266204571Y-61348571D01*
X266204571Y-61348571D02*
X266395047Y-61348571D01*
X266395047Y-61348571D02*
X266490285Y-61396190D01*
X266490285Y-61396190D02*
X266537904Y-61443809D01*
X266537904Y-61443809D02*
X266585523Y-61539047D01*
X268537904Y-64761619D02*
X268537904Y-63761619D01*
X268537904Y-63761619D02*
X268156952Y-63761619D01*
X268156952Y-63761619D02*
X268061714Y-63809238D01*
X268061714Y-63809238D02*
X268014095Y-63856857D01*
X268014095Y-63856857D02*
X267966476Y-63952095D01*
X267966476Y-63952095D02*
X267966476Y-64094952D01*
X267966476Y-64094952D02*
X268014095Y-64190190D01*
X268014095Y-64190190D02*
X268061714Y-64237809D01*
X268061714Y-64237809D02*
X268156952Y-64285428D01*
X268156952Y-64285428D02*
X268537904Y-64285428D01*
X267204571Y-64237809D02*
X267061714Y-64285428D01*
X267061714Y-64285428D02*
X267014095Y-64333047D01*
X267014095Y-64333047D02*
X266966476Y-64428285D01*
X266966476Y-64428285D02*
X266966476Y-64571142D01*
X266966476Y-64571142D02*
X267014095Y-64666380D01*
X267014095Y-64666380D02*
X267061714Y-64714000D01*
X267061714Y-64714000D02*
X267156952Y-64761619D01*
X267156952Y-64761619D02*
X267537904Y-64761619D01*
X267537904Y-64761619D02*
X267537904Y-63761619D01*
X267537904Y-63761619D02*
X267204571Y-63761619D01*
X267204571Y-63761619D02*
X267109333Y-63809238D01*
X267109333Y-63809238D02*
X267061714Y-63856857D01*
X267061714Y-63856857D02*
X267014095Y-63952095D01*
X267014095Y-63952095D02*
X267014095Y-64047333D01*
X267014095Y-64047333D02*
X267061714Y-64142571D01*
X267061714Y-64142571D02*
X267109333Y-64190190D01*
X267109333Y-64190190D02*
X267204571Y-64237809D01*
X267204571Y-64237809D02*
X267537904Y-64237809D01*
X266109333Y-63761619D02*
X266299809Y-63761619D01*
X266299809Y-63761619D02*
X266395047Y-63809238D01*
X266395047Y-63809238D02*
X266442666Y-63856857D01*
X266442666Y-63856857D02*
X266537904Y-63999714D01*
X266537904Y-63999714D02*
X266585523Y-64190190D01*
X266585523Y-64190190D02*
X266585523Y-64571142D01*
X266585523Y-64571142D02*
X266537904Y-64666380D01*
X266537904Y-64666380D02*
X266490285Y-64714000D01*
X266490285Y-64714000D02*
X266395047Y-64761619D01*
X266395047Y-64761619D02*
X266204571Y-64761619D01*
X266204571Y-64761619D02*
X266109333Y-64714000D01*
X266109333Y-64714000D02*
X266061714Y-64666380D01*
X266061714Y-64666380D02*
X266014095Y-64571142D01*
X266014095Y-64571142D02*
X266014095Y-64333047D01*
X266014095Y-64333047D02*
X266061714Y-64237809D01*
X266061714Y-64237809D02*
X266109333Y-64190190D01*
X266109333Y-64190190D02*
X266204571Y-64142571D01*
X266204571Y-64142571D02*
X266395047Y-64142571D01*
X266395047Y-64142571D02*
X266490285Y-64190190D01*
X266490285Y-64190190D02*
X266537904Y-64237809D01*
X266537904Y-64237809D02*
X266585523Y-64333047D01*
X268537904Y-67301619D02*
X268537904Y-66301619D01*
X268537904Y-66301619D02*
X268156952Y-66301619D01*
X268156952Y-66301619D02*
X268061714Y-66349238D01*
X268061714Y-66349238D02*
X268014095Y-66396857D01*
X268014095Y-66396857D02*
X267966476Y-66492095D01*
X267966476Y-66492095D02*
X267966476Y-66634952D01*
X267966476Y-66634952D02*
X268014095Y-66730190D01*
X268014095Y-66730190D02*
X268061714Y-66777809D01*
X268061714Y-66777809D02*
X268156952Y-66825428D01*
X268156952Y-66825428D02*
X268537904Y-66825428D01*
X267204571Y-66777809D02*
X267061714Y-66825428D01*
X267061714Y-66825428D02*
X267014095Y-66873047D01*
X267014095Y-66873047D02*
X266966476Y-66968285D01*
X266966476Y-66968285D02*
X266966476Y-67111142D01*
X266966476Y-67111142D02*
X267014095Y-67206380D01*
X267014095Y-67206380D02*
X267061714Y-67254000D01*
X267061714Y-67254000D02*
X267156952Y-67301619D01*
X267156952Y-67301619D02*
X267537904Y-67301619D01*
X267537904Y-67301619D02*
X267537904Y-66301619D01*
X267537904Y-66301619D02*
X267204571Y-66301619D01*
X267204571Y-66301619D02*
X267109333Y-66349238D01*
X267109333Y-66349238D02*
X267061714Y-66396857D01*
X267061714Y-66396857D02*
X267014095Y-66492095D01*
X267014095Y-66492095D02*
X267014095Y-66587333D01*
X267014095Y-66587333D02*
X267061714Y-66682571D01*
X267061714Y-66682571D02*
X267109333Y-66730190D01*
X267109333Y-66730190D02*
X267204571Y-66777809D01*
X267204571Y-66777809D02*
X267537904Y-66777809D01*
X266061714Y-66301619D02*
X266537904Y-66301619D01*
X266537904Y-66301619D02*
X266585523Y-66777809D01*
X266585523Y-66777809D02*
X266537904Y-66730190D01*
X266537904Y-66730190D02*
X266442666Y-66682571D01*
X266442666Y-66682571D02*
X266204571Y-66682571D01*
X266204571Y-66682571D02*
X266109333Y-66730190D01*
X266109333Y-66730190D02*
X266061714Y-66777809D01*
X266061714Y-66777809D02*
X266014095Y-66873047D01*
X266014095Y-66873047D02*
X266014095Y-67111142D01*
X266014095Y-67111142D02*
X266061714Y-67206380D01*
X266061714Y-67206380D02*
X266109333Y-67254000D01*
X266109333Y-67254000D02*
X266204571Y-67301619D01*
X266204571Y-67301619D02*
X266442666Y-67301619D01*
X266442666Y-67301619D02*
X266537904Y-67254000D01*
X266537904Y-67254000D02*
X266585523Y-67206380D01*
X268537904Y-69587619D02*
X268537904Y-68587619D01*
X268537904Y-68587619D02*
X268156952Y-68587619D01*
X268156952Y-68587619D02*
X268061714Y-68635238D01*
X268061714Y-68635238D02*
X268014095Y-68682857D01*
X268014095Y-68682857D02*
X267966476Y-68778095D01*
X267966476Y-68778095D02*
X267966476Y-68920952D01*
X267966476Y-68920952D02*
X268014095Y-69016190D01*
X268014095Y-69016190D02*
X268061714Y-69063809D01*
X268061714Y-69063809D02*
X268156952Y-69111428D01*
X268156952Y-69111428D02*
X268537904Y-69111428D01*
X267204571Y-69063809D02*
X267061714Y-69111428D01*
X267061714Y-69111428D02*
X267014095Y-69159047D01*
X267014095Y-69159047D02*
X266966476Y-69254285D01*
X266966476Y-69254285D02*
X266966476Y-69397142D01*
X266966476Y-69397142D02*
X267014095Y-69492380D01*
X267014095Y-69492380D02*
X267061714Y-69540000D01*
X267061714Y-69540000D02*
X267156952Y-69587619D01*
X267156952Y-69587619D02*
X267537904Y-69587619D01*
X267537904Y-69587619D02*
X267537904Y-68587619D01*
X267537904Y-68587619D02*
X267204571Y-68587619D01*
X267204571Y-68587619D02*
X267109333Y-68635238D01*
X267109333Y-68635238D02*
X267061714Y-68682857D01*
X267061714Y-68682857D02*
X267014095Y-68778095D01*
X267014095Y-68778095D02*
X267014095Y-68873333D01*
X267014095Y-68873333D02*
X267061714Y-68968571D01*
X267061714Y-68968571D02*
X267109333Y-69016190D01*
X267109333Y-69016190D02*
X267204571Y-69063809D01*
X267204571Y-69063809D02*
X267537904Y-69063809D01*
X266109333Y-68920952D02*
X266109333Y-69587619D01*
X266347428Y-68540000D02*
X266585523Y-69254285D01*
X266585523Y-69254285D02*
X265966476Y-69254285D01*
X268537904Y-72127619D02*
X268537904Y-71127619D01*
X268537904Y-71127619D02*
X268156952Y-71127619D01*
X268156952Y-71127619D02*
X268061714Y-71175238D01*
X268061714Y-71175238D02*
X268014095Y-71222857D01*
X268014095Y-71222857D02*
X267966476Y-71318095D01*
X267966476Y-71318095D02*
X267966476Y-71460952D01*
X267966476Y-71460952D02*
X268014095Y-71556190D01*
X268014095Y-71556190D02*
X268061714Y-71603809D01*
X268061714Y-71603809D02*
X268156952Y-71651428D01*
X268156952Y-71651428D02*
X268537904Y-71651428D01*
X267537904Y-72127619D02*
X267537904Y-71127619D01*
X267537904Y-71127619D02*
X267299809Y-71127619D01*
X267299809Y-71127619D02*
X267156952Y-71175238D01*
X267156952Y-71175238D02*
X267061714Y-71270476D01*
X267061714Y-71270476D02*
X267014095Y-71365714D01*
X267014095Y-71365714D02*
X266966476Y-71556190D01*
X266966476Y-71556190D02*
X266966476Y-71699047D01*
X266966476Y-71699047D02*
X267014095Y-71889523D01*
X267014095Y-71889523D02*
X267061714Y-71984761D01*
X267061714Y-71984761D02*
X267156952Y-72080000D01*
X267156952Y-72080000D02*
X267299809Y-72127619D01*
X267299809Y-72127619D02*
X267537904Y-72127619D01*
X266633142Y-71127619D02*
X265966476Y-71127619D01*
X265966476Y-71127619D02*
X266395047Y-72127619D01*
X268537904Y-74667619D02*
X268537904Y-73667619D01*
X268537904Y-73667619D02*
X268156952Y-73667619D01*
X268156952Y-73667619D02*
X268061714Y-73715238D01*
X268061714Y-73715238D02*
X268014095Y-73762857D01*
X268014095Y-73762857D02*
X267966476Y-73858095D01*
X267966476Y-73858095D02*
X267966476Y-74000952D01*
X267966476Y-74000952D02*
X268014095Y-74096190D01*
X268014095Y-74096190D02*
X268061714Y-74143809D01*
X268061714Y-74143809D02*
X268156952Y-74191428D01*
X268156952Y-74191428D02*
X268537904Y-74191428D01*
X267537904Y-74667619D02*
X267537904Y-73667619D01*
X267537904Y-73667619D02*
X267299809Y-73667619D01*
X267299809Y-73667619D02*
X267156952Y-73715238D01*
X267156952Y-73715238D02*
X267061714Y-73810476D01*
X267061714Y-73810476D02*
X267014095Y-73905714D01*
X267014095Y-73905714D02*
X266966476Y-74096190D01*
X266966476Y-74096190D02*
X266966476Y-74239047D01*
X266966476Y-74239047D02*
X267014095Y-74429523D01*
X267014095Y-74429523D02*
X267061714Y-74524761D01*
X267061714Y-74524761D02*
X267156952Y-74620000D01*
X267156952Y-74620000D02*
X267299809Y-74667619D01*
X267299809Y-74667619D02*
X267537904Y-74667619D01*
X266109333Y-73667619D02*
X266299809Y-73667619D01*
X266299809Y-73667619D02*
X266395047Y-73715238D01*
X266395047Y-73715238D02*
X266442666Y-73762857D01*
X266442666Y-73762857D02*
X266537904Y-73905714D01*
X266537904Y-73905714D02*
X266585523Y-74096190D01*
X266585523Y-74096190D02*
X266585523Y-74477142D01*
X266585523Y-74477142D02*
X266537904Y-74572380D01*
X266537904Y-74572380D02*
X266490285Y-74620000D01*
X266490285Y-74620000D02*
X266395047Y-74667619D01*
X266395047Y-74667619D02*
X266204571Y-74667619D01*
X266204571Y-74667619D02*
X266109333Y-74620000D01*
X266109333Y-74620000D02*
X266061714Y-74572380D01*
X266061714Y-74572380D02*
X266014095Y-74477142D01*
X266014095Y-74477142D02*
X266014095Y-74239047D01*
X266014095Y-74239047D02*
X266061714Y-74143809D01*
X266061714Y-74143809D02*
X266109333Y-74096190D01*
X266109333Y-74096190D02*
X266204571Y-74048571D01*
X266204571Y-74048571D02*
X266395047Y-74048571D01*
X266395047Y-74048571D02*
X266490285Y-74096190D01*
X266490285Y-74096190D02*
X266537904Y-74143809D01*
X266537904Y-74143809D02*
X266585523Y-74239047D01*
X268537904Y-77207619D02*
X268537904Y-76207619D01*
X268537904Y-76207619D02*
X268156952Y-76207619D01*
X268156952Y-76207619D02*
X268061714Y-76255238D01*
X268061714Y-76255238D02*
X268014095Y-76302857D01*
X268014095Y-76302857D02*
X267966476Y-76398095D01*
X267966476Y-76398095D02*
X267966476Y-76540952D01*
X267966476Y-76540952D02*
X268014095Y-76636190D01*
X268014095Y-76636190D02*
X268061714Y-76683809D01*
X268061714Y-76683809D02*
X268156952Y-76731428D01*
X268156952Y-76731428D02*
X268537904Y-76731428D01*
X267537904Y-77207619D02*
X267537904Y-76207619D01*
X267537904Y-76207619D02*
X267299809Y-76207619D01*
X267299809Y-76207619D02*
X267156952Y-76255238D01*
X267156952Y-76255238D02*
X267061714Y-76350476D01*
X267061714Y-76350476D02*
X267014095Y-76445714D01*
X267014095Y-76445714D02*
X266966476Y-76636190D01*
X266966476Y-76636190D02*
X266966476Y-76779047D01*
X266966476Y-76779047D02*
X267014095Y-76969523D01*
X267014095Y-76969523D02*
X267061714Y-77064761D01*
X267061714Y-77064761D02*
X267156952Y-77160000D01*
X267156952Y-77160000D02*
X267299809Y-77207619D01*
X267299809Y-77207619D02*
X267537904Y-77207619D01*
X266109333Y-76540952D02*
X266109333Y-77207619D01*
X266347428Y-76160000D02*
X266585523Y-76874285D01*
X266585523Y-76874285D02*
X265966476Y-76874285D01*
D10*
%TO.C,C4*%
X184141666Y-99042380D02*
X184189285Y-99090000D01*
X184189285Y-99090000D02*
X184332142Y-99137619D01*
X184332142Y-99137619D02*
X184427380Y-99137619D01*
X184427380Y-99137619D02*
X184570237Y-99090000D01*
X184570237Y-99090000D02*
X184665475Y-98994761D01*
X184665475Y-98994761D02*
X184713094Y-98899523D01*
X184713094Y-98899523D02*
X184760713Y-98709047D01*
X184760713Y-98709047D02*
X184760713Y-98566190D01*
X184760713Y-98566190D02*
X184713094Y-98375714D01*
X184713094Y-98375714D02*
X184665475Y-98280476D01*
X184665475Y-98280476D02*
X184570237Y-98185238D01*
X184570237Y-98185238D02*
X184427380Y-98137619D01*
X184427380Y-98137619D02*
X184332142Y-98137619D01*
X184332142Y-98137619D02*
X184189285Y-98185238D01*
X184189285Y-98185238D02*
X184141666Y-98232857D01*
X183284523Y-98470952D02*
X183284523Y-99137619D01*
X183522618Y-98090000D02*
X183760713Y-98804285D01*
X183760713Y-98804285D02*
X183141666Y-98804285D01*
%TO.C,RSW1*%
X125589181Y-104721905D02*
X125922514Y-104245714D01*
X126160609Y-104721905D02*
X126160609Y-103721905D01*
X126160609Y-103721905D02*
X125779657Y-103721905D01*
X125779657Y-103721905D02*
X125684419Y-103769524D01*
X125684419Y-103769524D02*
X125636800Y-103817143D01*
X125636800Y-103817143D02*
X125589181Y-103912381D01*
X125589181Y-103912381D02*
X125589181Y-104055238D01*
X125589181Y-104055238D02*
X125636800Y-104150476D01*
X125636800Y-104150476D02*
X125684419Y-104198095D01*
X125684419Y-104198095D02*
X125779657Y-104245714D01*
X125779657Y-104245714D02*
X126160609Y-104245714D01*
X125208228Y-104674286D02*
X125065371Y-104721905D01*
X125065371Y-104721905D02*
X124827276Y-104721905D01*
X124827276Y-104721905D02*
X124732038Y-104674286D01*
X124732038Y-104674286D02*
X124684419Y-104626666D01*
X124684419Y-104626666D02*
X124636800Y-104531428D01*
X124636800Y-104531428D02*
X124636800Y-104436190D01*
X124636800Y-104436190D02*
X124684419Y-104340952D01*
X124684419Y-104340952D02*
X124732038Y-104293333D01*
X124732038Y-104293333D02*
X124827276Y-104245714D01*
X124827276Y-104245714D02*
X125017752Y-104198095D01*
X125017752Y-104198095D02*
X125112990Y-104150476D01*
X125112990Y-104150476D02*
X125160609Y-104102857D01*
X125160609Y-104102857D02*
X125208228Y-104007619D01*
X125208228Y-104007619D02*
X125208228Y-103912381D01*
X125208228Y-103912381D02*
X125160609Y-103817143D01*
X125160609Y-103817143D02*
X125112990Y-103769524D01*
X125112990Y-103769524D02*
X125017752Y-103721905D01*
X125017752Y-103721905D02*
X124779657Y-103721905D01*
X124779657Y-103721905D02*
X124636800Y-103769524D01*
X124303466Y-103721905D02*
X124065371Y-104721905D01*
X124065371Y-104721905D02*
X123874895Y-104007619D01*
X123874895Y-104007619D02*
X123684419Y-104721905D01*
X123684419Y-104721905D02*
X123446324Y-103721905D01*
X122541562Y-104721905D02*
X123112990Y-104721905D01*
X122827276Y-104721905D02*
X122827276Y-103721905D01*
X122827276Y-103721905D02*
X122922514Y-103864762D01*
X122922514Y-103864762D02*
X123017752Y-103960000D01*
X123017752Y-103960000D02*
X123112990Y-104007619D01*
%TO.C,R3*%
X171056666Y-90300119D02*
X171389999Y-89823928D01*
X171628094Y-90300119D02*
X171628094Y-89300119D01*
X171628094Y-89300119D02*
X171247142Y-89300119D01*
X171247142Y-89300119D02*
X171151904Y-89347738D01*
X171151904Y-89347738D02*
X171104285Y-89395357D01*
X171104285Y-89395357D02*
X171056666Y-89490595D01*
X171056666Y-89490595D02*
X171056666Y-89633452D01*
X171056666Y-89633452D02*
X171104285Y-89728690D01*
X171104285Y-89728690D02*
X171151904Y-89776309D01*
X171151904Y-89776309D02*
X171247142Y-89823928D01*
X171247142Y-89823928D02*
X171628094Y-89823928D01*
X170723332Y-89300119D02*
X170104285Y-89300119D01*
X170104285Y-89300119D02*
X170437618Y-89681071D01*
X170437618Y-89681071D02*
X170294761Y-89681071D01*
X170294761Y-89681071D02*
X170199523Y-89728690D01*
X170199523Y-89728690D02*
X170151904Y-89776309D01*
X170151904Y-89776309D02*
X170104285Y-89871547D01*
X170104285Y-89871547D02*
X170104285Y-90109642D01*
X170104285Y-90109642D02*
X170151904Y-90204880D01*
X170151904Y-90204880D02*
X170199523Y-90252500D01*
X170199523Y-90252500D02*
X170294761Y-90300119D01*
X170294761Y-90300119D02*
X170580475Y-90300119D01*
X170580475Y-90300119D02*
X170675713Y-90252500D01*
X170675713Y-90252500D02*
X170723332Y-90204880D01*
%TO.C,CX1*%
X188692857Y-102067380D02*
X188740476Y-102115000D01*
X188740476Y-102115000D02*
X188883333Y-102162619D01*
X188883333Y-102162619D02*
X188978571Y-102162619D01*
X188978571Y-102162619D02*
X189121428Y-102115000D01*
X189121428Y-102115000D02*
X189216666Y-102019761D01*
X189216666Y-102019761D02*
X189264285Y-101924523D01*
X189264285Y-101924523D02*
X189311904Y-101734047D01*
X189311904Y-101734047D02*
X189311904Y-101591190D01*
X189311904Y-101591190D02*
X189264285Y-101400714D01*
X189264285Y-101400714D02*
X189216666Y-101305476D01*
X189216666Y-101305476D02*
X189121428Y-101210238D01*
X189121428Y-101210238D02*
X188978571Y-101162619D01*
X188978571Y-101162619D02*
X188883333Y-101162619D01*
X188883333Y-101162619D02*
X188740476Y-101210238D01*
X188740476Y-101210238D02*
X188692857Y-101257857D01*
X188359523Y-101162619D02*
X187692857Y-102162619D01*
X187692857Y-101162619D02*
X188359523Y-102162619D01*
X186788095Y-102162619D02*
X187359523Y-102162619D01*
X187073809Y-102162619D02*
X187073809Y-101162619D01*
X187073809Y-101162619D02*
X187169047Y-101305476D01*
X187169047Y-101305476D02*
X187264285Y-101400714D01*
X187264285Y-101400714D02*
X187359523Y-101448333D01*
%TO.C,R2*%
X168376666Y-90297619D02*
X168709999Y-89821428D01*
X168948094Y-90297619D02*
X168948094Y-89297619D01*
X168948094Y-89297619D02*
X168567142Y-89297619D01*
X168567142Y-89297619D02*
X168471904Y-89345238D01*
X168471904Y-89345238D02*
X168424285Y-89392857D01*
X168424285Y-89392857D02*
X168376666Y-89488095D01*
X168376666Y-89488095D02*
X168376666Y-89630952D01*
X168376666Y-89630952D02*
X168424285Y-89726190D01*
X168424285Y-89726190D02*
X168471904Y-89773809D01*
X168471904Y-89773809D02*
X168567142Y-89821428D01*
X168567142Y-89821428D02*
X168948094Y-89821428D01*
X167995713Y-89392857D02*
X167948094Y-89345238D01*
X167948094Y-89345238D02*
X167852856Y-89297619D01*
X167852856Y-89297619D02*
X167614761Y-89297619D01*
X167614761Y-89297619D02*
X167519523Y-89345238D01*
X167519523Y-89345238D02*
X167471904Y-89392857D01*
X167471904Y-89392857D02*
X167424285Y-89488095D01*
X167424285Y-89488095D02*
X167424285Y-89583333D01*
X167424285Y-89583333D02*
X167471904Y-89726190D01*
X167471904Y-89726190D02*
X168043332Y-90297619D01*
X168043332Y-90297619D02*
X167424285Y-90297619D01*
%TO.C,C1*%
X159441666Y-101367380D02*
X159489285Y-101415000D01*
X159489285Y-101415000D02*
X159632142Y-101462619D01*
X159632142Y-101462619D02*
X159727380Y-101462619D01*
X159727380Y-101462619D02*
X159870237Y-101415000D01*
X159870237Y-101415000D02*
X159965475Y-101319761D01*
X159965475Y-101319761D02*
X160013094Y-101224523D01*
X160013094Y-101224523D02*
X160060713Y-101034047D01*
X160060713Y-101034047D02*
X160060713Y-100891190D01*
X160060713Y-100891190D02*
X160013094Y-100700714D01*
X160013094Y-100700714D02*
X159965475Y-100605476D01*
X159965475Y-100605476D02*
X159870237Y-100510238D01*
X159870237Y-100510238D02*
X159727380Y-100462619D01*
X159727380Y-100462619D02*
X159632142Y-100462619D01*
X159632142Y-100462619D02*
X159489285Y-100510238D01*
X159489285Y-100510238D02*
X159441666Y-100557857D01*
X158489285Y-101462619D02*
X159060713Y-101462619D01*
X158774999Y-101462619D02*
X158774999Y-100462619D01*
X158774999Y-100462619D02*
X158870237Y-100605476D01*
X158870237Y-100605476D02*
X158965475Y-100700714D01*
X158965475Y-100700714D02*
X159060713Y-100748333D01*
%TO.C,Y1*%
X184126190Y-107261428D02*
X184126190Y-107737619D01*
X184459523Y-106737619D02*
X184126190Y-107261428D01*
X184126190Y-107261428D02*
X183792857Y-106737619D01*
X182935714Y-107737619D02*
X183507142Y-107737619D01*
X183221428Y-107737619D02*
X183221428Y-106737619D01*
X183221428Y-106737619D02*
X183316666Y-106880476D01*
X183316666Y-106880476D02*
X183411904Y-106975714D01*
X183411904Y-106975714D02*
X183507142Y-107023333D01*
%TO.C,C2*%
X159441666Y-109317380D02*
X159489285Y-109365000D01*
X159489285Y-109365000D02*
X159632142Y-109412619D01*
X159632142Y-109412619D02*
X159727380Y-109412619D01*
X159727380Y-109412619D02*
X159870237Y-109365000D01*
X159870237Y-109365000D02*
X159965475Y-109269761D01*
X159965475Y-109269761D02*
X160013094Y-109174523D01*
X160013094Y-109174523D02*
X160060713Y-108984047D01*
X160060713Y-108984047D02*
X160060713Y-108841190D01*
X160060713Y-108841190D02*
X160013094Y-108650714D01*
X160013094Y-108650714D02*
X159965475Y-108555476D01*
X159965475Y-108555476D02*
X159870237Y-108460238D01*
X159870237Y-108460238D02*
X159727380Y-108412619D01*
X159727380Y-108412619D02*
X159632142Y-108412619D01*
X159632142Y-108412619D02*
X159489285Y-108460238D01*
X159489285Y-108460238D02*
X159441666Y-108507857D01*
X159060713Y-108507857D02*
X159013094Y-108460238D01*
X159013094Y-108460238D02*
X158917856Y-108412619D01*
X158917856Y-108412619D02*
X158679761Y-108412619D01*
X158679761Y-108412619D02*
X158584523Y-108460238D01*
X158584523Y-108460238D02*
X158536904Y-108507857D01*
X158536904Y-108507857D02*
X158489285Y-108603095D01*
X158489285Y-108603095D02*
X158489285Y-108698333D01*
X158489285Y-108698333D02*
X158536904Y-108841190D01*
X158536904Y-108841190D02*
X159108332Y-109412619D01*
X159108332Y-109412619D02*
X158489285Y-109412619D01*
%TO.C,C5*%
X173841666Y-90122380D02*
X173889285Y-90170000D01*
X173889285Y-90170000D02*
X174032142Y-90217619D01*
X174032142Y-90217619D02*
X174127380Y-90217619D01*
X174127380Y-90217619D02*
X174270237Y-90170000D01*
X174270237Y-90170000D02*
X174365475Y-90074761D01*
X174365475Y-90074761D02*
X174413094Y-89979523D01*
X174413094Y-89979523D02*
X174460713Y-89789047D01*
X174460713Y-89789047D02*
X174460713Y-89646190D01*
X174460713Y-89646190D02*
X174413094Y-89455714D01*
X174413094Y-89455714D02*
X174365475Y-89360476D01*
X174365475Y-89360476D02*
X174270237Y-89265238D01*
X174270237Y-89265238D02*
X174127380Y-89217619D01*
X174127380Y-89217619D02*
X174032142Y-89217619D01*
X174032142Y-89217619D02*
X173889285Y-89265238D01*
X173889285Y-89265238D02*
X173841666Y-89312857D01*
X172936904Y-89217619D02*
X173413094Y-89217619D01*
X173413094Y-89217619D02*
X173460713Y-89693809D01*
X173460713Y-89693809D02*
X173413094Y-89646190D01*
X173413094Y-89646190D02*
X173317856Y-89598571D01*
X173317856Y-89598571D02*
X173079761Y-89598571D01*
X173079761Y-89598571D02*
X172984523Y-89646190D01*
X172984523Y-89646190D02*
X172936904Y-89693809D01*
X172936904Y-89693809D02*
X172889285Y-89789047D01*
X172889285Y-89789047D02*
X172889285Y-90027142D01*
X172889285Y-90027142D02*
X172936904Y-90122380D01*
X172936904Y-90122380D02*
X172984523Y-90170000D01*
X172984523Y-90170000D02*
X173079761Y-90217619D01*
X173079761Y-90217619D02*
X173317856Y-90217619D01*
X173317856Y-90217619D02*
X173413094Y-90170000D01*
X173413094Y-90170000D02*
X173460713Y-90122380D01*
%TO.C,C3*%
X180691666Y-113217380D02*
X180739285Y-113265000D01*
X180739285Y-113265000D02*
X180882142Y-113312619D01*
X180882142Y-113312619D02*
X180977380Y-113312619D01*
X180977380Y-113312619D02*
X181120237Y-113265000D01*
X181120237Y-113265000D02*
X181215475Y-113169761D01*
X181215475Y-113169761D02*
X181263094Y-113074523D01*
X181263094Y-113074523D02*
X181310713Y-112884047D01*
X181310713Y-112884047D02*
X181310713Y-112741190D01*
X181310713Y-112741190D02*
X181263094Y-112550714D01*
X181263094Y-112550714D02*
X181215475Y-112455476D01*
X181215475Y-112455476D02*
X181120237Y-112360238D01*
X181120237Y-112360238D02*
X180977380Y-112312619D01*
X180977380Y-112312619D02*
X180882142Y-112312619D01*
X180882142Y-112312619D02*
X180739285Y-112360238D01*
X180739285Y-112360238D02*
X180691666Y-112407857D01*
X180358332Y-112312619D02*
X179739285Y-112312619D01*
X179739285Y-112312619D02*
X180072618Y-112693571D01*
X180072618Y-112693571D02*
X179929761Y-112693571D01*
X179929761Y-112693571D02*
X179834523Y-112741190D01*
X179834523Y-112741190D02*
X179786904Y-112788809D01*
X179786904Y-112788809D02*
X179739285Y-112884047D01*
X179739285Y-112884047D02*
X179739285Y-113122142D01*
X179739285Y-113122142D02*
X179786904Y-113217380D01*
X179786904Y-113217380D02*
X179834523Y-113265000D01*
X179834523Y-113265000D02*
X179929761Y-113312619D01*
X179929761Y-113312619D02*
X180215475Y-113312619D01*
X180215475Y-113312619D02*
X180310713Y-113265000D01*
X180310713Y-113265000D02*
X180358332Y-113217380D01*
%TO.C,J3*%
X68258333Y-57008118D02*
X68258333Y-57722403D01*
X68258333Y-57722403D02*
X68305952Y-57865260D01*
X68305952Y-57865260D02*
X68401190Y-57960499D01*
X68401190Y-57960499D02*
X68544047Y-58008118D01*
X68544047Y-58008118D02*
X68639285Y-58008118D01*
X67877380Y-57008118D02*
X67258333Y-57008118D01*
X67258333Y-57008118D02*
X67591666Y-57389070D01*
X67591666Y-57389070D02*
X67448809Y-57389070D01*
X67448809Y-57389070D02*
X67353571Y-57436689D01*
X67353571Y-57436689D02*
X67305952Y-57484308D01*
X67305952Y-57484308D02*
X67258333Y-57579546D01*
X67258333Y-57579546D02*
X67258333Y-57817641D01*
X67258333Y-57817641D02*
X67305952Y-57912879D01*
X67305952Y-57912879D02*
X67353571Y-57960499D01*
X67353571Y-57960499D02*
X67448809Y-58008118D01*
X67448809Y-58008118D02*
X67734523Y-58008118D01*
X67734523Y-58008118D02*
X67829761Y-57960499D01*
X67829761Y-57960499D02*
X67877380Y-57912879D01*
%TO.C,R1*%
X163591666Y-113287619D02*
X163924999Y-112811428D01*
X164163094Y-113287619D02*
X164163094Y-112287619D01*
X164163094Y-112287619D02*
X163782142Y-112287619D01*
X163782142Y-112287619D02*
X163686904Y-112335238D01*
X163686904Y-112335238D02*
X163639285Y-112382857D01*
X163639285Y-112382857D02*
X163591666Y-112478095D01*
X163591666Y-112478095D02*
X163591666Y-112620952D01*
X163591666Y-112620952D02*
X163639285Y-112716190D01*
X163639285Y-112716190D02*
X163686904Y-112763809D01*
X163686904Y-112763809D02*
X163782142Y-112811428D01*
X163782142Y-112811428D02*
X164163094Y-112811428D01*
X162639285Y-113287619D02*
X163210713Y-113287619D01*
X162924999Y-113287619D02*
X162924999Y-112287619D01*
X162924999Y-112287619D02*
X163020237Y-112430476D01*
X163020237Y-112430476D02*
X163115475Y-112525714D01*
X163115475Y-112525714D02*
X163210713Y-112573333D01*
%TO.C,CX2*%
X188692857Y-107842380D02*
X188740476Y-107890000D01*
X188740476Y-107890000D02*
X188883333Y-107937619D01*
X188883333Y-107937619D02*
X188978571Y-107937619D01*
X188978571Y-107937619D02*
X189121428Y-107890000D01*
X189121428Y-107890000D02*
X189216666Y-107794761D01*
X189216666Y-107794761D02*
X189264285Y-107699523D01*
X189264285Y-107699523D02*
X189311904Y-107509047D01*
X189311904Y-107509047D02*
X189311904Y-107366190D01*
X189311904Y-107366190D02*
X189264285Y-107175714D01*
X189264285Y-107175714D02*
X189216666Y-107080476D01*
X189216666Y-107080476D02*
X189121428Y-106985238D01*
X189121428Y-106985238D02*
X188978571Y-106937619D01*
X188978571Y-106937619D02*
X188883333Y-106937619D01*
X188883333Y-106937619D02*
X188740476Y-106985238D01*
X188740476Y-106985238D02*
X188692857Y-107032857D01*
X188359523Y-106937619D02*
X187692857Y-107937619D01*
X187692857Y-106937619D02*
X188359523Y-107937619D01*
X187359523Y-107032857D02*
X187311904Y-106985238D01*
X187311904Y-106985238D02*
X187216666Y-106937619D01*
X187216666Y-106937619D02*
X186978571Y-106937619D01*
X186978571Y-106937619D02*
X186883333Y-106985238D01*
X186883333Y-106985238D02*
X186835714Y-107032857D01*
X186835714Y-107032857D02*
X186788095Y-107128095D01*
X186788095Y-107128095D02*
X186788095Y-107223333D01*
X186788095Y-107223333D02*
X186835714Y-107366190D01*
X186835714Y-107366190D02*
X187407142Y-107937619D01*
X187407142Y-107937619D02*
X186788095Y-107937619D01*
%TO.C,U1*%
X172311904Y-101962619D02*
X172311904Y-102772142D01*
X172311904Y-102772142D02*
X172264285Y-102867380D01*
X172264285Y-102867380D02*
X172216666Y-102915000D01*
X172216666Y-102915000D02*
X172121428Y-102962619D01*
X172121428Y-102962619D02*
X171930952Y-102962619D01*
X171930952Y-102962619D02*
X171835714Y-102915000D01*
X171835714Y-102915000D02*
X171788095Y-102867380D01*
X171788095Y-102867380D02*
X171740476Y-102772142D01*
X171740476Y-102772142D02*
X171740476Y-101962619D01*
X170740476Y-102962619D02*
X171311904Y-102962619D01*
X171026190Y-102962619D02*
X171026190Y-101962619D01*
X171026190Y-101962619D02*
X171121428Y-102105476D01*
X171121428Y-102105476D02*
X171216666Y-102200714D01*
X171216666Y-102200714D02*
X171311904Y-102248333D01*
X175395238Y-105125370D02*
X174990476Y-105125370D01*
X175476190Y-105368227D02*
X175192857Y-104518227D01*
X175192857Y-104518227D02*
X174909523Y-105368227D01*
X174747619Y-104518227D02*
X174261905Y-104518227D01*
X174504762Y-105368227D02*
X174504762Y-104518227D01*
X173978572Y-105368227D02*
X173978572Y-104518227D01*
X173978572Y-104518227D02*
X173695238Y-105125370D01*
X173695238Y-105125370D02*
X173411905Y-104518227D01*
X173411905Y-104518227D02*
X173411905Y-105368227D01*
X173007143Y-104922989D02*
X172723809Y-104922989D01*
X172602381Y-105368227D02*
X173007143Y-105368227D01*
X173007143Y-105368227D02*
X173007143Y-104518227D01*
X173007143Y-104518227D02*
X172602381Y-104518227D01*
X171792856Y-104558703D02*
X171873809Y-104518227D01*
X171873809Y-104518227D02*
X171995237Y-104518227D01*
X171995237Y-104518227D02*
X172116666Y-104558703D01*
X172116666Y-104558703D02*
X172197618Y-104639655D01*
X172197618Y-104639655D02*
X172238095Y-104720608D01*
X172238095Y-104720608D02*
X172278571Y-104882512D01*
X172278571Y-104882512D02*
X172278571Y-105003941D01*
X172278571Y-105003941D02*
X172238095Y-105165846D01*
X172238095Y-105165846D02*
X172197618Y-105246798D01*
X172197618Y-105246798D02*
X172116666Y-105327751D01*
X172116666Y-105327751D02*
X171995237Y-105368227D01*
X171995237Y-105368227D02*
X171914285Y-105368227D01*
X171914285Y-105368227D02*
X171792856Y-105327751D01*
X171792856Y-105327751D02*
X171752380Y-105287274D01*
X171752380Y-105287274D02*
X171752380Y-105003941D01*
X171752380Y-105003941D02*
X171914285Y-105003941D01*
X171428571Y-105125370D02*
X171023809Y-105125370D01*
X171509523Y-105368227D02*
X171226190Y-104518227D01*
X171226190Y-104518227D02*
X170942856Y-105368227D01*
X170740476Y-104518227D02*
X170214285Y-104518227D01*
X170214285Y-104518227D02*
X170497619Y-104842036D01*
X170497619Y-104842036D02*
X170376190Y-104842036D01*
X170376190Y-104842036D02*
X170295238Y-104882512D01*
X170295238Y-104882512D02*
X170254762Y-104922989D01*
X170254762Y-104922989D02*
X170214285Y-105003941D01*
X170214285Y-105003941D02*
X170214285Y-105206322D01*
X170214285Y-105206322D02*
X170254762Y-105287274D01*
X170254762Y-105287274D02*
X170295238Y-105327751D01*
X170295238Y-105327751D02*
X170376190Y-105368227D01*
X170376190Y-105368227D02*
X170619047Y-105368227D01*
X170619047Y-105368227D02*
X170700000Y-105327751D01*
X170700000Y-105327751D02*
X170740476Y-105287274D01*
X169890476Y-104599179D02*
X169850000Y-104558703D01*
X169850000Y-104558703D02*
X169769047Y-104518227D01*
X169769047Y-104518227D02*
X169566666Y-104518227D01*
X169566666Y-104518227D02*
X169485714Y-104558703D01*
X169485714Y-104558703D02*
X169445238Y-104599179D01*
X169445238Y-104599179D02*
X169404761Y-104680131D01*
X169404761Y-104680131D02*
X169404761Y-104761084D01*
X169404761Y-104761084D02*
X169445238Y-104882512D01*
X169445238Y-104882512D02*
X169930952Y-105368227D01*
X169930952Y-105368227D02*
X169404761Y-105368227D01*
X169040476Y-104518227D02*
X169040476Y-105206322D01*
X169040476Y-105206322D02*
X168999999Y-105287274D01*
X168999999Y-105287274D02*
X168959523Y-105327751D01*
X168959523Y-105327751D02*
X168878571Y-105368227D01*
X168878571Y-105368227D02*
X168716666Y-105368227D01*
X168716666Y-105368227D02*
X168635714Y-105327751D01*
X168635714Y-105327751D02*
X168595237Y-105287274D01*
X168595237Y-105287274D02*
X168554761Y-105206322D01*
X168554761Y-105206322D02*
X168554761Y-104518227D01*
X167785714Y-104801560D02*
X167785714Y-105368227D01*
X167988095Y-104477751D02*
X168190476Y-105084893D01*
X168190476Y-105084893D02*
X167664285Y-105084893D01*
%TO.C,J2*%
X112679984Y-104708523D02*
X112632364Y-104565666D01*
X112632364Y-104565666D02*
X112632364Y-104327571D01*
X112632364Y-104327571D02*
X112679984Y-104232333D01*
X112679984Y-104232333D02*
X112727603Y-104184714D01*
X112727603Y-104184714D02*
X112822841Y-104137095D01*
X112822841Y-104137095D02*
X112918079Y-104137095D01*
X112918079Y-104137095D02*
X113013317Y-104184714D01*
X113013317Y-104184714D02*
X113060936Y-104232333D01*
X113060936Y-104232333D02*
X113108555Y-104327571D01*
X113108555Y-104327571D02*
X113156174Y-104518047D01*
X113156174Y-104518047D02*
X113203793Y-104613285D01*
X113203793Y-104613285D02*
X113251412Y-104660904D01*
X113251412Y-104660904D02*
X113346650Y-104708523D01*
X113346650Y-104708523D02*
X113441888Y-104708523D01*
X113441888Y-104708523D02*
X113537126Y-104660904D01*
X113537126Y-104660904D02*
X113584745Y-104613285D01*
X113584745Y-104613285D02*
X113632364Y-104518047D01*
X113632364Y-104518047D02*
X113632364Y-104279952D01*
X113632364Y-104279952D02*
X113584745Y-104137095D01*
X112727603Y-103137095D02*
X112679984Y-103184714D01*
X112679984Y-103184714D02*
X112632364Y-103327571D01*
X112632364Y-103327571D02*
X112632364Y-103422809D01*
X112632364Y-103422809D02*
X112679984Y-103565666D01*
X112679984Y-103565666D02*
X112775222Y-103660904D01*
X112775222Y-103660904D02*
X112870460Y-103708523D01*
X112870460Y-103708523D02*
X113060936Y-103756142D01*
X113060936Y-103756142D02*
X113203793Y-103756142D01*
X113203793Y-103756142D02*
X113394269Y-103708523D01*
X113394269Y-103708523D02*
X113489507Y-103660904D01*
X113489507Y-103660904D02*
X113584745Y-103565666D01*
X113584745Y-103565666D02*
X113632364Y-103422809D01*
X113632364Y-103422809D02*
X113632364Y-103327571D01*
X113632364Y-103327571D02*
X113584745Y-103184714D01*
X113584745Y-103184714D02*
X113537126Y-103137095D01*
X112632364Y-102708523D02*
X113632364Y-102708523D01*
X112632364Y-102137095D02*
X113203793Y-102565666D01*
X113632364Y-102137095D02*
X113060936Y-102708523D01*
X116172364Y-104724761D02*
X115172364Y-104391428D01*
X115172364Y-104391428D02*
X116172364Y-104058095D01*
X115267603Y-103153333D02*
X115219984Y-103200952D01*
X115219984Y-103200952D02*
X115172364Y-103343809D01*
X115172364Y-103343809D02*
X115172364Y-103439047D01*
X115172364Y-103439047D02*
X115219984Y-103581904D01*
X115219984Y-103581904D02*
X115315222Y-103677142D01*
X115315222Y-103677142D02*
X115410460Y-103724761D01*
X115410460Y-103724761D02*
X115600936Y-103772380D01*
X115600936Y-103772380D02*
X115743793Y-103772380D01*
X115743793Y-103772380D02*
X115934269Y-103724761D01*
X115934269Y-103724761D02*
X116029507Y-103677142D01*
X116029507Y-103677142D02*
X116124745Y-103581904D01*
X116124745Y-103581904D02*
X116172364Y-103439047D01*
X116172364Y-103439047D02*
X116172364Y-103343809D01*
X116172364Y-103343809D02*
X116124745Y-103200952D01*
X116124745Y-103200952D02*
X116077126Y-103153333D01*
X115267603Y-102153333D02*
X115219984Y-102200952D01*
X115219984Y-102200952D02*
X115172364Y-102343809D01*
X115172364Y-102343809D02*
X115172364Y-102439047D01*
X115172364Y-102439047D02*
X115219984Y-102581904D01*
X115219984Y-102581904D02*
X115315222Y-102677142D01*
X115315222Y-102677142D02*
X115410460Y-102724761D01*
X115410460Y-102724761D02*
X115600936Y-102772380D01*
X115600936Y-102772380D02*
X115743793Y-102772380D01*
X115743793Y-102772380D02*
X115934269Y-102724761D01*
X115934269Y-102724761D02*
X116029507Y-102677142D01*
X116029507Y-102677142D02*
X116124745Y-102581904D01*
X116124745Y-102581904D02*
X116172364Y-102439047D01*
X116172364Y-102439047D02*
X116172364Y-102343809D01*
X116172364Y-102343809D02*
X116124745Y-102200952D01*
X116124745Y-102200952D02*
X116077126Y-102153333D01*
X105012364Y-104140476D02*
X105488555Y-104473809D01*
X105012364Y-104711904D02*
X106012364Y-104711904D01*
X106012364Y-104711904D02*
X106012364Y-104330952D01*
X106012364Y-104330952D02*
X105964745Y-104235714D01*
X105964745Y-104235714D02*
X105917126Y-104188095D01*
X105917126Y-104188095D02*
X105821888Y-104140476D01*
X105821888Y-104140476D02*
X105679031Y-104140476D01*
X105679031Y-104140476D02*
X105583793Y-104188095D01*
X105583793Y-104188095D02*
X105536174Y-104235714D01*
X105536174Y-104235714D02*
X105488555Y-104330952D01*
X105488555Y-104330952D02*
X105488555Y-104711904D01*
X105059984Y-103759523D02*
X105012364Y-103616666D01*
X105012364Y-103616666D02*
X105012364Y-103378571D01*
X105012364Y-103378571D02*
X105059984Y-103283333D01*
X105059984Y-103283333D02*
X105107603Y-103235714D01*
X105107603Y-103235714D02*
X105202841Y-103188095D01*
X105202841Y-103188095D02*
X105298079Y-103188095D01*
X105298079Y-103188095D02*
X105393317Y-103235714D01*
X105393317Y-103235714D02*
X105440936Y-103283333D01*
X105440936Y-103283333D02*
X105488555Y-103378571D01*
X105488555Y-103378571D02*
X105536174Y-103569047D01*
X105536174Y-103569047D02*
X105583793Y-103664285D01*
X105583793Y-103664285D02*
X105631412Y-103711904D01*
X105631412Y-103711904D02*
X105726650Y-103759523D01*
X105726650Y-103759523D02*
X105821888Y-103759523D01*
X105821888Y-103759523D02*
X105917126Y-103711904D01*
X105917126Y-103711904D02*
X105964745Y-103664285D01*
X105964745Y-103664285D02*
X106012364Y-103569047D01*
X106012364Y-103569047D02*
X106012364Y-103330952D01*
X106012364Y-103330952D02*
X105964745Y-103188095D01*
X106012364Y-102902380D02*
X106012364Y-102330952D01*
X105012364Y-102616666D02*
X106012364Y-102616666D01*
X107552364Y-104711904D02*
X108552364Y-104711904D01*
X108552364Y-104711904D02*
X107838079Y-104378571D01*
X107838079Y-104378571D02*
X108552364Y-104045238D01*
X108552364Y-104045238D02*
X107552364Y-104045238D01*
X108552364Y-103378571D02*
X108552364Y-103188095D01*
X108552364Y-103188095D02*
X108504745Y-103092857D01*
X108504745Y-103092857D02*
X108409507Y-102997619D01*
X108409507Y-102997619D02*
X108219031Y-102950000D01*
X108219031Y-102950000D02*
X107885698Y-102950000D01*
X107885698Y-102950000D02*
X107695222Y-102997619D01*
X107695222Y-102997619D02*
X107599984Y-103092857D01*
X107599984Y-103092857D02*
X107552364Y-103188095D01*
X107552364Y-103188095D02*
X107552364Y-103378571D01*
X107552364Y-103378571D02*
X107599984Y-103473809D01*
X107599984Y-103473809D02*
X107695222Y-103569047D01*
X107695222Y-103569047D02*
X107885698Y-103616666D01*
X107885698Y-103616666D02*
X108219031Y-103616666D01*
X108219031Y-103616666D02*
X108409507Y-103569047D01*
X108409507Y-103569047D02*
X108504745Y-103473809D01*
X108504745Y-103473809D02*
X108552364Y-103378571D01*
X107599984Y-102569047D02*
X107552364Y-102426190D01*
X107552364Y-102426190D02*
X107552364Y-102188095D01*
X107552364Y-102188095D02*
X107599984Y-102092857D01*
X107599984Y-102092857D02*
X107647603Y-102045238D01*
X107647603Y-102045238D02*
X107742841Y-101997619D01*
X107742841Y-101997619D02*
X107838079Y-101997619D01*
X107838079Y-101997619D02*
X107933317Y-102045238D01*
X107933317Y-102045238D02*
X107980936Y-102092857D01*
X107980936Y-102092857D02*
X108028555Y-102188095D01*
X108028555Y-102188095D02*
X108076174Y-102378571D01*
X108076174Y-102378571D02*
X108123793Y-102473809D01*
X108123793Y-102473809D02*
X108171412Y-102521428D01*
X108171412Y-102521428D02*
X108266650Y-102569047D01*
X108266650Y-102569047D02*
X108361888Y-102569047D01*
X108361888Y-102569047D02*
X108457126Y-102521428D01*
X108457126Y-102521428D02*
X108504745Y-102473809D01*
X108504745Y-102473809D02*
X108552364Y-102378571D01*
X108552364Y-102378571D02*
X108552364Y-102140476D01*
X108552364Y-102140476D02*
X108504745Y-101997619D01*
X107552364Y-101569047D02*
X108552364Y-101569047D01*
X118664745Y-104137095D02*
X118712364Y-104232333D01*
X118712364Y-104232333D02*
X118712364Y-104375190D01*
X118712364Y-104375190D02*
X118664745Y-104518047D01*
X118664745Y-104518047D02*
X118569507Y-104613285D01*
X118569507Y-104613285D02*
X118474269Y-104660904D01*
X118474269Y-104660904D02*
X118283793Y-104708523D01*
X118283793Y-104708523D02*
X118140936Y-104708523D01*
X118140936Y-104708523D02*
X117950460Y-104660904D01*
X117950460Y-104660904D02*
X117855222Y-104613285D01*
X117855222Y-104613285D02*
X117759984Y-104518047D01*
X117759984Y-104518047D02*
X117712364Y-104375190D01*
X117712364Y-104375190D02*
X117712364Y-104279952D01*
X117712364Y-104279952D02*
X117759984Y-104137095D01*
X117759984Y-104137095D02*
X117807603Y-104089476D01*
X117807603Y-104089476D02*
X118140936Y-104089476D01*
X118140936Y-104089476D02*
X118140936Y-104279952D01*
X117712364Y-103660904D02*
X118712364Y-103660904D01*
X118712364Y-103660904D02*
X117712364Y-103089476D01*
X117712364Y-103089476D02*
X118712364Y-103089476D01*
X117712364Y-102613285D02*
X118712364Y-102613285D01*
X118712364Y-102613285D02*
X118712364Y-102375190D01*
X118712364Y-102375190D02*
X118664745Y-102232333D01*
X118664745Y-102232333D02*
X118569507Y-102137095D01*
X118569507Y-102137095D02*
X118474269Y-102089476D01*
X118474269Y-102089476D02*
X118283793Y-102041857D01*
X118283793Y-102041857D02*
X118140936Y-102041857D01*
X118140936Y-102041857D02*
X117950460Y-102089476D01*
X117950460Y-102089476D02*
X117855222Y-102137095D01*
X117855222Y-102137095D02*
X117759984Y-102232333D01*
X117759984Y-102232333D02*
X117712364Y-102375190D01*
X117712364Y-102375190D02*
X117712364Y-102613285D01*
X110092364Y-104724404D02*
X111092364Y-104724404D01*
X111092364Y-104724404D02*
X110378079Y-104391071D01*
X110378079Y-104391071D02*
X111092364Y-104057738D01*
X111092364Y-104057738D02*
X110092364Y-104057738D01*
X110092364Y-103581547D02*
X111092364Y-103581547D01*
X110139984Y-103152976D02*
X110092364Y-103010119D01*
X110092364Y-103010119D02*
X110092364Y-102772024D01*
X110092364Y-102772024D02*
X110139984Y-102676786D01*
X110139984Y-102676786D02*
X110187603Y-102629167D01*
X110187603Y-102629167D02*
X110282841Y-102581548D01*
X110282841Y-102581548D02*
X110378079Y-102581548D01*
X110378079Y-102581548D02*
X110473317Y-102629167D01*
X110473317Y-102629167D02*
X110520936Y-102676786D01*
X110520936Y-102676786D02*
X110568555Y-102772024D01*
X110568555Y-102772024D02*
X110616174Y-102962500D01*
X110616174Y-102962500D02*
X110663793Y-103057738D01*
X110663793Y-103057738D02*
X110711412Y-103105357D01*
X110711412Y-103105357D02*
X110806650Y-103152976D01*
X110806650Y-103152976D02*
X110901888Y-103152976D01*
X110901888Y-103152976D02*
X110997126Y-103105357D01*
X110997126Y-103105357D02*
X111044745Y-103057738D01*
X111044745Y-103057738D02*
X111092364Y-102962500D01*
X111092364Y-102962500D02*
X111092364Y-102724405D01*
X111092364Y-102724405D02*
X111044745Y-102581548D01*
X111092364Y-101962500D02*
X111092364Y-101772024D01*
X111092364Y-101772024D02*
X111044745Y-101676786D01*
X111044745Y-101676786D02*
X110949507Y-101581548D01*
X110949507Y-101581548D02*
X110759031Y-101533929D01*
X110759031Y-101533929D02*
X110425698Y-101533929D01*
X110425698Y-101533929D02*
X110235222Y-101581548D01*
X110235222Y-101581548D02*
X110139984Y-101676786D01*
X110139984Y-101676786D02*
X110092364Y-101772024D01*
X110092364Y-101772024D02*
X110092364Y-101962500D01*
X110092364Y-101962500D02*
X110139984Y-102057738D01*
X110139984Y-102057738D02*
X110235222Y-102152976D01*
X110235222Y-102152976D02*
X110425698Y-102200595D01*
X110425698Y-102200595D02*
X110759031Y-102200595D01*
X110759031Y-102200595D02*
X110949507Y-102152976D01*
X110949507Y-102152976D02*
X111044745Y-102057738D01*
X111044745Y-102057738D02*
X111092364Y-101962500D01*
%TO.C,MX46*%
X167980586Y-83245478D02*
X167980586Y-83715478D01*
X167980586Y-80165478D02*
X167980586Y-80395478D01*
X167480586Y-84215478D02*
X162915762Y-84215478D01*
X166430586Y-80165478D02*
X167980586Y-80165478D01*
X159030586Y-80165478D02*
X164930586Y-80165478D01*
X157030586Y-85815478D02*
X157030586Y-86055478D01*
X157030586Y-82965478D02*
X157030586Y-82165478D01*
X167480586Y-84215478D02*
G75*
G03*
X167980586Y-83715478I-1J500001D01*
G01*
X162915762Y-84215479D02*
G75*
G03*
X160621441Y-86055478I-866J-2349331D01*
G01*
X159030586Y-80165478D02*
G75*
G03*
X157030586Y-82165478I4J-2000004D01*
G01*
%TO.C,MX55*%
X151311822Y-102295494D02*
X151311822Y-102765494D01*
X151311822Y-99215494D02*
X151311822Y-99445494D01*
X150811822Y-103265494D02*
X146246998Y-103265494D01*
X149761822Y-99215494D02*
X151311822Y-99215494D01*
X142361822Y-99215494D02*
X148261822Y-99215494D01*
X140361822Y-104865494D02*
X140361822Y-105105494D01*
X140361822Y-102015494D02*
X140361822Y-101215494D01*
X150811822Y-103265494D02*
G75*
G03*
X151311822Y-102765494I-1J500001D01*
G01*
X146246998Y-103265495D02*
G75*
G03*
X143952677Y-105105494I-866J-2349331D01*
G01*
X142361822Y-99215494D02*
G75*
G03*
X140361822Y-101215494I4J-2000004D01*
G01*
%TO.C,MX47*%
X187030602Y-83245478D02*
X187030602Y-83715478D01*
X187030602Y-80165478D02*
X187030602Y-80395478D01*
X186530602Y-84215478D02*
X181965778Y-84215478D01*
X185480602Y-80165478D02*
X187030602Y-80165478D01*
X178080602Y-80165478D02*
X183980602Y-80165478D01*
X176080602Y-85815478D02*
X176080602Y-86055478D01*
X176080602Y-82965478D02*
X176080602Y-82165478D01*
X186530602Y-84215478D02*
G75*
G03*
X187030602Y-83715478I-1J500001D01*
G01*
X181965778Y-84215479D02*
G75*
G03*
X179671457Y-86055478I-866J-2349331D01*
G01*
X178080602Y-80165478D02*
G75*
G03*
X176080602Y-82165478I4J-2000004D01*
G01*
D12*
%TO.C,J5*%
X269538000Y-78015000D02*
X271062000Y-78015000D01*
X269538000Y-57695000D02*
X271062000Y-57695000D01*
X271062000Y-78015000D02*
X271570000Y-77507000D01*
X271062000Y-75475000D02*
X271570000Y-75983000D01*
X271062000Y-75475000D02*
X271570000Y-74967000D01*
X271062000Y-72935000D02*
X271570000Y-73443000D01*
X271062000Y-72935000D02*
X271570000Y-72427000D01*
X271062000Y-70395000D02*
X271570000Y-70903000D01*
X271062000Y-70395000D02*
X271570000Y-69887000D01*
X271062000Y-67855000D02*
X271570000Y-68363000D01*
X271062000Y-67855000D02*
X271570000Y-67347000D01*
X271062000Y-65315000D02*
X271570000Y-65823000D01*
X271062000Y-65315000D02*
X271570000Y-64807000D01*
X271062000Y-62775000D02*
X271570000Y-63283000D01*
X271062000Y-62775000D02*
X271570000Y-62267000D01*
X271062000Y-60235000D02*
X271570000Y-60743000D01*
X271062000Y-60235000D02*
X271570000Y-59727000D01*
X271062000Y-57695000D02*
X271570000Y-58203000D01*
X271570000Y-77507000D02*
X271570000Y-75983000D01*
X271570000Y-74967000D02*
X271570000Y-73443000D01*
X271570000Y-72427000D02*
X271570000Y-70903000D01*
X271570000Y-69887000D02*
X271570000Y-68363000D01*
X271570000Y-67347000D02*
X271570000Y-65823000D01*
X271570000Y-64807000D02*
X271570000Y-63283000D01*
X271570000Y-62267000D02*
X271570000Y-60743000D01*
X271570000Y-59727000D02*
X271570000Y-58203000D01*
X269538000Y-57695000D02*
X269030000Y-58203000D01*
X269030000Y-58203000D02*
X269030000Y-59727000D01*
X269538000Y-60235000D02*
X269030000Y-59727000D01*
X269538000Y-60235000D02*
X269030000Y-60743000D01*
X269538000Y-62775000D02*
X269030000Y-62267000D01*
X269030000Y-60743000D02*
X269030000Y-62267000D01*
X269538000Y-62775000D02*
X269030000Y-63283000D01*
X269538000Y-65315000D02*
X269030000Y-64807000D01*
X269030000Y-63283000D02*
X269030000Y-64807000D01*
X269538000Y-65315000D02*
X269030000Y-65823000D01*
X269538000Y-67855000D02*
X269030000Y-67347000D01*
X269030000Y-65823000D02*
X269030000Y-67347000D01*
X269538000Y-67855000D02*
X269030000Y-68363000D01*
X269538000Y-70395000D02*
X269030000Y-69887000D01*
X269030000Y-68363000D02*
X269030000Y-69887000D01*
X269538000Y-70395000D02*
X269030000Y-70903000D01*
X269538000Y-72935000D02*
X269030000Y-72427000D01*
X269030000Y-70903000D02*
X269030000Y-72427000D01*
X269538000Y-78015000D02*
X269030000Y-77507000D01*
X269538000Y-75475000D02*
X269030000Y-74967000D01*
X269538000Y-75475000D02*
X269030000Y-75983000D01*
X269030000Y-75983000D02*
X269030000Y-77507000D01*
X269030000Y-73443000D02*
X269030000Y-74967000D01*
X269538000Y-72935000D02*
X269030000Y-73443000D01*
D10*
%TO.C,MX53*%
X41774230Y-102295494D02*
X41774230Y-102765494D01*
X41774230Y-99215494D02*
X41774230Y-99445494D01*
X41274230Y-103265494D02*
X36709406Y-103265494D01*
X40224230Y-99215494D02*
X41774230Y-99215494D01*
X32824230Y-99215494D02*
X38724230Y-99215494D01*
X30824230Y-104865494D02*
X30824230Y-105105494D01*
X30824230Y-102015494D02*
X30824230Y-101215494D01*
X41274230Y-103265494D02*
G75*
G03*
X41774230Y-102765494I-1J500001D01*
G01*
X36709406Y-103265495D02*
G75*
G03*
X34415085Y-105105494I-866J-2349331D01*
G01*
X32824230Y-99215494D02*
G75*
G03*
X30824230Y-101215494I4J-2000004D01*
G01*
D11*
%TO.C,C4*%
X181138748Y-97940000D02*
X181661252Y-97940000D01*
X181138748Y-99410000D02*
X181661252Y-99410000D01*
%TO.C,RSW1*%
X123639896Y-106686350D02*
X123639896Y-106232222D01*
X125109896Y-106686350D02*
X125109896Y-106232222D01*
D10*
%TO.C,MX54*%
X63205498Y-102295494D02*
X63205498Y-102765494D01*
X63205498Y-99215494D02*
X63205498Y-99445494D01*
X62705498Y-103265494D02*
X58140674Y-103265494D01*
X61655498Y-99215494D02*
X63205498Y-99215494D01*
X54255498Y-99215494D02*
X60155498Y-99215494D01*
X52255498Y-104865494D02*
X52255498Y-105105494D01*
X52255498Y-102015494D02*
X52255498Y-101215494D01*
X62705498Y-103265494D02*
G75*
G03*
X63205498Y-102765494I-1J500001D01*
G01*
X58140674Y-103265495D02*
G75*
G03*
X55846353Y-105105494I-866J-2349331D01*
G01*
X54255498Y-99215494D02*
G75*
G03*
X52255498Y-101215494I4J-2000004D01*
G01*
D11*
%TO.C,D14*%
X40925000Y-52835000D02*
X40925000Y-48825000D01*
X42925000Y-52835000D02*
X40925000Y-52835000D01*
X42925000Y-52835000D02*
X42925000Y-48825000D01*
D10*
%TO.C,MX56*%
X241799398Y-102295494D02*
X241799398Y-102765494D01*
X241799398Y-99215494D02*
X241799398Y-99445494D01*
X241299398Y-103265494D02*
X236734574Y-103265494D01*
X240249398Y-99215494D02*
X241799398Y-99215494D01*
X232849398Y-99215494D02*
X238749398Y-99215494D01*
X230849398Y-104865494D02*
X230849398Y-105105494D01*
X230849398Y-102015494D02*
X230849398Y-101215494D01*
X241299398Y-103265494D02*
G75*
G03*
X241799398Y-102765494I-1J500001D01*
G01*
X236734574Y-103265495D02*
G75*
G03*
X234440253Y-105105494I-866J-2349331D01*
G01*
X232849398Y-99215494D02*
G75*
G03*
X230849398Y-101215494I4J-2000004D01*
G01*
%TO.C,MX42*%
X91780522Y-83245478D02*
X91780522Y-83715478D01*
X91780522Y-80165478D02*
X91780522Y-80395478D01*
X91280522Y-84215478D02*
X86715698Y-84215478D01*
X90230522Y-80165478D02*
X91780522Y-80165478D01*
X82830522Y-80165478D02*
X88730522Y-80165478D01*
X80830522Y-85815478D02*
X80830522Y-86055478D01*
X80830522Y-82965478D02*
X80830522Y-82165478D01*
X91280522Y-84215478D02*
G75*
G03*
X91780522Y-83715478I-1J500001D01*
G01*
X86715698Y-84215479D02*
G75*
G03*
X84421377Y-86055478I-866J-2349331D01*
G01*
X82830522Y-80165478D02*
G75*
G03*
X80830522Y-82165478I4J-2000004D01*
G01*
D11*
%TO.C,D35*%
X198087504Y-71910000D02*
X198087504Y-67900000D01*
X200087504Y-71910000D02*
X198087504Y-71910000D01*
X200087504Y-71910000D02*
X200087504Y-67900000D01*
D10*
%TO.C,MX57*%
X265611918Y-102295494D02*
X265611918Y-102765494D01*
X265611918Y-99215494D02*
X265611918Y-99445494D01*
X265111918Y-103265494D02*
X260547094Y-103265494D01*
X264061918Y-99215494D02*
X265611918Y-99215494D01*
X256661918Y-99215494D02*
X262561918Y-99215494D01*
X254661918Y-104865494D02*
X254661918Y-105105494D01*
X254661918Y-102015494D02*
X254661918Y-101215494D01*
X265111918Y-103265494D02*
G75*
G03*
X265611918Y-102765494I-1J500001D01*
G01*
X260547094Y-103265495D02*
G75*
G03*
X258252773Y-105105494I-866J-2349331D01*
G01*
X256661918Y-99215494D02*
G75*
G03*
X254661918Y-101215494I4J-2000004D01*
G01*
D11*
%TO.C,R3*%
X170165000Y-91797936D02*
X170165000Y-92252064D01*
X171635000Y-91797936D02*
X171635000Y-92252064D01*
D10*
%TO.C,MX41*%
X72730506Y-83245478D02*
X72730506Y-83715478D01*
X72730506Y-80165478D02*
X72730506Y-80395478D01*
X72230506Y-84215478D02*
X67665682Y-84215478D01*
X71180506Y-80165478D02*
X72730506Y-80165478D01*
X63780506Y-80165478D02*
X69680506Y-80165478D01*
X61780506Y-85815478D02*
X61780506Y-86055478D01*
X61780506Y-82965478D02*
X61780506Y-82165478D01*
X72230506Y-84215478D02*
G75*
G03*
X72730506Y-83715478I-1J500001D01*
G01*
X67665682Y-84215479D02*
G75*
G03*
X65371361Y-86055478I-866J-2349331D01*
G01*
X63780506Y-80165478D02*
G75*
G03*
X61780506Y-82165478I4J-2000004D01*
G01*
%TO.C,MX25*%
X248943154Y-45145446D02*
X248943154Y-45615446D01*
X248943154Y-42065446D02*
X248943154Y-42295446D01*
X248443154Y-46115446D02*
X243878330Y-46115446D01*
X247393154Y-42065446D02*
X248943154Y-42065446D01*
X239993154Y-42065446D02*
X245893154Y-42065446D01*
X237993154Y-47715446D02*
X237993154Y-47955446D01*
X237993154Y-44865446D02*
X237993154Y-44065446D01*
X248443154Y-46115446D02*
G75*
G03*
X248943154Y-45615446I-1J500001D01*
G01*
X243878330Y-46115447D02*
G75*
G03*
X241584009Y-47955446I-866J-2349331D01*
G01*
X239993154Y-42065446D02*
G75*
G03*
X237993154Y-44065446I4J-2000004D01*
G01*
%TO.C,MX22*%
X191793106Y-45145446D02*
X191793106Y-45615446D01*
X191793106Y-42065446D02*
X191793106Y-42295446D01*
X191293106Y-46115446D02*
X186728282Y-46115446D01*
X190243106Y-42065446D02*
X191793106Y-42065446D01*
X182843106Y-42065446D02*
X188743106Y-42065446D01*
X180843106Y-47715446D02*
X180843106Y-47955446D01*
X180843106Y-44865446D02*
X180843106Y-44065446D01*
X191293106Y-46115446D02*
G75*
G03*
X191793106Y-45615446I-1J500001D01*
G01*
X186728282Y-46115447D02*
G75*
G03*
X184433961Y-47955446I-866J-2349331D01*
G01*
X182843106Y-42065446D02*
G75*
G03*
X180843106Y-44065446I4J-2000004D01*
G01*
%TO.C,MX49*%
X225130634Y-83245478D02*
X225130634Y-83715478D01*
X225130634Y-80165478D02*
X225130634Y-80395478D01*
X224630634Y-84215478D02*
X220065810Y-84215478D01*
X223580634Y-80165478D02*
X225130634Y-80165478D01*
X216180634Y-80165478D02*
X222080634Y-80165478D01*
X214180634Y-85815478D02*
X214180634Y-86055478D01*
X214180634Y-82965478D02*
X214180634Y-82165478D01*
X224630634Y-84215478D02*
G75*
G03*
X225130634Y-83715478I-1J500001D01*
G01*
X220065810Y-84215479D02*
G75*
G03*
X217771489Y-86055478I-866J-2349331D01*
G01*
X216180634Y-80165478D02*
G75*
G03*
X214180634Y-82165478I4J-2000004D01*
G01*
D11*
%TO.C,D46*%
X154725000Y-90910000D02*
X154725000Y-86900000D01*
X156725000Y-90910000D02*
X154725000Y-90910000D01*
X156725000Y-90910000D02*
X156725000Y-86900000D01*
%TO.C,D40*%
X48068756Y-90910000D02*
X48068756Y-86900000D01*
X50068756Y-90910000D02*
X48068756Y-90910000D01*
X50068756Y-90910000D02*
X50068756Y-86900000D01*
%TO.C,CX1*%
X187788748Y-102465000D02*
X188311252Y-102465000D01*
X187788748Y-103935000D02*
X188311252Y-103935000D01*
%TO.C,R2*%
X168945000Y-92252064D02*
X168945000Y-91797936D01*
X167475000Y-92252064D02*
X167475000Y-91797936D01*
%TO.C,C1*%
X162086252Y-101735000D02*
X161563748Y-101735000D01*
X162086252Y-100265000D02*
X161563748Y-100265000D01*
%TO.C,D57*%
X267150000Y-110085000D02*
X267150000Y-106075000D01*
X269150000Y-110085000D02*
X267150000Y-110085000D01*
X269150000Y-110085000D02*
X269150000Y-106075000D01*
%TO.C,Y1*%
X185300000Y-102575000D02*
X185300000Y-106575000D01*
X182000000Y-102575000D02*
X185300000Y-102575000D01*
%TO.C,C2*%
X162086252Y-109685000D02*
X161563748Y-109685000D01*
X162086252Y-108215000D02*
X161563748Y-108215000D01*
D10*
%TO.C,MX19*%
X134643058Y-45145446D02*
X134643058Y-45615446D01*
X134643058Y-42065446D02*
X134643058Y-42295446D01*
X134143058Y-46115446D02*
X129578234Y-46115446D01*
X133093058Y-42065446D02*
X134643058Y-42065446D01*
X125693058Y-42065446D02*
X131593058Y-42065446D01*
X123693058Y-47715446D02*
X123693058Y-47955446D01*
X123693058Y-44865446D02*
X123693058Y-44065446D01*
X134143058Y-46115446D02*
G75*
G03*
X134643058Y-45615446I-1J500001D01*
G01*
X129578234Y-46115447D02*
G75*
G03*
X127283913Y-47955446I-866J-2349331D01*
G01*
X125693058Y-42065446D02*
G75*
G03*
X123693058Y-44065446I4J-2000004D01*
G01*
D11*
%TO.C,D29*%
X83787504Y-71910000D02*
X83787504Y-67900000D01*
X85787504Y-71910000D02*
X83787504Y-71910000D01*
X85787504Y-71910000D02*
X85787504Y-67900000D01*
D10*
%TO.C,MX21*%
X172743090Y-45145446D02*
X172743090Y-45615446D01*
X172743090Y-42065446D02*
X172743090Y-42295446D01*
X172243090Y-46115446D02*
X167678266Y-46115446D01*
X171193090Y-42065446D02*
X172743090Y-42065446D01*
X163793090Y-42065446D02*
X169693090Y-42065446D01*
X161793090Y-47715446D02*
X161793090Y-47955446D01*
X161793090Y-44865446D02*
X161793090Y-44065446D01*
X172243090Y-46115446D02*
G75*
G03*
X172743090Y-45615446I-1J500001D01*
G01*
X167678266Y-46115447D02*
G75*
G03*
X165383945Y-47955446I-866J-2349331D01*
G01*
X163793090Y-42065446D02*
G75*
G03*
X161793090Y-44065446I4J-2000004D01*
G01*
D11*
%TO.C,D24*%
X231425000Y-52835000D02*
X231425000Y-48825000D01*
X233425000Y-52835000D02*
X231425000Y-52835000D01*
X233425000Y-52835000D02*
X233425000Y-48825000D01*
D10*
%TO.C,MX26*%
X82255514Y-102295494D02*
X82255514Y-102765494D01*
X82255514Y-99215494D02*
X82255514Y-99445494D01*
X81755514Y-103265494D02*
X77190690Y-103265494D01*
X80705514Y-99215494D02*
X82255514Y-99215494D01*
X73305514Y-99215494D02*
X79205514Y-99215494D01*
X71305514Y-104865494D02*
X71305514Y-105105494D01*
X71305514Y-102015494D02*
X71305514Y-101215494D01*
X81755514Y-103265494D02*
G75*
G03*
X82255514Y-102765494I-1J500001D01*
G01*
X77190690Y-103265495D02*
G75*
G03*
X74896369Y-105105494I-866J-2349331D01*
G01*
X73305514Y-99215494D02*
G75*
G03*
X71305514Y-101215494I4J-2000004D01*
G01*
D11*
%TO.C,D31*%
X121887504Y-71910000D02*
X121887504Y-67900000D01*
X123887504Y-71910000D02*
X121887504Y-71910000D01*
X123887504Y-71910000D02*
X123887504Y-67900000D01*
%TO.C,D45*%
X150462512Y-90910000D02*
X150462512Y-86900000D01*
X152462512Y-90910000D02*
X150462512Y-90910000D01*
X152462512Y-90910000D02*
X152462512Y-86900000D01*
%TO.C,D16*%
X79025000Y-52835000D02*
X79025000Y-48825000D01*
X81025000Y-52835000D02*
X79025000Y-52835000D01*
X81025000Y-52835000D02*
X81025000Y-48825000D01*
%TO.C,D41*%
X74262512Y-90910000D02*
X74262512Y-86900000D01*
X76262512Y-90910000D02*
X74262512Y-90910000D01*
X76262512Y-90910000D02*
X76262512Y-86900000D01*
D10*
%TO.C,MX16*%
X77493010Y-45145446D02*
X77493010Y-45615446D01*
X77493010Y-42065446D02*
X77493010Y-42295446D01*
X76993010Y-46115446D02*
X72428186Y-46115446D01*
X75943010Y-42065446D02*
X77493010Y-42065446D01*
X68543010Y-42065446D02*
X74443010Y-42065446D01*
X66543010Y-47715446D02*
X66543010Y-47955446D01*
X66543010Y-44865446D02*
X66543010Y-44065446D01*
X76993010Y-46115446D02*
G75*
G03*
X77493010Y-45615446I-1J500001D01*
G01*
X72428186Y-46115447D02*
G75*
G03*
X70133865Y-47955446I-866J-2349331D01*
G01*
X68543010Y-42065446D02*
G75*
G03*
X66543010Y-44065446I4J-2000004D01*
G01*
%TO.C,MX32*%
X139405562Y-64195462D02*
X139405562Y-64665462D01*
X139405562Y-61115462D02*
X139405562Y-61345462D01*
X138905562Y-65165462D02*
X134340738Y-65165462D01*
X137855562Y-61115462D02*
X139405562Y-61115462D01*
X130455562Y-61115462D02*
X136355562Y-61115462D01*
X128455562Y-66765462D02*
X128455562Y-67005462D01*
X128455562Y-63915462D02*
X128455562Y-63115462D01*
X138905562Y-65165462D02*
G75*
G03*
X139405562Y-64665462I-1J500001D01*
G01*
X134340738Y-65165463D02*
G75*
G03*
X132046417Y-67005462I-866J-2349331D01*
G01*
X130455562Y-61115462D02*
G75*
G03*
X128455562Y-63115462I4J-2000004D01*
G01*
D11*
%TO.C,D49*%
X226662512Y-90910000D02*
X226662512Y-86900000D01*
X228662512Y-90910000D02*
X226662512Y-90910000D01*
X228662512Y-90910000D02*
X228662512Y-86900000D01*
%TO.C,D51*%
X254725016Y-90910000D02*
X254725016Y-86900000D01*
X256725016Y-90910000D02*
X254725016Y-90910000D01*
X256725016Y-90910000D02*
X256725016Y-86900000D01*
%TO.C,D13*%
X254725000Y-52835000D02*
X254725000Y-48825000D01*
X256725000Y-52835000D02*
X254725000Y-52835000D01*
X256725000Y-52835000D02*
X256725000Y-48825000D01*
%TO.C,D50*%
X248093764Y-90910000D02*
X248093764Y-86900000D01*
X250093764Y-90910000D02*
X248093764Y-90910000D01*
X250093764Y-90910000D02*
X250093764Y-86900000D01*
%TO.C,C5*%
X174410000Y-92241252D02*
X174410000Y-91718748D01*
X172940000Y-92241252D02*
X172940000Y-91718748D01*
D10*
%TO.C,MX33*%
X158455578Y-64195462D02*
X158455578Y-64665462D01*
X158455578Y-61115462D02*
X158455578Y-61345462D01*
X157955578Y-65165462D02*
X153390754Y-65165462D01*
X156905578Y-61115462D02*
X158455578Y-61115462D01*
X149505578Y-61115462D02*
X155405578Y-61115462D01*
X147505578Y-66765462D02*
X147505578Y-67005462D01*
X147505578Y-63915462D02*
X147505578Y-63115462D01*
X157955578Y-65165462D02*
G75*
G03*
X158455578Y-64665462I-1J500001D01*
G01*
X153390754Y-65165463D02*
G75*
G03*
X151096433Y-67005462I-866J-2349331D01*
G01*
X149505578Y-61115462D02*
G75*
G03*
X147505578Y-63115462I4J-2000004D01*
G01*
D11*
%TO.C,D37*%
X236187504Y-71910000D02*
X236187504Y-67900000D01*
X238187504Y-71910000D02*
X236187504Y-71910000D01*
X238187504Y-71910000D02*
X238187504Y-67900000D01*
%TO.C,C3*%
X177713748Y-112115000D02*
X178236252Y-112115000D01*
X177713748Y-113585000D02*
X178236252Y-113585000D01*
D10*
%TO.C,MX37*%
X234655642Y-64195462D02*
X234655642Y-64665462D01*
X234655642Y-61115462D02*
X234655642Y-61345462D01*
X234155642Y-65165462D02*
X229590818Y-65165462D01*
X233105642Y-61115462D02*
X234655642Y-61115462D01*
X225705642Y-61115462D02*
X231605642Y-61115462D01*
X223705642Y-66765462D02*
X223705642Y-67005462D01*
X223705642Y-63915462D02*
X223705642Y-63115462D01*
X234155642Y-65165462D02*
G75*
G03*
X234655642Y-64665462I-1J500001D01*
G01*
X229590818Y-65165463D02*
G75*
G03*
X227296497Y-67005462I-866J-2349331D01*
G01*
X225705642Y-61115462D02*
G75*
G03*
X223705642Y-63115462I4J-2000004D01*
G01*
D11*
%TO.C,D18*%
X117125000Y-52835000D02*
X117125000Y-48825000D01*
X119125000Y-52835000D02*
X117125000Y-52835000D01*
X119125000Y-52835000D02*
X119125000Y-48825000D01*
%TO.C,D28*%
X64737504Y-71910000D02*
X64737504Y-67900000D01*
X66737504Y-71910000D02*
X64737504Y-71910000D01*
X66737504Y-71910000D02*
X66737504Y-67900000D01*
D10*
%TO.C,MX34*%
X177505594Y-64195462D02*
X177505594Y-64665462D01*
X177505594Y-61115462D02*
X177505594Y-61345462D01*
X177005594Y-65165462D02*
X172440770Y-65165462D01*
X175955594Y-61115462D02*
X177505594Y-61115462D01*
X168555594Y-61115462D02*
X174455594Y-61115462D01*
X166555594Y-66765462D02*
X166555594Y-67005462D01*
X166555594Y-63915462D02*
X166555594Y-63115462D01*
X177005594Y-65165462D02*
G75*
G03*
X177505594Y-64665462I-1J500001D01*
G01*
X172440770Y-65165463D02*
G75*
G03*
X170146449Y-67005462I-866J-2349331D01*
G01*
X168555594Y-61115462D02*
G75*
G03*
X166555594Y-63115462I4J-2000004D01*
G01*
%TO.C,MX28*%
X63205498Y-64195462D02*
X63205498Y-64665462D01*
X63205498Y-61115462D02*
X63205498Y-61345462D01*
X62705498Y-65165462D02*
X58140674Y-65165462D01*
X61655498Y-61115462D02*
X63205498Y-61115462D01*
X54255498Y-61115462D02*
X60155498Y-61115462D01*
X52255498Y-66765462D02*
X52255498Y-67005462D01*
X52255498Y-63915462D02*
X52255498Y-63115462D01*
X62705498Y-65165462D02*
G75*
G03*
X63205498Y-64665462I-1J500001D01*
G01*
X58140674Y-65165463D02*
G75*
G03*
X55846353Y-67005462I-866J-2349331D01*
G01*
X54255498Y-61115462D02*
G75*
G03*
X52255498Y-63115462I4J-2000004D01*
G01*
D11*
%TO.C,D32*%
X140937504Y-71910000D02*
X140937504Y-67900000D01*
X142937504Y-71910000D02*
X140937504Y-71910000D01*
X142937504Y-71910000D02*
X142937504Y-67900000D01*
D10*
%TO.C,MX45*%
X148930570Y-83245478D02*
X148930570Y-83715478D01*
X148930570Y-80165478D02*
X148930570Y-80395478D01*
X148430570Y-84215478D02*
X143865746Y-84215478D01*
X147380570Y-80165478D02*
X148930570Y-80165478D01*
X139980570Y-80165478D02*
X145880570Y-80165478D01*
X137980570Y-85815478D02*
X137980570Y-86055478D01*
X137980570Y-82965478D02*
X137980570Y-82165478D01*
X148430570Y-84215478D02*
G75*
G03*
X148930570Y-83715478I-1J500001D01*
G01*
X143865746Y-84215479D02*
G75*
G03*
X141571425Y-86055478I-866J-2349331D01*
G01*
X139980570Y-80165478D02*
G75*
G03*
X137980570Y-82165478I4J-2000004D01*
G01*
D11*
%TO.C,D27*%
X43306252Y-71910000D02*
X43306252Y-67900000D01*
X45306252Y-71910000D02*
X43306252Y-71910000D01*
X45306252Y-71910000D02*
X45306252Y-67900000D01*
D10*
%TO.C,MX29*%
X82255514Y-64195462D02*
X82255514Y-64665462D01*
X82255514Y-61115462D02*
X82255514Y-61345462D01*
X81755514Y-65165462D02*
X77190690Y-65165462D01*
X80705514Y-61115462D02*
X82255514Y-61115462D01*
X73305514Y-61115462D02*
X79205514Y-61115462D01*
X71305514Y-66765462D02*
X71305514Y-67005462D01*
X71305514Y-63915462D02*
X71305514Y-63115462D01*
X81755514Y-65165462D02*
G75*
G03*
X82255514Y-64665462I-1J500001D01*
G01*
X77190690Y-65165463D02*
G75*
G03*
X74896369Y-67005462I-866J-2349331D01*
G01*
X73305514Y-61115462D02*
G75*
G03*
X71305514Y-63115462I4J-2000004D01*
G01*
D11*
%TO.C,D48*%
X207612512Y-90910000D02*
X207612512Y-86900000D01*
X209612512Y-90910000D02*
X207612512Y-90910000D01*
X209612512Y-90910000D02*
X209612512Y-86900000D01*
%TO.C,D34*%
X179037504Y-71910000D02*
X179037504Y-67900000D01*
X181037504Y-71910000D02*
X179037504Y-71910000D01*
X181037504Y-71910000D02*
X181037504Y-67900000D01*
D10*
%TO.C,MX18*%
X115593042Y-45145446D02*
X115593042Y-45615446D01*
X115593042Y-42065446D02*
X115593042Y-42295446D01*
X115093042Y-46115446D02*
X110528218Y-46115446D01*
X114043042Y-42065446D02*
X115593042Y-42065446D01*
X106643042Y-42065446D02*
X112543042Y-42065446D01*
X104643042Y-47715446D02*
X104643042Y-47955446D01*
X104643042Y-44865446D02*
X104643042Y-44065446D01*
X115093042Y-46115446D02*
G75*
G03*
X115593042Y-45615446I-1J500001D01*
G01*
X110528218Y-46115447D02*
G75*
G03*
X108233897Y-47955446I-866J-2349331D01*
G01*
X106643042Y-42065446D02*
G75*
G03*
X104643042Y-44065446I4J-2000004D01*
G01*
D11*
%TO.C,D20*%
X155225000Y-52835000D02*
X155225000Y-48825000D01*
X157225000Y-52835000D02*
X155225000Y-52835000D01*
X157225000Y-52835000D02*
X157225000Y-48825000D01*
%TO.C,J3*%
X64815000Y-57520499D02*
X64815000Y-60020499D01*
X64815000Y-60020499D02*
X65865000Y-60020499D01*
X65865000Y-60020499D02*
X65865000Y-61010499D01*
X65985000Y-55550499D02*
X69865000Y-55550499D01*
X71035000Y-57520499D02*
X71035000Y-60020499D01*
X71035000Y-60020499D02*
X69985000Y-60020499D01*
D10*
%TO.C,MX24*%
X229893138Y-45145446D02*
X229893138Y-45615446D01*
X229893138Y-42065446D02*
X229893138Y-42295446D01*
X229393138Y-46115446D02*
X224828314Y-46115446D01*
X228343138Y-42065446D02*
X229893138Y-42065446D01*
X220943138Y-42065446D02*
X226843138Y-42065446D01*
X218943138Y-47715446D02*
X218943138Y-47955446D01*
X218943138Y-44865446D02*
X218943138Y-44065446D01*
X229393138Y-46115446D02*
G75*
G03*
X229893138Y-45615446I-1J500001D01*
G01*
X224828314Y-46115447D02*
G75*
G03*
X222533993Y-47955446I-866J-2349331D01*
G01*
X220943138Y-42065446D02*
G75*
G03*
X218943138Y-44065446I4J-2000004D01*
G01*
D11*
%TO.C,D19*%
X136175000Y-52835000D02*
X136175000Y-48825000D01*
X138175000Y-52835000D02*
X136175000Y-52835000D01*
X138175000Y-52835000D02*
X138175000Y-48825000D01*
D10*
%TO.C,MX43*%
X110830538Y-83245478D02*
X110830538Y-83715478D01*
X110830538Y-80165478D02*
X110830538Y-80395478D01*
X110330538Y-84215478D02*
X105765714Y-84215478D01*
X109280538Y-80165478D02*
X110830538Y-80165478D01*
X101880538Y-80165478D02*
X107780538Y-80165478D01*
X99880538Y-85815478D02*
X99880538Y-86055478D01*
X99880538Y-82965478D02*
X99880538Y-82165478D01*
X110330538Y-84215478D02*
G75*
G03*
X110830538Y-83715478I-1J500001D01*
G01*
X105765714Y-84215479D02*
G75*
G03*
X103471393Y-86055478I-866J-2349331D01*
G01*
X101880538Y-80165478D02*
G75*
G03*
X99880538Y-82165478I4J-2000004D01*
G01*
%TO.C,MX13*%
X267993170Y-45145446D02*
X267993170Y-45615446D01*
X267993170Y-42065446D02*
X267993170Y-42295446D01*
X267493170Y-46115446D02*
X262928346Y-46115446D01*
X266443170Y-42065446D02*
X267993170Y-42065446D01*
X259043170Y-42065446D02*
X264943170Y-42065446D01*
X257043170Y-47715446D02*
X257043170Y-47955446D01*
X257043170Y-44865446D02*
X257043170Y-44065446D01*
X267493170Y-46115446D02*
G75*
G03*
X267993170Y-45615446I-1J500001D01*
G01*
X262928346Y-46115447D02*
G75*
G03*
X260634025Y-47955446I-866J-2349331D01*
G01*
X259043170Y-42065446D02*
G75*
G03*
X257043170Y-44065446I4J-2000004D01*
G01*
%TO.C,MX36*%
X215605626Y-64195462D02*
X215605626Y-64665462D01*
X215605626Y-61115462D02*
X215605626Y-61345462D01*
X215105626Y-65165462D02*
X210540802Y-65165462D01*
X214055626Y-61115462D02*
X215605626Y-61115462D01*
X206655626Y-61115462D02*
X212555626Y-61115462D01*
X204655626Y-66765462D02*
X204655626Y-67005462D01*
X204655626Y-63915462D02*
X204655626Y-63115462D01*
X215105626Y-65165462D02*
G75*
G03*
X215605626Y-64665462I-1J500001D01*
G01*
X210540802Y-65165463D02*
G75*
G03*
X208246481Y-67005462I-866J-2349331D01*
G01*
X206655626Y-61115462D02*
G75*
G03*
X204655626Y-63115462I4J-2000004D01*
G01*
D11*
%TO.C,R1*%
X165672936Y-112115000D02*
X166127064Y-112115000D01*
X165672936Y-113585000D02*
X166127064Y-113585000D01*
%TO.C,D26*%
X83800000Y-110057500D02*
X83800000Y-106047500D01*
X85800000Y-110057500D02*
X83800000Y-110057500D01*
X85800000Y-110057500D02*
X85800000Y-106047500D01*
%TO.C,D56*%
X243301268Y-110102500D02*
X243301268Y-106092500D01*
X245301268Y-110102500D02*
X243301268Y-110102500D01*
X245301268Y-110102500D02*
X245301268Y-106092500D01*
D10*
%TO.C,MX30*%
X101305530Y-64195462D02*
X101305530Y-64665462D01*
X101305530Y-61115462D02*
X101305530Y-61345462D01*
X100805530Y-65165462D02*
X96240706Y-65165462D01*
X99755530Y-61115462D02*
X101305530Y-61115462D01*
X92355530Y-61115462D02*
X98255530Y-61115462D01*
X90355530Y-66765462D02*
X90355530Y-67005462D01*
X90355530Y-63915462D02*
X90355530Y-63115462D01*
X100805530Y-65165462D02*
G75*
G03*
X101305530Y-64665462I-1J500001D01*
G01*
X96240706Y-65165463D02*
G75*
G03*
X93946385Y-67005462I-866J-2349331D01*
G01*
X92355530Y-61115462D02*
G75*
G03*
X90355530Y-63115462I4J-2000004D01*
G01*
%TO.C,MX39*%
X220368130Y-102295494D02*
X220368130Y-102765494D01*
X220368130Y-99215494D02*
X220368130Y-99445494D01*
X219868130Y-103265494D02*
X215303306Y-103265494D01*
X218818130Y-99215494D02*
X220368130Y-99215494D01*
X211418130Y-99215494D02*
X217318130Y-99215494D01*
X209418130Y-104865494D02*
X209418130Y-105105494D01*
X209418130Y-102015494D02*
X209418130Y-101215494D01*
X219868130Y-103265494D02*
G75*
G03*
X220368130Y-102765494I-1J500001D01*
G01*
X215303306Y-103265495D02*
G75*
G03*
X213008985Y-105105494I-866J-2349331D01*
G01*
X211418130Y-99215494D02*
G75*
G03*
X209418130Y-101215494I4J-2000004D01*
G01*
D11*
%TO.C,D30*%
X102837504Y-71910000D02*
X102837504Y-67900000D01*
X104837504Y-71910000D02*
X102837504Y-71910000D01*
X104837504Y-71910000D02*
X104837504Y-67900000D01*
%TO.C,CX2*%
X187788748Y-105165000D02*
X188311252Y-105165000D01*
X187788748Y-106635000D02*
X188311252Y-106635000D01*
D10*
%TO.C,MX35*%
X196555610Y-64195462D02*
X196555610Y-64665462D01*
X196555610Y-61115462D02*
X196555610Y-61345462D01*
X196055610Y-65165462D02*
X191490786Y-65165462D01*
X195005610Y-61115462D02*
X196555610Y-61115462D01*
X187605610Y-61115462D02*
X193505610Y-61115462D01*
X185605610Y-66765462D02*
X185605610Y-67005462D01*
X185605610Y-63915462D02*
X185605610Y-63115462D01*
X196055610Y-65165462D02*
G75*
G03*
X196555610Y-64665462I-1J500001D01*
G01*
X191490786Y-65165463D02*
G75*
G03*
X189196465Y-67005462I-866J-2349331D01*
G01*
X187605610Y-61115462D02*
G75*
G03*
X185605610Y-63115462I4J-2000004D01*
G01*
%TO.C,MX15*%
X58442994Y-45145446D02*
X58442994Y-45615446D01*
X58442994Y-42065446D02*
X58442994Y-42295446D01*
X57942994Y-46115446D02*
X53378170Y-46115446D01*
X56892994Y-42065446D02*
X58442994Y-42065446D01*
X49492994Y-42065446D02*
X55392994Y-42065446D01*
X47492994Y-47715446D02*
X47492994Y-47955446D01*
X47492994Y-44865446D02*
X47492994Y-44065446D01*
X57942994Y-46115446D02*
G75*
G03*
X58442994Y-45615446I-1J500001D01*
G01*
X53378170Y-46115447D02*
G75*
G03*
X51083849Y-47955446I-866J-2349331D01*
G01*
X49492994Y-42065446D02*
G75*
G03*
X47492994Y-44065446I4J-2000004D01*
G01*
%TO.C,MX48*%
X206080618Y-83245478D02*
X206080618Y-83715478D01*
X206080618Y-80165478D02*
X206080618Y-80395478D01*
X205580618Y-84215478D02*
X201015794Y-84215478D01*
X204530618Y-80165478D02*
X206080618Y-80165478D01*
X197130618Y-80165478D02*
X203030618Y-80165478D01*
X195130618Y-85815478D02*
X195130618Y-86055478D01*
X195130618Y-82965478D02*
X195130618Y-82165478D01*
X205580618Y-84215478D02*
G75*
G03*
X206080618Y-83715478I-1J500001D01*
G01*
X201015794Y-84215479D02*
G75*
G03*
X198721473Y-86055478I-866J-2349331D01*
G01*
X197130618Y-80165478D02*
G75*
G03*
X195130618Y-82165478I4J-2000004D01*
G01*
D11*
%TO.C,D33*%
X159987504Y-71910000D02*
X159987504Y-67900000D01*
X161987504Y-71910000D02*
X159987504Y-71910000D01*
X161987504Y-71910000D02*
X161987504Y-67900000D01*
D10*
%TO.C,MX31*%
X120355546Y-64195462D02*
X120355546Y-64665462D01*
X120355546Y-61115462D02*
X120355546Y-61345462D01*
X119855546Y-65165462D02*
X115290722Y-65165462D01*
X118805546Y-61115462D02*
X120355546Y-61115462D01*
X111405546Y-61115462D02*
X117305546Y-61115462D01*
X109405546Y-66765462D02*
X109405546Y-67005462D01*
X109405546Y-63915462D02*
X109405546Y-63115462D01*
X119855546Y-65165462D02*
G75*
G03*
X120355546Y-64665462I-1J500001D01*
G01*
X115290722Y-65165463D02*
G75*
G03*
X112996401Y-67005462I-866J-2349331D01*
G01*
X111405546Y-61115462D02*
G75*
G03*
X109405546Y-63115462I4J-2000004D01*
G01*
D11*
%TO.C,D22*%
X193325000Y-52835000D02*
X193325000Y-48825000D01*
X195325000Y-52835000D02*
X193325000Y-52835000D01*
X195325000Y-52835000D02*
X195325000Y-48825000D01*
D10*
%TO.C,MX17*%
X96543026Y-45145446D02*
X96543026Y-45615446D01*
X96543026Y-42065446D02*
X96543026Y-42295446D01*
X96043026Y-46115446D02*
X91478202Y-46115446D01*
X94993026Y-42065446D02*
X96543026Y-42065446D01*
X87593026Y-42065446D02*
X93493026Y-42065446D01*
X85593026Y-47715446D02*
X85593026Y-47955446D01*
X85593026Y-44865446D02*
X85593026Y-44065446D01*
X96043026Y-46115446D02*
G75*
G03*
X96543026Y-45615446I-1J500001D01*
G01*
X91478202Y-46115447D02*
G75*
G03*
X89183881Y-47955446I-866J-2349331D01*
G01*
X87593026Y-42065446D02*
G75*
G03*
X85593026Y-44065446I4J-2000004D01*
G01*
D11*
%TO.C,D36*%
X217137504Y-71910000D02*
X217137504Y-67900000D01*
X219137504Y-71910000D02*
X217137504Y-71910000D01*
X219137504Y-71910000D02*
X219137504Y-67900000D01*
D10*
%TO.C,MX51*%
X267993170Y-83245478D02*
X267993170Y-83715478D01*
X267993170Y-80165478D02*
X267993170Y-80395478D01*
X267493170Y-84215478D02*
X262928346Y-84215478D01*
X266443170Y-80165478D02*
X267993170Y-80165478D01*
X259043170Y-80165478D02*
X264943170Y-80165478D01*
X257043170Y-85815478D02*
X257043170Y-86055478D01*
X257043170Y-82965478D02*
X257043170Y-82165478D01*
X267493170Y-84215478D02*
G75*
G03*
X267993170Y-83715478I-1J500001D01*
G01*
X262928346Y-84215479D02*
G75*
G03*
X260634025Y-86055478I-866J-2349331D01*
G01*
X259043170Y-80165478D02*
G75*
G03*
X257043170Y-82165478I4J-2000004D01*
G01*
%TO.C,U1*%
X176725000Y-99800000D02*
X176050000Y-99800000D01*
X176725000Y-99800000D02*
X176725000Y-100475000D01*
X166950000Y-99800000D02*
X166950000Y-98525000D01*
X166375000Y-99800000D02*
X166950000Y-99800000D01*
X166375000Y-99800000D02*
X166375000Y-100475000D01*
X176725000Y-110150000D02*
X176725000Y-109475000D01*
X176725000Y-110150000D02*
X176050000Y-110150000D01*
X166375000Y-110150000D02*
X166375000Y-109475000D01*
X166375000Y-110150000D02*
X167050000Y-110150000D01*
%TO.C,MX44*%
X129880554Y-83245478D02*
X129880554Y-83715478D01*
X129880554Y-80165478D02*
X129880554Y-80395478D01*
X129380554Y-84215478D02*
X124815730Y-84215478D01*
X128330554Y-80165478D02*
X129880554Y-80165478D01*
X120930554Y-80165478D02*
X126830554Y-80165478D01*
X118930554Y-85815478D02*
X118930554Y-86055478D01*
X118930554Y-82965478D02*
X118930554Y-82165478D01*
X129380554Y-84215478D02*
G75*
G03*
X129880554Y-83715478I-1J500001D01*
G01*
X124815730Y-84215479D02*
G75*
G03*
X122521409Y-86055478I-866J-2349331D01*
G01*
X120930554Y-80165478D02*
G75*
G03*
X118930554Y-82165478I4J-2000004D01*
G01*
%TO.C,MX27*%
X41774230Y-64195462D02*
X41774230Y-64665462D01*
X41774230Y-61115462D02*
X41774230Y-61345462D01*
X41274230Y-65165462D02*
X36709406Y-65165462D01*
X40224230Y-61115462D02*
X41774230Y-61115462D01*
X32824230Y-61115462D02*
X38724230Y-61115462D01*
X30824230Y-66765462D02*
X30824230Y-67005462D01*
X30824230Y-63915462D02*
X30824230Y-63115462D01*
X41274230Y-65165462D02*
G75*
G03*
X41774230Y-64665462I-1J500001D01*
G01*
X36709406Y-65165463D02*
G75*
G03*
X34415085Y-67005462I-866J-2349331D01*
G01*
X32824230Y-61115462D02*
G75*
G03*
X30824230Y-63115462I4J-2000004D01*
G01*
%TO.C,MX40*%
X46536734Y-83245478D02*
X46536734Y-83715478D01*
X46536734Y-80165478D02*
X46536734Y-80395478D01*
X46036734Y-84215478D02*
X41471910Y-84215478D01*
X44986734Y-80165478D02*
X46536734Y-80165478D01*
X37586734Y-80165478D02*
X43486734Y-80165478D01*
X35586734Y-85815478D02*
X35586734Y-86055478D01*
X35586734Y-82965478D02*
X35586734Y-82165478D01*
X46036734Y-84215478D02*
G75*
G03*
X46536734Y-83715478I-1J500001D01*
G01*
X41471910Y-84215479D02*
G75*
G03*
X39177589Y-86055478I-866J-2349331D01*
G01*
X37586734Y-80165478D02*
G75*
G03*
X35586734Y-82165478I4J-2000004D01*
G01*
D11*
%TO.C,D39*%
X221890626Y-110102500D02*
X221890626Y-106092500D01*
X223890626Y-110102500D02*
X221890626Y-110102500D01*
X223890626Y-110102500D02*
X223890626Y-106092500D01*
%TO.C,D55*%
X152823756Y-110080000D02*
X152823756Y-106070000D01*
X154823756Y-110080000D02*
X152823756Y-110080000D01*
X154823756Y-110080000D02*
X154823756Y-106070000D01*
%TO.C,D43*%
X112362512Y-90910000D02*
X112362512Y-86900000D01*
X114362512Y-90910000D02*
X112362512Y-90910000D01*
X114362512Y-90910000D02*
X114362512Y-86900000D01*
%TO.C,D47*%
X190575000Y-90910000D02*
X190575000Y-86900000D01*
X190575000Y-90910000D02*
X188575000Y-90910000D01*
X188575000Y-90910000D02*
X188575000Y-86900000D01*
D10*
%TO.C,MX23*%
X210843122Y-45145446D02*
X210843122Y-45615446D01*
X210843122Y-42065446D02*
X210843122Y-42295446D01*
X210343122Y-46115446D02*
X205778298Y-46115446D01*
X209293122Y-42065446D02*
X210843122Y-42065446D01*
X201893122Y-42065446D02*
X207793122Y-42065446D01*
X199893122Y-47715446D02*
X199893122Y-47955446D01*
X199893122Y-44865446D02*
X199893122Y-44065446D01*
X210343122Y-46115446D02*
G75*
G03*
X210843122Y-45615446I-1J500001D01*
G01*
X205778298Y-46115447D02*
G75*
G03*
X203483977Y-47955446I-866J-2349331D01*
G01*
X201893122Y-42065446D02*
G75*
G03*
X199893122Y-44065446I4J-2000004D01*
G01*
D11*
%TO.C,D21*%
X174275000Y-52835000D02*
X174275000Y-48825000D01*
X176275000Y-52835000D02*
X174275000Y-52835000D01*
X176275000Y-52835000D02*
X176275000Y-48825000D01*
D10*
%TO.C,MX50*%
X246561902Y-83245478D02*
X246561902Y-83715478D01*
X246561902Y-80165478D02*
X246561902Y-80395478D01*
X246061902Y-84215478D02*
X241497078Y-84215478D01*
X245011902Y-80165478D02*
X246561902Y-80165478D01*
X237611902Y-80165478D02*
X243511902Y-80165478D01*
X235611902Y-85815478D02*
X235611902Y-86055478D01*
X235611902Y-82965478D02*
X235611902Y-82165478D01*
X246061902Y-84215478D02*
G75*
G03*
X246561902Y-83715478I-1J500001D01*
G01*
X241497078Y-84215479D02*
G75*
G03*
X239202757Y-86055478I-866J-2349331D01*
G01*
X237611902Y-80165478D02*
G75*
G03*
X235611902Y-82165478I4J-2000004D01*
G01*
D11*
%TO.C,D38*%
X262375000Y-71910000D02*
X262375000Y-67900000D01*
X264375000Y-71910000D02*
X262375000Y-71910000D01*
X264375000Y-71910000D02*
X264375000Y-67900000D01*
D10*
%TO.C,MX20*%
X153693074Y-45145446D02*
X153693074Y-45615446D01*
X153693074Y-42065446D02*
X153693074Y-42295446D01*
X153193074Y-46115446D02*
X148628250Y-46115446D01*
X152143074Y-42065446D02*
X153693074Y-42065446D01*
X144743074Y-42065446D02*
X150643074Y-42065446D01*
X142743074Y-47715446D02*
X142743074Y-47955446D01*
X142743074Y-44865446D02*
X142743074Y-44065446D01*
X153193074Y-46115446D02*
G75*
G03*
X153693074Y-45615446I-1J500001D01*
G01*
X148628250Y-46115447D02*
G75*
G03*
X146333929Y-47955446I-866J-2349331D01*
G01*
X144743074Y-42065446D02*
G75*
G03*
X142743074Y-44065446I4J-2000004D01*
G01*
D11*
%TO.C,D15*%
X45175000Y-52835000D02*
X45175000Y-48825000D01*
X47175000Y-52835000D02*
X45175000Y-52835000D01*
X47175000Y-52835000D02*
X47175000Y-48825000D01*
%TO.C,D53*%
X43325000Y-110057500D02*
X43325000Y-106047500D01*
X45325000Y-110057500D02*
X43325000Y-110057500D01*
X45325000Y-110057500D02*
X45325000Y-106047500D01*
%TO.C,J2*%
X104712984Y-107820000D02*
X106236984Y-107820000D01*
X106236984Y-107820000D02*
X106744984Y-107312000D01*
X107252984Y-107820000D02*
X108776984Y-107820000D01*
X107252984Y-107820000D02*
X106744984Y-107312000D01*
X108776984Y-107820000D02*
X109284984Y-107312000D01*
X109792984Y-107820000D02*
X111316984Y-107820000D01*
X109792984Y-107820000D02*
X109284984Y-107312000D01*
X111316984Y-107820000D02*
X111824984Y-107312000D01*
X112332984Y-107820000D02*
X113856984Y-107820000D01*
X112332984Y-107820000D02*
X111824984Y-107312000D01*
X113856984Y-107820000D02*
X114364984Y-107312000D01*
X114872984Y-107820000D02*
X116396984Y-107820000D01*
X114872984Y-107820000D02*
X114364984Y-107312000D01*
X116396984Y-107820000D02*
X116904984Y-107312000D01*
X117412984Y-107820000D02*
X118936984Y-107820000D01*
X117412984Y-107820000D02*
X116904984Y-107312000D01*
X118936984Y-107820000D02*
X119444984Y-107312000D01*
X104204984Y-107312000D02*
X104712984Y-107820000D01*
X104204984Y-105788000D02*
X104204984Y-107312000D01*
X104204984Y-105788000D02*
X104712984Y-105280000D01*
X116904984Y-105788000D02*
X116904984Y-107312000D01*
X119444984Y-105788000D02*
X119444984Y-107312000D01*
X119444984Y-105788000D02*
X118936984Y-105280000D01*
X106236984Y-105280000D02*
X106744984Y-105788000D01*
X106236984Y-105280000D02*
X104712984Y-105280000D01*
X107252984Y-105280000D02*
X106744984Y-105788000D01*
X108776984Y-105280000D02*
X109284984Y-105788000D01*
X108776984Y-105280000D02*
X107252984Y-105280000D01*
X109792984Y-105280000D02*
X109284984Y-105788000D01*
X111316984Y-105280000D02*
X111824984Y-105788000D01*
X111316984Y-105280000D02*
X109792984Y-105280000D01*
X112332984Y-105280000D02*
X111824984Y-105788000D01*
X113856984Y-105280000D02*
X114364984Y-105788000D01*
X113856984Y-105280000D02*
X112332984Y-105280000D01*
X114872984Y-105280000D02*
X114364984Y-105788000D01*
X114872984Y-105280000D02*
X116396984Y-105280000D01*
X116396984Y-105280000D02*
X116904984Y-105788000D01*
X117412984Y-105280000D02*
X116904984Y-105788000D01*
X118936984Y-105280000D02*
X117412984Y-105280000D01*
D10*
%TO.C,SW1*%
X128275000Y-105450000D02*
X128275000Y-107650000D01*
X128275000Y-109150000D02*
X133475000Y-109150000D01*
X133475000Y-103950000D02*
X128275000Y-103950000D01*
X133475000Y-107650000D02*
X133475000Y-105450000D01*
X131875000Y-106550000D02*
G75*
G03*
X131875000Y-106550000I-1000000J0D01*
G01*
D11*
%TO.C,D23*%
X212375000Y-52835000D02*
X212375000Y-48825000D01*
X214375000Y-52835000D02*
X212375000Y-52835000D01*
X214375000Y-52835000D02*
X214375000Y-48825000D01*
%TO.C,D25*%
X250475000Y-52835000D02*
X250475000Y-48825000D01*
X252475000Y-52835000D02*
X250475000Y-52835000D01*
X252475000Y-52835000D02*
X252475000Y-48825000D01*
%TO.C,D42*%
X93312512Y-90910000D02*
X93312512Y-86900000D01*
X95312512Y-90910000D02*
X93312512Y-90910000D01*
X95312512Y-90910000D02*
X95312512Y-86900000D01*
D10*
%TO.C,MX38*%
X260849414Y-64195462D02*
X260849414Y-64665462D01*
X260849414Y-61115462D02*
X260849414Y-61345462D01*
X260349414Y-65165462D02*
X255784590Y-65165462D01*
X259299414Y-61115462D02*
X260849414Y-61115462D01*
X251899414Y-61115462D02*
X257799414Y-61115462D01*
X249899414Y-66765462D02*
X249899414Y-67005462D01*
X249899414Y-63915462D02*
X249899414Y-63115462D01*
X260349414Y-65165462D02*
G75*
G03*
X260849414Y-64665462I-1J500001D01*
G01*
X255784590Y-65165463D02*
G75*
G03*
X253490269Y-67005462I-866J-2349331D01*
G01*
X251899414Y-61115462D02*
G75*
G03*
X249899414Y-63115462I4J-2000004D01*
G01*
D11*
%TO.C,D54*%
X64727496Y-110057500D02*
X64727496Y-106047500D01*
X66727496Y-110057500D02*
X64727496Y-110057500D01*
X66727496Y-110057500D02*
X66727496Y-106047500D01*
%TO.C,D44*%
X131412512Y-90910000D02*
X131412512Y-86900000D01*
X133412512Y-90910000D02*
X131412512Y-90910000D01*
X133412512Y-90910000D02*
X133412512Y-86900000D01*
%TO.C,D17*%
X98075000Y-52835000D02*
X98075000Y-48825000D01*
X100075000Y-52835000D02*
X98075000Y-52835000D01*
X100075000Y-52835000D02*
X100075000Y-48825000D01*
D10*
%TO.C,MX14*%
X39392978Y-45145446D02*
X39392978Y-45615446D01*
X39392978Y-42065446D02*
X39392978Y-42295446D01*
X38892978Y-46115446D02*
X34328154Y-46115446D01*
X37842978Y-42065446D02*
X39392978Y-42065446D01*
X30442978Y-42065446D02*
X36342978Y-42065446D01*
X28442978Y-47715446D02*
X28442978Y-47955446D01*
X28442978Y-44865446D02*
X28442978Y-44065446D01*
X38892978Y-46115446D02*
G75*
G03*
X39392978Y-45615446I-1J500001D01*
G01*
X34328154Y-46115447D02*
G75*
G03*
X32033833Y-47955446I-866J-2349331D01*
G01*
X30442978Y-42065446D02*
G75*
G03*
X28442978Y-44065446I4J-2000004D01*
G01*
%TD*%
M02*
