M48
; DRILL file {KiCad 7.0.1-0} date 2023 May 30, Tuesday 10:47:42
; FORMAT={-:-/ absolute / inch / decimal}
; #@! TF.CreationDate,2023-05-30T10:47:42-05:00
; #@! TF.GenerationSoftware,Kicad,Pcbnew,7.0.1-0
; #@! TF.FileFunction,NonPlated,1,2,NPTH
FMAT,2
INCH
; #@! TA.AperFunction,NonPlated,NPTH,ComponentDrill
T1C0.0689
; #@! TA.AperFunction,NonPlated,NPTH,ComponentDrill
T2C0.1200
; #@! TA.AperFunction,NonPlated,NPTH,ComponentDrill
T3C0.1570
%
G90
G05
T1
X1.1594Y-1.9219
X1.2531Y-2.6719
X1.2531Y-4.1719
X1.4406Y-3.4219
X1.5594Y-1.9219
X1.6531Y-2.6719
X1.6531Y-4.1719
X1.8406Y-3.4219
X1.9094Y-1.9219
X2.0969Y-2.6719
X2.0969Y-4.1719
X2.3094Y-1.9219
X2.4719Y-3.4219
X2.4969Y-2.6719
X2.4969Y-4.1719
X2.6594Y-1.9219
X2.8469Y-2.6719
X2.8469Y-4.1719
X2.8719Y-3.4219
X3.0594Y-1.9219
X3.2219Y-3.4219
X3.2469Y-2.6719
X3.2469Y-4.1719
X3.4094Y-1.9219
X3.5969Y-2.6719
X3.6219Y-3.4219
X3.8094Y-1.9219
X3.9719Y-3.4219
X3.9969Y-2.6719
X4.1594Y-1.9219
X4.3469Y-2.6719
X4.3719Y-3.4219
X4.5594Y-1.9219
X4.7219Y-3.4219
X4.7469Y-2.6719
X4.9094Y-1.9219
X5.0969Y-2.6719
X5.1219Y-3.4219
X5.3094Y-1.9219
X5.4719Y-3.4219
X5.4969Y-2.6719
X5.5656Y-4.1719
X5.6594Y-1.9219
X5.8469Y-2.6719
X5.8719Y-3.4219
X5.9656Y-4.1719
X6.0594Y-1.9219
X6.2219Y-3.4219
X6.2469Y-2.6719
X6.4094Y-1.9219
X6.5969Y-2.6719
X6.6219Y-3.4219
X6.8094Y-1.9219
X6.9719Y-3.4219
X6.9969Y-2.6719
X7.1594Y-1.9219
X7.3469Y-2.6719
X7.3719Y-3.4219
X7.5594Y-1.9219
X7.7219Y-3.4219
X7.7469Y-2.6719
X7.9094Y-1.9219
X8.0969Y-2.6719
X8.1219Y-3.4219
X8.2844Y-4.1719
X8.3094Y-1.9219
X8.4719Y-3.4219
X8.4969Y-2.6719
X8.6594Y-1.9219
X8.6844Y-4.1719
X8.8469Y-2.6719
X8.8719Y-3.4219
X9.0594Y-1.9219
X9.1281Y-4.1719
X9.2469Y-2.6719
X9.3156Y-3.4219
X9.4094Y-1.9219
X9.5281Y-4.1719
X9.7156Y-3.4219
X9.8094Y-1.9219
X9.8781Y-2.6719
X10.0656Y-4.1719
X10.1594Y-1.9219
X10.1594Y-3.4219
X10.2781Y-2.6719
X10.4656Y-4.1719
X10.5594Y-1.9219
X10.5594Y-3.4219
T2
X3.7969Y-4.4469
X7.7344Y-4.4469
T3
X1.3594Y-1.9219
X1.4531Y-2.6719
X1.4531Y-4.1719
X1.6406Y-3.4219
X2.1094Y-1.9219
X2.2969Y-2.6719
X2.2969Y-4.1719
X2.6719Y-3.4219
X2.8594Y-1.9219
X3.0469Y-2.6719
X3.0469Y-4.1719
X3.4219Y-3.4219
X3.6094Y-1.9219
X3.7969Y-2.6719
X3.7969Y-3.8469
X4.1719Y-3.4219
X4.3594Y-1.9219
X4.5469Y-2.6719
X4.9219Y-3.4219
X5.1094Y-1.9219
X5.2969Y-2.6719
X5.6719Y-3.4219
X5.7656Y-4.1719
X5.8594Y-1.9219
X6.0469Y-2.6719
X6.4219Y-3.4219
X6.6094Y-1.9219
X6.7969Y-2.6719
X7.1719Y-3.4219
X7.3594Y-1.9219
X7.5469Y-2.6719
X7.7344Y-3.8469
X7.9219Y-3.4219
X8.1094Y-1.9219
X8.2969Y-2.6719
X8.4844Y-4.1719
X8.6719Y-3.4219
X8.8594Y-1.9219
X9.0469Y-2.6719
X9.3281Y-4.1719
X9.5156Y-3.4219
X9.6094Y-1.9219
X10.0781Y-2.6719
X10.2656Y-4.1719
X10.3594Y-1.9219
X10.3594Y-3.4219
T0
M30
